<?plantuml 1.2026.1?><svg xmlns="http://www.w3.org/2000/svg" xmlns:xlink="http://www.w3.org/1999/xlink" contentStyleType="text/css" data-diagram-type="DESCRIPTION" height="876px" preserveAspectRatio="none" style="width:1393px;height:876px;background:#FFFFFF;" version="1.1" viewBox="0 0 1393 876" width="1393px" zoomAndPan="magnify"><title>TrafficSolution Architecture</title><defs/><g><g class="title" data-source-line="1"><text fill="#000000" font-family="sans-serif" font-size="14" font-weight="bold" lengthAdjust="spacing" textLength="219.9463" x="579.6977" y="22.9951">TrafficSolution Architecture</text></g><!--cluster WinForms Client--><g class="cluster" data-qualified-name="WinForms Client" data-source-line="7" id="ent0003"><path d="M120.5,166.0869 L251.6152,166.0869 A3.75,3.75 0 0 1 254.1152,168.5869 L261.1152,188.3837 L600.5,188.3837 A2.5,2.5 0 0 1 603,190.8837 L603,364.4869 A2.5,2.5 0 0 1 600.5,366.9869 L120.5,366.9869 A2.5,2.5 0 0 1 118,364.4869 L118,168.5869 A2.5,2.5 0 0 1 120.5,166.0869" fill="none" style="stroke:#000000;stroke-width:1.5;"/><line style="stroke:#000000;stroke-width:1.5;" x1="118" x2="261.1152" y1="188.3837" y2="188.3837"/><text fill="#000000" font-family="sans-serif" font-size="14" font-weight="bold" lengthAdjust="spacing" textLength="130.1152" x="122" y="181.082">WinForms Client</text></g><!--cluster Port--><g class="cluster" data-qualified-name="Port" data-source-line="13" id="ent0007"><path d="M68.5,399.9869 L102.9756,399.9869 A3.75,3.75 0 0 1 105.4756,402.4869 L112.4756,422.2837 L591.5,422.2837 A2.5,2.5 0 0 1 594,424.7837 L594,506.4869 A2.5,2.5 0 0 1 591.5,508.9869 L68.5,508.9869 A2.5,2.5 0 0 1 66,506.4869 L66,402.4869 A2.5,2.5 0 0 1 68.5,399.9869" fill="none" style="stroke:#000000;stroke-width:1.5;"/><line style="stroke:#000000;stroke-width:1.5;" x1="66" x2="112.4756" y1="422.2837" y2="422.2837"/><text fill="#000000" font-family="sans-serif" font-size="14" font-weight="bold" lengthAdjust="spacing" textLength="33.4756" x="70" y="414.982">Port</text></g><!--cluster Adapter--><g class="cluster" data-qualified-name="Adapter" data-source-line="19" id="ent0011"><path d="M8.5,541.9869 L72.917,541.9869 A3.75,3.75 0 0 1 75.417,544.4869 L82.417,564.2837 L617.5,564.2837 A2.5,2.5 0 0 1 620,566.7837 L620,737.2269 A2.5,2.5 0 0 1 617.5,739.7269 L8.5,739.7269 A2.5,2.5 0 0 1 6,737.2269 L6,544.4869 A2.5,2.5 0 0 1 8.5,541.9869" fill="none" style="stroke:#000000;stroke-width:1.5;"/><line style="stroke:#000000;stroke-width:1.5;" x1="6" x2="82.417" y1="564.2837" y2="564.2837"/><text fill="#000000" font-family="sans-serif" font-size="14" font-weight="bold" lengthAdjust="spacing" textLength="63.417" x="10" y="556.982">Adapter</text></g><!--entity Form1--><g class="entity" data-qualified-name="WinForms Client.Form1" data-source-line="8" id="ent0004"><rect fill="#F1F1F1" height="52.5938" rx="2.5" ry="2.5" style="stroke:#181818;stroke-width:0.5;" width="205.0488" x="381.48" y="201.0869"/><text fill="#000000" font-family="sans-serif" font-size="14" lengthAdjust="spacing" textLength="44.9189" x="391.48" y="224.082">Form1</text><text fill="#000000" font-family="sans-serif" font-size="14" lengthAdjust="spacing" textLength="185.0488" x="391.48" y="240.3789">(WebView2 + Right Panel)</text></g><!--entity TrafficService--><g class="entity" data-qualified-name="WinForms Client.TrafficService" data-source-line="9" id="ent0005"><rect fill="#F1F1F1" height="36.2969" rx="2.5" ry="2.5" style="stroke:#181818;stroke-width:0.5;" width="215.7607" x="134.12" y="314.6869"/><text fill="#000000" font-family="sans-serif" font-size="14" lengthAdjust="spacing" textLength="195.7607" x="144.12" y="337.682">RequestTrafficByPosService</text></g><!--entity CctvService--><g class="entity" data-qualified-name="WinForms Client.CctvService" data-source-line="10" id="ent0006"><rect fill="#F1F1F1" height="36.2969" rx="2.5" ry="2.5" style="stroke:#181818;stroke-width:0.5;" width="202.6768" x="384.66" y="314.6869"/><text fill="#000000" font-family="sans-serif" font-size="14" lengthAdjust="spacing" textLength="182.6768" x="394.66" y="337.682">RequestCctvByPosService</text></g><!--entity OpenStreetPort--><g class="entity" data-qualified-name="Port.OpenStreetPort" data-source-line="14" id="ent0008"><ellipse cx="167" cy="463.9869" fill="#F1F1F1" rx="8" ry="8" style="stroke:#181818;stroke-width:0.5;"/><text fill="#000000" font-family="sans-serif" font-size="14" lengthAdjust="spacing" textLength="155.1689" x="89.4155" y="493.982">IOpenStreetQueryPort</text></g><!--entity TrafficApiPort--><g class="entity" data-qualified-name="Port.TrafficApiPort" data-source-line="15" id="ent0009"><ellipse cx="365" cy="463.9869" fill="#F1F1F1" rx="8" ry="8" style="stroke:#181818;stroke-width:0.5;"/><text fill="#000000" font-family="sans-serif" font-size="14" lengthAdjust="spacing" textLength="140.7451" x="294.6274" y="493.982">IPublicTrafficApiPort</text></g><!--entity CctvApiPort--><g class="entity" data-qualified-name="Port.CctvApiPort" data-source-line="16" id="ent0010"><ellipse cx="528" cy="463.9869" fill="#F1F1F1" rx="8" ry="8" style="stroke:#181818;stroke-width:0.5;"/><text fill="#000000" font-family="sans-serif" font-size="14" lengthAdjust="spacing" textLength="85.9824" x="485.0088" y="493.982">ICctvApiPort</text></g><!--entity OpenStreetAdapter--><g class="entity" data-qualified-name="Adapter.OpenStreetAdapter" data-source-line="20" id="ent0012"><rect fill="#F1F1F1" height="36.2969" rx="2.5" ry="2.5" style="stroke:#181818;stroke-width:0.5;" width="198.5752" x="21.71" y="576.9869"/><text fill="#000000" font-family="sans-serif" font-size="14" lengthAdjust="spacing" textLength="178.5752" x="31.71" y="599.982">OpenStreetQueryAdapter</text></g><!--entity PublicTrafficAdapter--><g class="entity" data-qualified-name="Adapter.PublicTrafficAdapter" data-source-line="21" id="ent0013"><rect fill="#F1F1F1" height="36.2969" rx="2.5" ry="2.5" style="stroke:#181818;stroke-width:0.5;" width="184.1514" x="254.92" y="576.9869"/><text fill="#000000" font-family="sans-serif" font-size="14" lengthAdjust="spacing" textLength="164.1514" x="264.92" y="599.982">PublicTrafficApiAdapter</text></g><!--entity CctvApiAdapter--><g class="entity" data-qualified-name="Adapter.CctvApiAdapter" data-source-line="22" id="ent0014"><rect fill="#F1F1F1" height="36.2969" rx="2.5" ry="2.5" style="stroke:#181818;stroke-width:0.5;" width="129.3887" x="474.31" y="576.9869"/><text fill="#000000" font-family="sans-serif" font-size="14" lengthAdjust="spacing" textLength="109.3887" x="484.31" y="599.982">CctvApiAdapter</text></g><!--entity OpenStreetRepo--><g class="entity" data-qualified-name="Adapter.OpenStreetRepo" data-source-line="23" id="ent0015"><rect fill="#F1F1F1" height="36.2969" rx="2.5" ry="2.5" style="stroke:#181818;stroke-width:0.5;" width="194.9795" x="40.51" y="687.4269"/><text fill="#000000" font-family="sans-serif" font-size="14" lengthAdjust="spacing" textLength="174.9795" x="50.51" y="710.422">OpenStreetDbRepository</text></g><!--entity VdsRepo--><g class="entity" data-qualified-name="Adapter.VdsRepo" data-source-line="24" id="ent0016"><rect fill="#F1F1F1" height="36.2969" rx="2.5" ry="2.5" style="stroke:#181818;stroke-width:0.5;" width="120.8301" x="286.58" y="687.4269"/><text fill="#000000" font-family="sans-serif" font-size="14" lengthAdjust="spacing" textLength="100.8301" x="296.58" y="710.422">VdsRepository</text></g><!--entity User--><g class="entity" data-qualified-name="User" data-source-line="5" id="ent0002"><ellipse cx="484.0049" cy="51.2969" fill="#F1F1F1" rx="8" ry="8" style="stroke:#181818;stroke-width:0.5;"/><path d="M484.0049,59.2969 L484.0049,86.2969 M471.0049,67.2969 L497.0049,67.2969 M484.0049,86.2969 L471.0049,101.2969 M484.0049,86.2969 L497.0049,101.2969" fill="none" style="stroke:#181818;stroke-width:0.5;"/><text fill="#000000" font-family="sans-serif" font-size="14" lengthAdjust="spacing" textLength="107.4897" x="430.26" y="115.792">&#53364;&#46972;&#51060;&#50616;&#53944; &#49324;&#50857;&#51088;</text></g><!--entity TileServer--><g class="entity" data-qualified-name="TileServer" data-source-line="27" id="ent0017"><polygon fill="#F1F1F1" points="1117.66,692.4269,1127.66,682.4269,1376.3416,682.4269,1376.3416,718.7238,1366.3416,728.7238,1117.66,728.7238,1117.66,692.4269" style="stroke:#181818;stroke-width:0.5;"/><line style="stroke:#181818;stroke-width:0.5;" x1="1366.3416" x2="1376.3416" y1="692.4269" y2="682.4269"/><line style="stroke:#181818;stroke-width:0.5;" x1="1117.66" x2="1366.3416" y1="692.4269" y2="692.4269"/><line style="stroke:#181818;stroke-width:0.5;" x1="1366.3416" x2="1366.3416" y1="692.4269" y2="728.7238"/><text fill="#000000" font-family="sans-serif" font-size="14" lengthAdjust="spacing" textLength="218.6816" x="1132.66" y="715.422">Docker: OpenStreet Tile Server</text></g><!--entity GeoDb--><g class="entity" data-qualified-name="GeoDb" data-source-line="28" id="ent0018"><path d="M289.05,807.8769 C289.05,797.8769 347.0041,797.8769 347.0041,797.8769 C347.0041,797.8769 404.9582,797.8769 404.9582,807.8769 L404.9582,849.4706 C404.9582,859.4706 347.0041,859.4706 347.0041,859.4706 C347.0041,859.4706 289.05,859.4706 289.05,849.4706 L289.05,807.8769" fill="#F1F1F1" style="stroke:#181818;stroke-width:0.5;"/><path d="M289.05,807.8769 C289.05,817.8769 347.0041,817.8769 347.0041,817.8769 C347.0041,817.8769 404.9582,817.8769 404.9582,807.8769" fill="none" style="stroke:#181818;stroke-width:0.5;"/><text fill="#000000" font-family="sans-serif" font-size="14" lengthAdjust="spacing" textLength="92.8184" x="299.05" y="834.872">Geo Postgres</text><text fill="#000000" font-family="sans-serif" font-size="14" lengthAdjust="spacing" textLength="95.9082" x="299.05" y="851.1689">(vds, vds_loc)</text></g><!--entity VdsApi--><g class="entity" data-qualified-name="VdsApi" data-source-line="29" id="ent0019"><path d="M646.608,682.3111 C650.7589,677.2917 655.8803,676.5729 659.4821,682.9324 C663.5633,677.607 667.8685,677.1253 671.1507,683.7148 C674.2842,676.6931 680.8408,677.6716 684.6756,682.9434 C689.5181,675.0261 694.9944,674.3981 700.3704,682.4182 C704.6062,675.4209 710.4042,676.2261 713.6359,683.3607 C716.228,677.8979 721.7813,677.6531 725.4716,682.0413 C728.4381,674.4652 735.0074,675.3232 739.2118,680.7314 C742.9116,673.8895 749.3685,674.0708 752.5762,681.202 C757.4032,676.08 761.3571,676.2031 764.9393,682.5444 C768.6284,675.6609 776.3809,675.3115 780.5039,682.0485 C785.0651,676.2114 789.5751,676.2759 793.7491,682.4746 C796.7247,675.4568 803.1647,676.7702 806.692,681.8862 C811.3105,675.737 815.1874,677.1734 818.8317,682.8834 C823.3096,674.987 828.2531,676.5918 833.0254,682.5826 C849.0793,685.6423 849.9742,695.28 841.9172,707.0883 C848.2511,718.2911 846.1555,727.8668 831.9013,730.114 C828.5481,737.1159 824.5497,736.2501 819.6111,731.8181 C816.9081,737.6467 810.6491,739.4681 806.3023,733.7053 C801.9783,739.4721 796.3737,739.3473 792.4984,733.186 C789.7338,740.1004 785.535,741.5334 780.0839,735.829 C776.5648,742.018 769.4699,743.8627 765.4943,736.3137 C761.772,742.5245 757.2617,743.257 752.757,737.1208 C750.1615,743.7359 744.1465,744.3695 740.4482,738.181 C735.3163,746.1185 730.5084,746.9623 724.7223,738.8208 C720.7016,743.5642 715.4693,743.5758 712.717,737.4232 C706.9217,743.7579 700.7992,741.5152 698.1936,734.0632 C693.0911,739.781 688.911,738.7893 684.9949,732.7333 C681.6684,738.1791 676.1602,737.321 673.5164,732.0051 C668.4215,740.0821 663.8027,739.4177 658.5409,732.1682 C652.9458,736.544 648.7624,736.3842 645.3663,729.5775 C639.3027,729.0618 636.7049,724.986 640.3484,719.5922 C632.8055,718.134 630.5649,713.582 633.6772,706.6369 C630.1662,699.3224 632.2777,696.0849 640.2813,695.7646 C634.6563,688.5689 639.4502,683.4956 646.608,682.3111" fill="#F1F1F1" style="stroke:#181818;stroke-width:0.5;"/><text fill="#000000" font-family="sans-serif" font-size="14" lengthAdjust="spacing" textLength="81.8604" x="651.34" y="702.272">ITS VDS API</text><text fill="#000000" font-family="sans-serif" font-size="14" lengthAdjust="spacing" textLength="173.3115" x="651.34" y="718.5689">openapi.its.go.kr/vdsInfo</text></g><!--entity CctvApi--><g class="entity" data-qualified-name="CctvApi" data-source-line="30" id="ent0020"><path d="M884.6451,683.146 C889.1714,678.2168 894.4,677.0787 897.857,684.3078 C901.9941,677.3354 906.2919,677.2654 910.8381,683.9181 C914.7048,677.007 920.3897,676.6586 925.3631,682.6745 C929.7554,676.5183 934.0633,676.1125 938.158,682.9672 C941.5883,676.1284 947.5091,675.0216 952.0001,681.8967 C957.219,675.8086 961.9275,676.39 966.2074,682.9513 C970.1044,675.8142 976.1721,677.1501 980.274,682.7246 C984.0805,676.0395 990.1077,674.2905 995.2946,681.1993 C999.4671,676.2668 1006.0308,675.4782 1008.5231,682.986 C1011.1531,677.8403 1016.829,676.7905 1020.3376,681.9819 C1025.9877,674.72 1030.4322,675.8494 1034.8734,683.1858 C1038.6368,675.8798 1044.3516,677.5612 1048.3823,682.9003 C1053.0887,677.2979 1057.8085,676.1022 1061.8571,683.578 C1066.8339,677.8055 1072.1631,676.4263 1076.4403,684.3244 C1090.454,686.2925 1093.7887,693.2645 1087.3703,705.6867 C1093.485,718.5513 1093.4084,727.8792 1076.2658,730.2145 C1073.0117,738.0176 1068.6657,738.417 1063.1606,732.3398 C1058.4797,739.3133 1053.6799,739.9897 1048.7415,732.5982 C1045.1292,739.5055 1041.0163,738.6305 1036.4534,733.5745 C1031.3925,740.1232 1025.3465,741.5451 1020.4755,733.3685 C1016.9483,740.0708 1011.9309,739.9464 1007.6496,734.1418 C1005.0081,741.3424 999.905,741.7884 994.7357,736.8255 C990.4654,742.4144 984.6392,742.8789 980.686,736.4547 C977.8721,743.6044 971.597,743.7085 967.7618,737.4383 C961.6821,744.7995 956.1768,743.8662 952.3054,735.2958 C948.5191,741.3026 943.298,741.1617 939.4929,735.3161 C934.4043,740.8891 929.8769,740.1392 926.2262,733.7248 C922.4569,739.6806 916.0649,739.2354 913.0087,732.9545 C908.2381,740.2076 900.4918,739.6958 897.2917,731.3701 C893.0029,737.3539 886.9486,736.4813 884.5339,729.5226 C873.3866,722.9336 871.7796,713.5447 883.853,706.2757 C872.3851,699.3903 872.864,689.2351 884.6451,683.146" fill="#F1F1F1" style="stroke:#181818;stroke-width:0.5;"/><text fill="#000000" font-family="sans-serif" font-size="14" lengthAdjust="spacing" textLength="90.2959" x="889.99" y="702.272">ITS CCTV API</text><text fill="#000000" font-family="sans-serif" font-size="14" lengthAdjust="spacing" textLength="178.0146" x="889.99" y="718.5689">openapi.its.go.kr/cctvInfo</text></g><!--link User to Form1--><g class="link" data-entity-1="ent0002" data-entity-2="ent0004" data-link-type="dependency" data-source-line="32" id="lnk21"><path d="M484,119.5169 C484,145.0969 484,172.2769 484,194.8269" fill="none" id="User-to-Form1" style="stroke:#181818;stroke-width:1;"/><polygon fill="#181818" points="484,200.8269,488,191.8269,484,195.8269,480,191.8269,484,200.8269" style="stroke:#181818;stroke-width:1;"/></g><!--link Form1 to TrafficService--><g class="link" data-entity-1="ent0004" data-entity-2="ent0005" data-link-type="dependency" data-source-line="33" id="lnk22"><path d="M423.87,254.0969 C380.05,272.8169 327.3572,295.3489 288.7272,311.8589" fill="none" id="Form1-to-TrafficService" style="stroke:#181818;stroke-width:1;"/><polygon fill="#181818" points="283.21,314.2169,293.0578,314.358,287.8077,312.2519,289.9138,307.0017,283.21,314.2169" style="stroke:#181818;stroke-width:1;"/></g><!--link Form1 to CctvService--><g class="link" data-entity-1="ent0004" data-entity-2="ent0006" data-link-type="dependency" data-source-line="34" id="lnk23"><path d="M484.49,253.9569 C484.86,272.7469 485.224,291.778 485.544,308.328" fill="none" id="Form1-to-CctvService" style="stroke:#181818;stroke-width:1;"/><polygon fill="#181818" points="485.66,314.3269,489.4853,305.2512,485.5633,309.3278,481.4868,305.4059,485.66,314.3269" style="stroke:#181818;stroke-width:1;"/></g><!--link TrafficService to OpenStreetPort--><g class="link" data-entity-1="ent0005" data-entity-2="ent0008" data-link-type="dependency" data-source-line="36" id="lnk24"><path d="M231.89,351.2469 C215.41,379.6169 186.4542,429.489 174.5842,449.919" fill="none" id="TrafficService-to-OpenStreetPort" style="stroke:#181818;stroke-width:1;"/><polygon fill="#181818" points="171.57,455.1069,179.5499,449.3345,174.0819,450.7836,172.6327,445.3155,171.57,455.1069" style="stroke:#181818;stroke-width:1;"/></g><!--link TrafficService to TrafficApiPort--><g class="link" data-entity-1="ent0005" data-entity-2="ent0009" data-link-type="dependency" data-source-line="37" id="lnk25"><path d="M258.59,351.2469 C285.6,379.6169 333.9129,430.3313 353.3629,450.7613" fill="none" id="TrafficService-to-TrafficApiPort" style="stroke:#181818;stroke-width:1;"/><polygon fill="#181818" points="357.5,455.1069,354.1914,445.8304,354.0524,451.4856,348.3972,451.3466,357.5,455.1069" style="stroke:#181818;stroke-width:1;"/></g><!--link CctvService to OpenStreetPort--><g class="link" data-entity-1="ent0006" data-entity-2="ent0008" data-link-type="dependency" data-source-line="38" id="lnk26"><path d="M440.75,351.3869 C418.74,359.4269 391.76,368.5769 367,374.9869 C324.63,385.9469 310.51,375.4069 270,391.9869 C231.21,407.8569 196.8402,436.1659 180.0802,451.0959" fill="none" id="CctvService-to-OpenStreetPort" style="stroke:#181818;stroke-width:1;"/><polygon fill="#181818" points="175.6,455.0869,184.9809,452.0872,179.3335,451.761,179.6596,446.1136,175.6,455.0869" style="stroke:#181818;stroke-width:1;"/></g><!--link CctvService to TrafficApiPort--><g class="link" data-entity-1="ent0006" data-entity-2="ent0009" data-link-type="dependency" data-source-line="39" id="lnk27"><path d="M469.68,351.2469 C443.1,379.6169 395.6221,430.2982 376.4821,450.7282" fill="none" id="CctvService-to-TrafficApiPort" style="stroke:#181818;stroke-width:1;"/><polygon fill="#181818" points="372.38,455.1069,381.4523,451.2737,375.7985,451.458,375.6141,445.8042,372.38,455.1069" style="stroke:#181818;stroke-width:1;"/></g><!--link CctvService to CctvApiPort--><g class="link" data-entity-1="ent0006" data-entity-2="ent0010" data-link-type="dependency" data-source-line="40" id="lnk28"><path d="M491.66,351.2469 C500.89,379.6169 516.9454,428.9707 523.5854,449.4007" fill="none" id="CctvService-to-CctvApiPort" style="stroke:#181818;stroke-width:1;"/><polygon fill="#181818" points="525.44,455.1069,526.4623,445.3112,523.8945,450.3517,518.854,447.784,525.44,455.1069" style="stroke:#181818;stroke-width:1;"/></g><!--reverse link OpenStreetPort to OpenStreetAdapter--><g class="link" data-entity-1="ent0008" data-entity-2="ent0012" data-link-type="extension" data-source-line="42" id="lnk29"><path d="M158.2234,489.6345 C150.9934,509.9445 137.28,548.4269 127.16,576.8469" fill="none" id="OpenStreetPort-backto-OpenStreetAdapter" style="stroke:#181818;stroke-width:1;stroke-dasharray:7,7;"/><polygon fill="none" points="164.26,472.6769,152.5709,487.6223,163.8759,491.6467,164.26,472.6769" style="stroke:#181818;stroke-width:1;"/></g><!--reverse link TrafficApiPort to PublicTrafficAdapter--><g class="link" data-entity-1="ent0009" data-entity-2="ent0013" data-link-type="extension" data-source-line="43" id="lnk30"><path d="M361.4459,490.5046 C358.6159,510.8146 353.37,548.4269 349.41,576.8469" fill="none" id="TrafficApiPort-backto-PublicTrafficAdapter" style="stroke:#181818;stroke-width:1;stroke-dasharray:7,7;"/><polygon fill="none" points="363.93,472.6769,355.5033,489.6766,367.3885,491.3327,363.93,472.6769" style="stroke:#181818;stroke-width:1;"/></g><!--reverse link CctvApiPort to CctvApiAdapter--><g class="link" data-entity-1="ent0010" data-entity-2="ent0014" data-link-type="extension" data-source-line="44" id="lnk31"><path d="M530.1789,490.6127 C531.8989,510.9227 535.11,548.4269 537.53,576.8469" fill="none" id="CctvApiPort-backto-CctvApiAdapter" style="stroke:#181818;stroke-width:1;stroke-dasharray:7,7;"/><polygon fill="none" points="528.66,472.6769,524.2003,491.119,536.1575,490.1064,528.66,472.6769" style="stroke:#181818;stroke-width:1;"/></g><!--link OpenStreetAdapter to OpenStreetRepo--><g class="link" data-entity-1="ent0012" data-entity-2="ent0015" data-link-type="dependency" data-source-line="46" id="lnk32"><path d="M123.73,613.5569 C126.9,633.7869 131.1807,661.0493 134.3507,681.2693" fill="none" id="OpenStreetAdapter-to-OpenStreetRepo" style="stroke:#181818;stroke-width:1;"/><polygon fill="#181818" points="135.28,687.1969,137.8378,677.6859,134.5056,682.2572,129.9343,678.925,135.28,687.1969" style="stroke:#181818;stroke-width:1;"/></g><!--link PublicTrafficAdapter to VdsRepo--><g class="link" data-entity-1="ent0013" data-entity-2="ent0016" data-link-type="dependency" data-source-line="47" id="lnk33"><path d="M347,613.5569 C347,633.7869 347,660.9769 347,681.1969" fill="none" id="PublicTrafficAdapter-to-VdsRepo" style="stroke:#181818;stroke-width:1;"/><polygon fill="#181818" points="347,687.1969,351,678.1969,347,682.1969,343,678.1969,347,687.1969" style="stroke:#181818;stroke-width:1;"/></g><!--link OpenStreetRepo to GeoDb--><g class="link" data-entity-1="ent0015" data-entity-2="ent0018" data-link-type="dependency" data-source-line="48" id="lnk34"><path d="M168.39,724.1869 C201.45,743.3369 249.698,771.2996 289.528,794.3696" fill="none" id="OpenStreetRepo-to-GeoDb" style="stroke:#181818;stroke-width:1;"/><polygon fill="#181818" points="294.72,797.3769,288.9369,789.4047,290.3934,794.8708,284.9272,796.3273,294.72,797.3769" style="stroke:#181818;stroke-width:1;"/></g><!--link VdsRepo to GeoDb--><g class="link" data-entity-1="ent0016" data-entity-2="ent0018" data-link-type="dependency" data-source-line="49" id="lnk35"><path d="M347,724.1869 C347,743.3369 347,768.3069 347,791.3769" fill="none" id="VdsRepo-to-GeoDb" style="stroke:#181818;stroke-width:1;"/><polygon fill="#181818" points="347,797.3769,351,788.3769,347,792.3769,343,788.3769,347,797.3769" style="stroke:#181818;stroke-width:1;"/></g><!--link PublicTrafficAdapter to VdsApi--><g class="link" data-entity-1="ent0013" data-entity-2="ent0019" data-link-type="dependency" data-source-line="51" id="lnk36"><path d="M410.26,613.6769 C471.21,630.5769 558.6582,654.8335 630.1282,674.6535" fill="none" id="PublicTrafficAdapter-to-VdsApi" style="stroke:#181818;stroke-width:1;"/><polygon fill="#181818" points="635.91,676.2569,628.3062,669.9972,631.0918,674.9207,626.1684,677.7063,635.91,676.2569" style="stroke:#181818;stroke-width:1;"/></g><!--link CctvApiAdapter to CctvApi--><g class="link" data-entity-1="ent0014" data-entity-2="ent0020" data-link-type="dependency" data-source-line="52" id="lnk37"><path d="M604.18,612.0969 C668.47,627.8569 769.52,652.6669 857,674.2769 C862.72,675.6969 862.764,675.7125 868.694,677.1725" fill="none" id="CctvApiAdapter-to-CctvApi" style="stroke:#181818;stroke-width:1;"/><polygon fill="#181818" points="874.52,678.6069,866.7372,672.5713,869.665,677.4115,864.8247,680.3393,874.52,678.6069" style="stroke:#181818;stroke-width:1;"/></g><!--link Form1 to TileServer--><g class="link" data-entity-1="ent0004" data-entity-2="ent0017" data-link-type="dependency" data-source-line="53" id="lnk38"><path d="M586.84,234.3769 C769.84,246.4269 1133,277.2069 1133,331.8369 C1133,331.8369 1133,331.8369 1133,596.1269 C1133,634.7869 1162.6538,660.8026 1193.8038,679.0626" fill="none" id="Form1-to-TileServer" style="stroke:#181818;stroke-width:1;"/><polygon fill="#181818" points="1198.98,682.0969,1193.2385,674.0947,1194.6665,679.5683,1189.1928,680.9963,1198.98,682.0969" style="stroke:#181818;stroke-width:1;"/><text fill="#000000" font-family="sans-serif" font-size="13" lengthAdjust="spacing" textLength="210.9517" x="1134" y="468.5538">Leaflet tile load (localhost:8080)</text></g><!--link TileServer to GeoDb--><g class="link" data-entity-1="ent0017" data-entity-2="ent0018" data-link-type="dependency" data-source-line="54" id="lnk39"><path d="M1175.92,729.2169 C1152.28,736.0369 1125.7,742.9669 1101,747.7269 C844.41,797.1169 538.4012,817.6529 411.1812,824.5329" fill="none" id="TileServer-to-GeoDb" style="stroke:#181818;stroke-width:1;"/><polygon fill="#181818" points="405.19,824.8569,414.3929,828.365,410.1827,824.5869,413.9609,820.3767,405.19,824.8569" style="stroke:#181818;stroke-width:1;"/></g><?plantuml-src XLEnZXCn5Epz5K-fxWGN3ghJ2I65HA18I8Hio3Kd8SVh95Oszc9xWoAWW9AAYWBfw94ehxY2FoBt3pplRXBRsOF6aj-R6O-VnrROZCD8q-bKi4HbXHLAGaUpkR2SsK9pGin2o9ngkWIcbhcINDh4hf6c4K7bB4CCPLPfQDr-klvpzNjpTRtvTdFxvGOsdtzjll_S_FZQ0chWjU6Qa9oo1PrnQ5q8-KpffO5k9b2p1Uy9x8-0bci-l9H75tmo5lpT8xW7Gp6RMnXGoRFZKhB4XBGXVrjmO-ixFLqFb4cuNWd6IyRshbMfaTfbTdN0SyKjwQDtYu7IjNKXBTTJoh3OVvbpcLZDkNrLSBskGAYohxjIH1eKaqomsc0d5pjMM8fOpfWFzlQ1qKvASsGTZ3cokeC5Rkjgo8pz-jImryIkVVgai7INpTvao7Db12Pk7TbqZP0sJas4hYjkDbAbE9YUOWkkppqP60cCjtljsfZRLrkIKaidr23lELU08R4ppGt6T9MQ-u3BcqonAfm8w4q8orIHuZkD4XZt4kWC-fTIuL4q5srXJNkcsWlz08bzELLRXpW5dzZjZiPtCHaERKUj9qY8-sjmSlAa_Y7bMkwZ_EyRVi19Y2hxKNGR455CFS4cWRZz7xOVQn9AmUCFxNP3M4F52jMOIq-xGaL190VQqONAG3L9bxXjua9ysQeYKWEyoZ_5t0E73lq9-M-zYosSmmjEfnbcsxfiPugcS8H9fTaS8tn-TdfsUamy_DxANm00?></g></svg>