<?plantuml 1.2026.1?><svg xmlns="http://www.w3.org/2000/svg" xmlns:xlink="http://www.w3.org/1999/xlink" contentStyleType="text/css" data-diagram-type="DESCRIPTION" height="888px" preserveAspectRatio="none" style="width:1225px;height:888px;background:#FFFFFF;" version="1.1" viewBox="0 0 1225 888" width="1225px" zoomAndPan="magnify"><defs/><g><!--cluster TrafficSolution--><g class="cluster" data-qualified-name="TrafficSolution" data-source-line="9" id="ent0006"><rect fill="none" height="613" rx="2.5" ry="2.5" style="stroke:#181818;stroke-width:1;" width="917.91" x="160.49" y="46.22"/><text fill="#000000" font-family="sans-serif" font-size="14" font-weight="bold" lengthAdjust="spacing" textLength="116.7236" x="561.0832" y="61.2151">TrafficSolution</text></g><!--entity UCM1--><g class="entity" data-qualified-name="TrafficSolution.UCM1" data-source-line="10" id="ent0007"><ellipse cx="272.1057" cy="618.2161" fill="#F1F1F1" rx="71.2357" ry="25.3361" style="stroke:#181818;stroke-width:0.5;"/><text fill="#000000" font-family="sans-serif" font-size="14" lengthAdjust="spacing" textLength="99.5723" x="222.3196" y="615.7384">UC-MODE-001</text><text fill="#000000" font-family="sans-serif" font-size="14" lengthAdjust="spacing" textLength="86.1801" x="229.0157" y="632.0352">&#51648;&#46020; &#47784;&#46300; &#51204;&#54872;</text></g><!--entity UCM2--><g class="entity" data-qualified-name="TrafficSolution.UCM2" data-source-line="11" id="ent0008"><ellipse cx="272.1057" cy="106.2161" fill="#F1F1F1" rx="71.2357" ry="25.3361" style="stroke:#181818;stroke-width:0.5;"/><text fill="#000000" font-family="sans-serif" font-size="14" lengthAdjust="spacing" textLength="99.5723" x="222.3196" y="103.7384">UC-MODE-002</text><text fill="#000000" font-family="sans-serif" font-size="14" lengthAdjust="spacing" textLength="86.1801" x="229.0157" y="120.0352">&#54056;&#45328; &#47784;&#46300; &#51204;&#54872;</text></g><!--entity UCT1--><g class="entity" data-qualified-name="TrafficSolution.UCT1" data-source-line="12" id="ent0009"><ellipse cx="974.4267" cy="441.2158" fill="#F1F1F1" rx="87.9767" ry="24.4258" style="stroke:#181818;stroke-width:0.5;"/><text fill="#000000" font-family="sans-serif" font-size="14" lengthAdjust="spacing" textLength="83.1797" x="932.8369" y="435.3284">UC-TRF-001</text><text fill="#000000" font-family="sans-serif" font-size="14" lengthAdjust="spacing" textLength="129.2701" x="909.7917" y="451.6253">&#51340;&#54364; &#44592;&#48152; &#54844;&#51105;&#46020; &#51312;&#54924;</text></g><!--entity UCT2--><g class="entity" data-qualified-name="TrafficSolution.UCT2" data-source-line="13" id="ent0010"><ellipse cx="272.1144" cy="191.225" fill="#F1F1F1" rx="90.1944" ry="24.365" style="stroke:#181818;stroke-width:0.5;"/><text fill="#000000" font-family="sans-serif" font-size="14" lengthAdjust="spacing" textLength="83.1797" x="230.5245" y="185.2439">UC-TRF-002</text><text fill="#000000" font-family="sans-serif" font-size="14" lengthAdjust="spacing" textLength="133.0209" x="205.6039" y="201.5407">VDS &#52852;&#46300;/&#47560;&#52964; &#46041;&#44592;&#54868;</text></g><!--entity UCT3--><g class="entity" data-qualified-name="TrafficSolution.UCT3" data-source-line="14" id="ent0011"><ellipse cx="272.1122" cy="275.2175" fill="#F1F1F1" rx="95.6222" ry="24.2375" style="stroke:#181818;stroke-width:0.5;"/><text fill="#000000" font-family="sans-serif" font-size="14" lengthAdjust="spacing" textLength="83.1797" x="230.5224" y="269.0383">UC-TRF-003</text><text fill="#000000" font-family="sans-serif" font-size="14" lengthAdjust="spacing" textLength="142.15" x="201.0372" y="285.3351">&#44396;&#44036; &#54844;&#51105;&#46020; &#49353;&#49345; &#49884;&#44033;&#54868;</text></g><!--entity UCC1--><g class="entity" data-qualified-name="TrafficSolution.UCC1" data-source-line="15" id="ent0012"><ellipse cx="615.0877" cy="535.2247" fill="#F1F1F1" rx="87.5777" ry="24.4847" style="stroke:#181818;stroke-width:0.5;"/><text fill="#000000" font-family="sans-serif" font-size="14" lengthAdjust="spacing" textLength="84.752" x="572.7118" y="529.4281">UC-CTV-001</text><text fill="#000000" font-family="sans-serif" font-size="14" lengthAdjust="spacing" textLength="128.3099" x="550.9328" y="545.725">&#51340;&#54364; &#44592;&#48152; CCTV &#51312;&#54924;</text></g><!--entity UCC2--><g class="entity" data-qualified-name="TrafficSolution.UCC2" data-source-line="16" id="ent0013"><ellipse cx="615.0884" cy="619.2208" fill="#F1F1F1" rx="95.3584" ry="24.2808" style="stroke:#181818;stroke-width:0.5;"/><text fill="#000000" font-family="sans-serif" font-size="14" lengthAdjust="spacing" textLength="84.752" x="572.7124" y="613.1091">UC-CTV-002</text><text fill="#000000" font-family="sans-serif" font-size="14" lengthAdjust="spacing" textLength="141.4565" x="544.3601" y="629.4059">CCTV &#52852;&#46300;/&#47560;&#52964; &#46041;&#44592;&#54868;</text></g><!--entity UCC3--><g class="entity" data-qualified-name="TrafficSolution.UCC3" data-source-line="17" id="ent0014"><ellipse cx="272.1073" cy="533.2191" fill="#F1F1F1" rx="60.3073" ry="25.0391" style="stroke:#181818;stroke-width:0.5;"/><text fill="#000000" font-family="sans-serif" font-size="14" lengthAdjust="spacing" textLength="84.752" x="229.7313" y="531.1791">UC-CTV-003</text><text fill="#000000" font-family="sans-serif" font-size="14" lengthAdjust="spacing" textLength="67.8898" x="238.1624" y="547.4759">CCTV &#51116;&#49373;</text></g><!--entity UCO1--><g class="entity" data-qualified-name="TrafficSolution.UCO1" data-source-line="18" id="ent0015"><ellipse cx="272.1058" cy="360.222" fill="#F1F1F1" rx="63.7658" ry="25.982" style="stroke:#181818;stroke-width:0.5;"/><text fill="#000000" font-family="sans-serif" font-size="14" lengthAdjust="spacing" textLength="85.1963" x="229.5077" y="356.6295">UC-OPS-001</text><text fill="#000000" font-family="sans-serif" font-size="14" lengthAdjust="spacing" textLength="86.1801" x="229.0158" y="372.9263">&#51473;&#48373; &#50836;&#52397; &#48169;&#51648;</text></g><!--entity UCO2--><g class="entity" data-qualified-name="TrafficSolution.UCO2" data-source-line="19" id="ent0016"><ellipse cx="272.108" cy="447.2247" fill="#F1F1F1" rx="63.908" ry="25.9647" style="stroke:#181818;stroke-width:0.5;"/><text fill="#000000" font-family="sans-serif" font-size="14" lengthAdjust="spacing" textLength="85.1963" x="229.5098" y="443.6077">UC-OPS-002</text><text fill="#000000" font-family="sans-serif" font-size="14" lengthAdjust="spacing" textLength="86.4467" x="228.8846" y="459.9045">&#51340;&#54364;/&#44221;&#44228; &#44160;&#51613;</text></g><!--entity User--><g class="entity" data-qualified-name="User" data-source-line="4" id="ent0002"><ellipse cx="59.7449" cy="342.57" fill="#F1F1F1" rx="8" ry="8" style="stroke:#181818;stroke-width:0.5;"/><path d="M59.7449,350.57 L59.7449,377.57 M46.7449,358.57 L72.7449,358.57 M59.7449,377.57 L46.7449,392.57 M59.7449,377.57 L72.7449,392.57" fill="none" style="stroke:#181818;stroke-width:0.5;"/><text fill="#000000" font-family="sans-serif" font-size="14" lengthAdjust="spacing" textLength="107.4897" x="6" y="407.0651">&#53364;&#46972;&#51060;&#50616;&#53944; &#49324;&#50857;&#51088;</text></g><!--entity VDSAPI--><g class="entity" data-qualified-name="VDSAPI" data-source-line="5" id="ent0003"><ellipse cx="1171.8102" cy="683.57" fill="#F1F1F1" rx="8" ry="8" style="stroke:#181818;stroke-width:0.5;"/><path d="M1171.8102,691.57 L1171.8102,718.57 M1158.8102,699.57 L1184.8102,699.57 M1171.8102,718.57 L1158.8102,733.57 M1171.8102,718.57 L1184.8102,733.57" fill="none" style="stroke:#181818;stroke-width:0.5;"/><text fill="#000000" font-family="sans-serif" font-size="14" lengthAdjust="spacing" textLength="81.8604" x="1130.88" y="748.0651">ITS VDS API</text></g><!--entity CCTVAPI--><g class="entity" data-qualified-name="CCTVAPI" data-source-line="6" id="ent0004"><ellipse cx="974.4279" cy="683.57" fill="#F1F1F1" rx="8" ry="8" style="stroke:#181818;stroke-width:0.5;"/><path d="M974.4279,691.57 L974.4279,718.57 M961.4279,699.57 L987.4279,699.57 M974.4279,718.57 L961.4279,733.57 M974.4279,718.57 L987.4279,733.57" fill="none" style="stroke:#181818;stroke-width:0.5;"/><text fill="#000000" font-family="sans-serif" font-size="14" lengthAdjust="spacing" textLength="90.2959" x="929.28" y="748.0651">ITS CCTV API</text></g><!--entity DB--><g class="entity" data-qualified-name="DB" data-source-line="7" id="ent0005"><ellipse cx="1171.8092" cy="411.57" fill="#F1F1F1" rx="8" ry="8" style="stroke:#181818;stroke-width:0.5;"/><path d="M1171.8092,419.57 L1171.8092,446.57 M1158.8092,427.57 L1184.8092,427.57 M1171.8092,446.57 L1158.8092,461.57 M1171.8092,446.57 L1184.8092,461.57" fill="none" style="stroke:#181818;stroke-width:0.5;"/><text fill="#000000" font-family="sans-serif" font-size="14" lengthAdjust="spacing" textLength="92.8184" x="1125.4" y="476.0651">Geo Postgres</text></g><!--link User to UCM1--><g class="link" data-entity-1="ent0002" data-entity-2="ent0007" data-link-type="dependency" data-source-line="22" id="lnk17"><path d="M68.41,410.67 C79.4,456.21 103.93,531.49 152.49,576.22 C168.08,590.57 183.1589,598.272 202.9989,604.542" fill="none" id="User-to-UCM1" style="stroke:#181818;stroke-width:1;"/><polygon fill="#181818" points="208.72,606.35,201.3437,599.8239,203.9524,604.8433,198.933,607.452,208.72,606.35" style="stroke:#181818;stroke-width:1;"/></g><!--link User to UCM2--><g class="link" data-entity-1="ent0002" data-entity-2="ent0008" data-link-type="dependency" data-source-line="23" id="lnk18"><path d="M66.77,333.75 C76.41,284.52 99.9,199.62 152.49,149.22 C167.91,134.44 183.0785,126.518 203.0285,120.098" fill="none" id="User-to-UCM2" style="stroke:#181818;stroke-width:1;"/><polygon fill="#181818" points="208.74,118.26,198.9473,117.2093,203.9804,119.7917,201.398,124.8247,208.74,118.26" style="stroke:#181818;stroke-width:1;"/></g><!--link User to UCT1--><g class="link" data-entity-1="ent0002" data-entity-2="ent0009" data-link-type="dependency" data-source-line="24" id="lnk19"><path d="M66.4,333.79 C78.34,258.47 108.71,95.89 152.49,63.22 C229.16,6 275.77,36.87 367.73,63.22 C619.76,135.4 864.3124,342.3038 943.2724,413.4438" fill="none" id="User-to-UCT1" style="stroke:#181818;stroke-width:1;"/><polygon fill="#181818" points="947.73,417.46,943.721,408.464,944.0153,414.1132,938.3661,414.4075,947.73,417.46" style="stroke:#181818;stroke-width:1;"/></g><!--link User to UCT2--><g class="link" data-entity-1="ent0002" data-entity-2="ent0010" data-link-type="dependency" data-source-line="25" id="lnk20"><path d="M77.65,333.58 C93.04,302.49 118.56,259.76 152.49,233.22 C167.12,221.77 179.4561,215.3084 196.9661,209.0884" fill="none" id="User-to-UCT2" style="stroke:#181818;stroke-width:1;"/><polygon fill="#181818" points="202.62,207.08,192.8003,206.3234,197.9084,208.7537,195.4781,213.8619,202.62,207.08" style="stroke:#181818;stroke-width:1;"/></g><!--link User to UCT3--><g class="link" data-entity-1="ent0002" data-entity-2="ent0011" data-link-type="dependency" data-source-line="26" id="lnk21"><path d="M113.61,338.09 C126.1,330.71 139.55,323.31 152.49,317.22 C170.87,308.56 185.883,302.621 204.773,296.051" fill="none" id="User-to-UCT3" style="stroke:#181818;stroke-width:1;"/><polygon fill="#181818" points="210.44,294.08,200.6255,293.2585,205.7175,295.7225,203.2535,300.8145,210.44,294.08" style="stroke:#181818;stroke-width:1;"/></g><!--link User to UCC1--><g class="link" data-entity-1="ent0002" data-entity-2="ent0012" data-link-type="dependency" data-source-line="27" id="lnk22"><path d="M59.83,410.7 C60.65,474.99 72.83,602.93 152.49,661.22 C275.17,750.98 363,688.15 489.73,604.22 C504.69,594.31 504.69,586.98 519.73,577.22 C532.67,568.82 542.076,563.7543 556.156,557.5043" fill="none" id="User-to-UCC1" style="stroke:#181818;stroke-width:1;"/><polygon fill="#181818" points="561.64,555.07,551.7911,555.0655,557.07,557.0986,555.0369,562.3774,561.64,555.07" style="stroke:#181818;stroke-width:1;"/></g><!--link User to UCC2--><g class="link" data-entity-1="ent0002" data-entity-2="ent0013" data-link-type="dependency" data-source-line="28" id="lnk23"><path d="M65.3,410.69 C75.76,491.69 104.38,675.36 152.49,712.22 C284.56,813.37 493.3038,698.1859 575.4338,645.3559" fill="none" id="User-to-UCC2" style="stroke:#181818;stroke-width:1;"/><polygon fill="#181818" points="580.48,642.11,570.7468,643.6148,576.2749,644.815,575.0747,650.343,580.48,642.11" style="stroke:#181818;stroke-width:1;"/></g><!--link User to UCC3--><g class="link" data-entity-1="ent0002" data-entity-2="ent0014" data-link-type="dependency" data-source-line="29" id="lnk24"><path d="M82.62,410.61 C98.96,436.27 123.42,469.07 152.49,490.22 C172.06,504.45 191.1053,512.6455 212.9453,519.3655" fill="none" id="User-to-UCC3" style="stroke:#181818;stroke-width:1;"/><polygon fill="#181818" points="218.68,521.13,211.2543,514.6601,213.9011,519.6596,208.9016,522.3063,218.68,521.13" style="stroke:#181818;stroke-width:1;"/></g><!--link UCT1 to VDSAPI--><g class="link" data-entity-1="ent0009" data-entity-2="ent0003" data-link-type="dependency" data-source-line="31" id="lnk25"><path d="M992.77,465.35 C1026.76,512.68 1098.9098,613.1168 1139.7998,670.0468" fill="none" id="UCT1-to-VDSAPI" style="stroke:#181818;stroke-width:1;"/><polygon fill="#181818" points="1143.3,674.92,1141.2985,665.2767,1140.3832,670.859,1134.8009,669.9436,1143.3,674.92" style="stroke:#181818;stroke-width:1;"/></g><!--link UCT1 to DB--><g class="link" data-entity-1="ent0009" data-entity-2="ent0005" data-link-type="dependency" data-source-line="32" id="lnk26"><path d="M1062.83,441.22 C1084.27,441.22 1100.38,441.22 1118.96,441.22" fill="none" id="UCT1-to-DB" style="stroke:#181818;stroke-width:1;"/><polygon fill="#181818" points="1124.96,441.22,1115.96,437.22,1119.96,441.22,1115.96,445.22,1124.96,441.22" style="stroke:#181818;stroke-width:1;"/></g><!--link UCT3 to DB--><g class="link" data-entity-1="ent0011" data-entity-2="ent0005" data-link-type="dependency" data-source-line="33" id="lnk27"><path d="M366.09,280.02 C519.41,290 833.47,319.17 1086.4,399.22 C1099.36,403.31 1107.4003,406.5131 1119.6303,412.5531" fill="none" id="UCT3-to-DB" style="stroke:#181818;stroke-width:1;"/><polygon fill="#181818" points="1125.01,415.21,1118.7117,407.6383,1120.5269,412.996,1115.1692,414.8112,1125.01,415.21" style="stroke:#181818;stroke-width:1;"/></g><!--link UCC1 to CCTVAPI--><g class="link" data-entity-1="ent0012" data-entity-2="ent0004" data-link-type="dependency" data-source-line="34" id="lnk28"><path d="M663.86,555.83 C678.86,562.47 695.42,569.99 710.45,577.22 C788.28,614.62 871.9203,658.6683 923.8703,686.4783" fill="none" id="UCC1-to-CCTVAPI" style="stroke:#181818;stroke-width:1;"/><polygon fill="#181818" points="929.16,689.31,923.1132,681.5359,924.7519,686.9502,919.3376,688.5889,929.16,689.31" style="stroke:#181818;stroke-width:1;"/></g><!--link UCC1 to VDSAPI--><g class="link" data-entity-1="ent0012" data-entity-2="ent0003" data-link-type="dependency" data-source-line="35" id="lnk29"><path d="M678.61,552.52 C690.77,558.53 702.26,566.55 710.45,577.22 C762,644.31 684.58,701.68 740.45,765.22 C842.77,881.57 945.07,871.7 1086.4,808.22 C1112.37,796.55 1130.1606,777.4364 1144.8306,756.4664" fill="none" id="UCC1-to-VDSAPI" style="stroke:#181818;stroke-width:1;"/><polygon fill="#181818" points="1148.27,751.55,1139.8334,756.6317,1145.4039,755.647,1146.3886,761.2175,1148.27,751.55" style="stroke:#181818;stroke-width:1;"/></g><!--link UCC1 to DB--><g class="link" data-entity-1="ent0012" data-entity-2="ent0005" data-link-type="dependency" data-source-line="36" id="lnk30"><path d="M675.63,553.1 C688.39,559.13 700.88,567.01 710.45,577.22 C736.71,605.22 717.59,627.37 740.45,658.22 C788.98,723.71 809.21,743.19 886.45,769.22 C970.67,797.59 1016.17,823.66 1086.4,769.22 C1098.04,760.2 1141.8025,570.4436 1160.8825,485.6736" fill="none" id="UCC1-to-DB" style="stroke:#181818;stroke-width:1;"/><polygon fill="#181818" points="1162.2,479.82,1156.3214,487.722,1161.1021,484.698,1164.1261,489.4787,1162.2,479.82" style="stroke:#181818;stroke-width:1;"/></g><!--link UCC1 to UCT1--><g class="link" data-entity-1="ent0012" data-entity-2="ent0009" data-link-type="dependency" data-source-line="38" id="lnk31"><path d="M688.7,521.57 C736.68,511.97 800.76,498.05 856.45,482.22 C877.87,476.12 895.4536,470.2794 915.5136,463.0694" fill="none" id="UCC1-to-UCT1" style="stroke:#181818;stroke-width:1;stroke-dasharray:7,7;"/><polygon fill="#181818" points="921.16,461.04,911.3375,460.3199,916.4547,462.7312,914.0434,467.8484,921.16,461.04" style="stroke:#181818;stroke-width:1;"/><text fill="#000000" font-family="sans-serif" font-size="13" lengthAdjust="spacing" textLength="59.0332" x="769.0358" y="463.2869">&#171;reuses&#187;</text><text fill="#000000" font-family="sans-serif" font-size="13" lengthAdjust="spacing" textLength="114.2048" x="741.45" y="478.4197">(&#51340;&#54364;/bounds &#55120;&#47492;)</text></g><!--link UCC3 to UCC2--><g class="link" data-entity-1="ent0014" data-entity-2="ent0013" data-link-type="dependency" data-source-line="39" id="lnk32"><path d="M317.98,549.84 C341.51,558.18 370.95,568.01 397.73,575.22 C442.8,587.34 488.0424,596.786 529.2824,604.506" fill="none" id="UCC3-to-UCC2" style="stroke:#181818;stroke-width:1;stroke-dasharray:7,7;"/><polygon fill="#181818" points="535.18,605.61,527.0697,600.0223,530.2654,604.69,525.5977,607.8857,535.18,605.61" style="stroke:#181818;stroke-width:1;"/><text fill="#000000" font-family="sans-serif" font-size="13" lengthAdjust="spacing" textLength="67.958" x="409.8351" y="556.2869">&#171;extends&#187;</text><text fill="#000000" font-family="sans-serif" font-size="13" lengthAdjust="spacing" textLength="90.1682" x="398.73" y="571.4197">(&#49440;&#53469; &#44208;&#44284; &#51116;&#49373;)</text></g><!--link UCO1 to UCT1--><g class="link" data-entity-1="ent0015" data-entity-2="ent0009" data-link-type="dependency" data-source-line="40" id="lnk33"><path d="M334.3,366.49 C377.7,370.99 437.31,377.29 489.73,383.22 C631.97,399.29 791.6052,418.7253 887.4852,430.5553" fill="none" id="UCO1-to-UCT1" style="stroke:#181818;stroke-width:1;stroke-dasharray:7,7;"/><polygon fill="#181818" points="893.44,431.29,884.9976,426.218,888.4776,430.6777,884.0179,434.1578,893.44,431.29" style="stroke:#181818;stroke-width:1;"/><text fill="#000000" font-family="sans-serif" font-size="13" lengthAdjust="spacing" textLength="62.3721" x="584.09" y="384.2869">&#171;applies&#187;</text></g><!--link UCO1 to UCC1--><g class="link" data-entity-1="ent0015" data-entity-2="ent0012" data-link-type="dependency" data-source-line="41" id="lnk34"><path d="M322.38,376.68 C367.91,393.1 436.37,420.94 489.73,456.22 C504.95,466.27 504.92,473.57 519.73,484.22 C535.16,495.3 547.9482,502.8791 564.1582,511.3191" fill="none" id="UCO1-to-UCC1" style="stroke:#181818;stroke-width:1;stroke-dasharray:7,7;"/><polygon fill="#181818" points="569.48,514.09,563.3445,506.3857,565.0451,511.7809,559.65,513.4815,569.48,514.09" style="stroke:#181818;stroke-width:1;"/><text fill="#000000" font-family="sans-serif" font-size="13" lengthAdjust="spacing" textLength="62.3721" x="412.73" y="404.2869">&#171;applies&#187;</text></g><!--link UCO2 to UCT1--><g class="link" data-entity-1="ent0016" data-entity-2="ent0009" data-link-type="dependency" data-source-line="42" id="lnk35"><path d="M336.5,446.67 C462.17,445.6 737.1002,443.2416 880.1402,442.0116" fill="none" id="UCO2-to-UCT1" style="stroke:#181818;stroke-width:1;stroke-dasharray:7,7;"/><polygon fill="#181818" points="886.14,441.96,877.1059,438.0375,881.1402,442.003,877.1747,446.0372,886.14,441.96" style="stroke:#181818;stroke-width:1;"/><text fill="#000000" font-family="sans-serif" font-size="13" lengthAdjust="spacing" textLength="62.3721" x="584.09" y="440.2869">&#171;applies&#187;</text></g><!--link UCO2 to UCC1--><g class="link" data-entity-1="ent0016" data-entity-2="ent0012" data-link-type="dependency" data-source-line="43" id="lnk36"><path d="M326.77,461.06 C387.16,476.65 479.4204,500.4605 543.8904,517.1005" fill="none" id="UCO2-to-UCC1" style="stroke:#181818;stroke-width:1;stroke-dasharray:7,7;"/><polygon fill="#181818" points="549.7,518.6,541.9852,512.4777,544.8587,517.3504,539.9859,520.2238,549.7,518.6" style="stroke:#181818;stroke-width:1;"/><text fill="#000000" font-family="sans-serif" font-size="13" lengthAdjust="spacing" textLength="62.3721" x="412.73" y="477.2869">&#171;applies&#187;</text></g><?plantuml-src VPFBRjf058RtVeeZLks299XT5I4rGrjb4HaL9oisBXce5MeZsqYjgagXUD4BKeWQHO009LMKIqKb2uX4LVf2dl4xT0PVQf2RtPpvptV-CsTcQhXYWQM3eLPVMt2e6hXigRecc4UgLbSCvGtKbVAHKiL5wrqD0vSLhLh3Wg2KBTs0bDUSaU623cVqVEvzcGFzEARzEphgf40nOT_4HfYvAnVX85-4fuNTfSRMR1bN4P8F8fa7CVq5rg6WcrRLmEPIp-y8GjGEf6H3gLJKSb6lDVW1Kl1U06YOkAoOJDr7wJqf_oozjPKfQVJcc9pOG7xSacy3e1Usr-lwtQAzJ38bbZIlVKliJZ8bhb7oo-U1rVUsTpe0T-uGfmjUTq57bzoRNZfUlntWSYOHPvvyNFJNZ1bkafjFzFSLa9CUA-Rrpa8ssJfRqjpxiUlOSS_MPzfg0lqwS9rch49shGARUrBpoyjPwHjb4adMjv_xOED8J8Ip8JmQqzOmp5rlKIeKWnQlJidq7cZ_Z4v-0d7ksDq6a9H9XCJmN9lkv8yxjS6T7DFhq4aIXG-2m5yjfDCv_q748p4UoIkQlAfbun5QoKGhcUnm0g-r38C_4SNiaVDQ_zR8tmy_HxGHWIW2_M1ZmsyLdi3sje7PGCnShgGz2eRmIczeXoPummwvjXzp91iWI5mY-As5MORFs1TUQyWcvhZJHN15d97MR9HwlQPodxY64ZJn0Kxy3_SN?></g></svg>