<?plantuml 1.2026.1?><svg xmlns="http://www.w3.org/2000/svg" xmlns:xlink="http://www.w3.org/1999/xlink" contentStyleType="text/css" data-diagram-type="SEQUENCE" height="394px" preserveAspectRatio="none" style="width:598px;height:394px;background:#FFFFFF;" version="1.1" viewBox="0 0 598 394" width="598px" zoomAndPan="magnify"><title>UC-TRF-003 Data Flow</title><defs/><g><text fill="#000000" font-family="sans-serif" font-size="14" font-weight="bold" lengthAdjust="spacing" textLength="176.251" x="212.7426" y="27.9951">UC-TRF-003 Data Flow</text><g class="participant-lifeline" data-entity-uid="part1" data-qualified-name="User" id="part1-lifeline"><g><title>User</title><rect fill="#000000" fill-opacity="0.00000" height="194.7969" width="8" x="19.9551" y="118.5938"/><line style="stroke:#181818;stroke-width:0.5;stroke-dasharray:5,5;" x1="23" x2="23" y1="118.5938" y2="313.3906"/></g></g><g class="participant-lifeline" data-entity-uid="part2" data-qualified-name="Form1" id="part2-lifeline"><g><title>Form1</title><rect fill="#000000" fill-opacity="0.00000" height="194.7969" width="8" x="175.9521" y="118.5938"/><line style="stroke:#181818;stroke-width:0.5;stroke-dasharray:5,5;" x1="179.4926" x2="179.4926" y1="118.5938" y2="313.3906"/></g></g><g class="participant-lifeline" data-entity-uid="part3" data-qualified-name="Policy" id="part3-lifeline"><g><title>TrafficLevelPolicy</title><rect fill="#000000" fill-opacity="0.00000" height="194.7969" width="8" x="291.9368" y="118.5938"/><line style="stroke:#181818;stroke-width:0.5;stroke-dasharray:5,5;" x1="295.7859" x2="295.7859" y1="118.5938" y2="313.3906"/></g></g><g class="participant-lifeline" data-entity-uid="part4" data-qualified-name="VdsRepo" id="part4-lifeline"><g><title>VdsRepository</title><rect fill="#000000" fill-opacity="0.00000" height="194.7969" width="8" x="427.5027" y="118.5938"/><line style="stroke:#181818;stroke-width:0.5;stroke-dasharray:5,5;" x1="431.0877" x2="431.0877" y1="118.5938" y2="313.3906"/></g></g><g class="participant-lifeline" data-entity-uid="part5" data-qualified-name="GeoDb" id="part5-lifeline"><g><title>Geo Postgres</title><rect fill="#000000" fill-opacity="0.00000" height="194.7969" width="8" x="544.327" y="118.5938"/><line style="stroke:#181818;stroke-width:0.5;stroke-dasharray:5,5;" x1="547.9178" x2="547.9178" y1="118.5938" y2="313.3906"/></g></g><g class="participant participant-head" data-entity-uid="part1" data-qualified-name="User" id="part1-head"><text fill="#000000" font-family="sans-serif" font-size="14" lengthAdjust="spacing" textLength="31.9102" x="5" y="115.292">User</text><ellipse cx="23.9551" cy="50.7969" fill="#E2E2F0" rx="8" ry="8" style="stroke:#181818;stroke-width:0.5;"/><path d="M23.9551,58.7969 L23.9551,85.7969 M10.9551,66.7969 L36.9551,66.7969 M23.9551,85.7969 L10.9551,100.7969 M23.9551,85.7969 L36.9551,100.7969" fill="none" style="stroke:#181818;stroke-width:0.5;"/></g><g class="participant participant-tail" data-entity-uid="part1" data-qualified-name="User" id="part1-tail"><text fill="#000000" font-family="sans-serif" font-size="14" lengthAdjust="spacing" textLength="31.9102" x="5" y="325.3857">User</text><ellipse cx="23.9551" cy="337.1875" fill="#E2E2F0" rx="8" ry="8" style="stroke:#181818;stroke-width:0.5;"/><path d="M23.9551,345.1875 L23.9551,372.1875 M10.9551,353.1875 L36.9551,353.1875 M23.9551,372.1875 L10.9551,387.1875 M23.9551,372.1875 L36.9551,387.1875" fill="none" style="stroke:#181818;stroke-width:0.5;"/></g><g class="participant participant-head" data-entity-uid="part2" data-qualified-name="Form1" id="part2-head"><rect fill="#E2E2F0" height="30.2969" rx="2.5" ry="2.5" style="stroke:#181818;stroke-width:0.5;" width="58.9189" x="150.4926" y="87.2969"/><text fill="#000000" font-family="sans-serif" font-size="14" lengthAdjust="spacing" textLength="44.9189" x="157.4926" y="107.292">Form1</text></g><g class="participant participant-tail" data-entity-uid="part2" data-qualified-name="Form1" id="part2-tail"><rect fill="#E2E2F0" height="30.2969" rx="2.5" ry="2.5" style="stroke:#181818;stroke-width:0.5;" width="58.9189" x="150.4926" y="312.3906"/><text fill="#000000" font-family="sans-serif" font-size="14" lengthAdjust="spacing" textLength="44.9189" x="157.4926" y="332.3857">Form1</text></g><g class="participant participant-head" data-entity-uid="part3" data-qualified-name="Policy" id="part3-head"><rect fill="#E2E2F0" height="30.2969" rx="2.5" ry="2.5" style="stroke:#181818;stroke-width:0.5;" width="136.3018" x="227.7859" y="87.2969"/><text fill="#000000" font-family="sans-serif" font-size="14" lengthAdjust="spacing" textLength="122.3018" x="234.7859" y="107.292">TrafficLevelPolicy</text></g><g class="participant participant-tail" data-entity-uid="part3" data-qualified-name="Policy" id="part3-tail"><rect fill="#E2E2F0" height="30.2969" rx="2.5" ry="2.5" style="stroke:#181818;stroke-width:0.5;" width="136.3018" x="227.7859" y="312.3906"/><text fill="#000000" font-family="sans-serif" font-size="14" lengthAdjust="spacing" textLength="122.3018" x="234.7859" y="332.3857">TrafficLevelPolicy</text></g><g class="participant participant-head" data-entity-uid="part4" data-qualified-name="VdsRepo" id="part4-head"><rect fill="#E2E2F0" height="30.2969" rx="2.5" ry="2.5" style="stroke:#181818;stroke-width:0.5;" width="114.8301" x="374.0877" y="87.2969"/><text fill="#000000" font-family="sans-serif" font-size="14" lengthAdjust="spacing" textLength="100.8301" x="381.0877" y="107.292">VdsRepository</text></g><g class="participant participant-tail" data-entity-uid="part4" data-qualified-name="VdsRepo" id="part4-tail"><rect fill="#E2E2F0" height="30.2969" rx="2.5" ry="2.5" style="stroke:#181818;stroke-width:0.5;" width="114.8301" x="374.0877" y="312.3906"/><text fill="#000000" font-family="sans-serif" font-size="14" lengthAdjust="spacing" textLength="100.8301" x="381.0877" y="332.3857">VdsRepository</text></g><g class="participant participant-head" data-entity-uid="part5" data-qualified-name="GeoDb" id="part5-head"><text fill="#000000" font-family="sans-serif" font-size="14" lengthAdjust="spacing" textLength="92.8184" x="498.9178" y="115.292">Geo Postgres</text><path d="M530.327,66.2969 C530.327,56.2969 548.327,56.2969 548.327,56.2969 C548.327,56.2969 566.327,56.2969 566.327,66.2969 L566.327,92.2969 C566.327,102.2969 548.327,102.2969 548.327,102.2969 C548.327,102.2969 530.327,102.2969 530.327,92.2969 L530.327,66.2969" fill="#E2E2F0" style="stroke:#181818;stroke-width:0.5;"/><path d="M530.327,66.2969 C530.327,76.2969 548.327,76.2969 548.327,76.2969 C548.327,76.2969 566.327,76.2969 566.327,66.2969" fill="none" style="stroke:#181818;stroke-width:0.5;"/></g><g class="participant participant-tail" data-entity-uid="part5" data-qualified-name="GeoDb" id="part5-tail"><text fill="#000000" font-family="sans-serif" font-size="14" lengthAdjust="spacing" textLength="92.8184" x="498.9178" y="325.3857">Geo Postgres</text><path d="M530.327,338.6875 C530.327,328.6875 548.327,328.6875 548.327,328.6875 C548.327,328.6875 566.327,328.6875 566.327,338.6875 L566.327,364.6875 C566.327,374.6875 548.327,374.6875 548.327,374.6875 C548.327,374.6875 530.327,374.6875 530.327,364.6875 L530.327,338.6875" fill="#E2E2F0" style="stroke:#181818;stroke-width:0.5;"/><path d="M530.327,338.6875 C530.327,348.6875 548.327,348.6875 548.327,348.6875 C548.327,348.6875 566.327,348.6875 566.327,338.6875" fill="none" style="stroke:#181818;stroke-width:0.5;"/></g><g class="message" data-entity-1="part1" data-entity-2="part2" id="msg1"><polygon fill="#181818" points="167.9521,145.7266,177.9521,149.7266,167.9521,153.7266,171.9521,149.7266" style="stroke:#181818;stroke-width:1;"/><line style="stroke:#181818;stroke-width:1;" x1="23.9551" x2="173.9521" y1="149.7266" y2="149.7266"/><text fill="#000000" font-family="sans-serif" font-size="13" lengthAdjust="spacing" textLength="91.9847" x="30.9551" y="144.6606">&#54844;&#51105;&#46020; &#44208;&#44284; &#54869;&#51064;</text></g><g class="message" data-entity-1="part2" data-entity-2="part4" id="msg2"><polygon fill="#181818" points="419.5027,174.8594,429.5027,178.8594,419.5027,182.8594,423.5027,178.8594" style="stroke:#181818;stroke-width:1;"/><line style="stroke:#181818;stroke-width:1;" x1="179.9521" x2="425.5027" y1="178.8594" y2="178.8594"/><text fill="#000000" font-family="sans-serif" font-size="13" lengthAdjust="spacing" textLength="108.077" x="186.9521" y="173.7935">&#52293;&#51076; &#44396;&#44036; &#51340;&#54364; &#51312;&#54924;</text></g><g class="message" data-entity-1="part4" data-entity-2="part5" id="msg3"><polygon fill="#181818" points="536.327,203.9922,546.327,207.9922,536.327,211.9922,540.327,207.9922" style="stroke:#181818;stroke-width:1;"/><line style="stroke:#181818;stroke-width:1;" x1="431.5027" x2="542.327" y1="207.9922" y2="207.9922"/><text fill="#000000" font-family="sans-serif" font-size="13" lengthAdjust="spacing" textLength="75.9835" x="438.5027" y="202.9263">vds_loc &#51312;&#54924;</text></g><g class="message" data-entity-1="part5" data-entity-2="part4" id="msg4"><polygon fill="#181818" points="442.5027,233.125,432.5027,237.125,442.5027,241.125,438.5027,237.125" style="stroke:#181818;stroke-width:1;"/><line style="stroke:#181818;stroke-width:1;stroke-dasharray:2,2;" x1="436.5027" x2="547.327" y1="237.125" y2="237.125"/><text fill="#000000" font-family="sans-serif" font-size="13" lengthAdjust="spacing" textLength="80.0247" x="448.5027" y="232.0591">&#44396;&#44036; &#51340;&#54364; &#47785;&#47197;</text></g><g class="message" data-entity-1="part2" data-entity-2="part3" id="msg5"><polygon fill="#181818" points="283.9368,262.2578,293.9368,266.2578,283.9368,270.2578,287.9368,266.2578" style="stroke:#181818;stroke-width:1;"/><line style="stroke:#181818;stroke-width:1;" x1="179.9521" x2="289.9368" y1="266.2578" y2="266.2578"/><text fill="#000000" font-family="sans-serif" font-size="13" lengthAdjust="spacing" textLength="91.9847" x="186.9521" y="261.1919">&#47112;&#48296;&#48324; &#49353;&#49345; &#44228;&#49328;</text></g><g class="message" data-entity-1="part2" data-entity-2="part1" id="msg6"><polygon fill="#181818" points="34.9551,291.3906,24.9551,295.3906,34.9551,299.3906,30.9551,295.3906" style="stroke:#181818;stroke-width:1;"/><line style="stroke:#181818;stroke-width:1;stroke-dasharray:2,2;" x1="28.9551" x2="178.9521" y1="295.3906" y2="295.3906"/><text fill="#000000" font-family="sans-serif" font-size="13" lengthAdjust="spacing" textLength="131.997" x="40.9551" y="290.3247">&#44396;&#44036; &#49464;&#44536;&#47676;&#53944; &#49353;&#49345; &#54364;&#49884;</text></g><?plantuml-src LOzFIyD04CNl-oc6t0CLRnwyMEB5WvJMgsoJhIn4DsINYaTj1FyKn8EWqXRZgOg7s23ca4-KtNm7nwIXv3Qy-RttPXHNFeF1djtlENQdimrTgYWulZWdXBfAX32GB2G13HLtUK3F53WYFDrgALO_fACHTm_OcFc7mkVkXGLKGZssqIDFzbWW9CVicbehnCFc8PKCh7qcq2lLISXaXQ3G7HBoVmhOk_K5i0FbSsuMiNw8e5WbHPf3-V9avXcfzmYken4rtzTcWTpFLv54ODwdvUCCJ9oKhrFIK6YeYX0VU_BO5sv3rBBTIcn7wSyF7SytpVNhYEct6xrQwXJ9oQsPN4AHHkOgQKX4gwysUL5M_6PwcPTtMMF10dC_-mC0?></g></svg>