<?plantuml 1.2026.1?><svg xmlns="http://www.w3.org/2000/svg" xmlns:xlink="http://www.w3.org/1999/xlink" contentStyleType="text/css" data-diagram-type="SEQUENCE" height="647px" preserveAspectRatio="none" style="width:599px;height:647px;background:#FFFFFF;" version="1.1" viewBox="0 0 599 647" width="599px" zoomAndPan="magnify"><title>UC-CTV-001 Logic Flow</title><defs/><g><text fill="#000000" font-family="sans-serif" font-size="14" font-weight="bold" lengthAdjust="spacing" textLength="181.4668" x="210.04" y="27.9951">UC-CTV-001 Logic Flow</text><rect fill="none" height="343" style="stroke:#000000;stroke-width:1.5;" width="548.7139" x="43.833" y="206.8594"/><g class="participant-lifeline" data-entity-uid="part1" data-qualified-name="User" id="part1-lifeline"><g><title>User</title><rect fill="#000000" fill-opacity="0.00000" height="448.2656" width="8" x="19.9551" y="118.5938"/><line style="stroke:#181818;stroke-width:0.5;stroke-dasharray:5,5;" x1="23" x2="23" y1="118.5938" y2="566.8594"/></g></g><g class="participant-lifeline" data-entity-uid="part2" data-qualified-name="Form1" id="part2-lifeline"><g><title>Form1</title><rect fill="#000000" fill-opacity="0.00000" height="448.2656" width="8" x="79.2925" y="118.5938"/><line style="stroke:#181818;stroke-width:0.5;stroke-dasharray:5,5;" x1="82.833" x2="82.833" y1="118.5938" y2="566.8594"/></g></g><g class="participant-lifeline" data-entity-uid="part3" data-qualified-name="CctvSvc" id="part3-lifeline"><g><title>CctvSvc</title><rect fill="#000000" fill-opacity="0.00000" height="448.2656" width="8" x="333.6553" y="118.5938"/><line style="stroke:#181818;stroke-width:0.5;stroke-dasharray:5,5;" x1="337.5972" x2="337.5972" y1="118.5938" y2="566.8594"/></g></g><g class="participant participant-head" data-entity-uid="part1" data-qualified-name="User" id="part1-head"><text fill="#000000" font-family="sans-serif" font-size="14" lengthAdjust="spacing" textLength="31.9102" x="5" y="115.292">User</text><ellipse cx="23.9551" cy="50.7969" fill="#E2E2F0" rx="8" ry="8" style="stroke:#181818;stroke-width:0.5;"/><path d="M23.9551,58.7969 L23.9551,85.7969 M10.9551,66.7969 L36.9551,66.7969 M23.9551,85.7969 L10.9551,100.7969 M23.9551,85.7969 L36.9551,100.7969" fill="none" style="stroke:#181818;stroke-width:0.5;"/></g><g class="participant participant-tail" data-entity-uid="part1" data-qualified-name="User" id="part1-tail"><text fill="#000000" font-family="sans-serif" font-size="14" lengthAdjust="spacing" textLength="31.9102" x="5" y="578.8545">User</text><ellipse cx="23.9551" cy="590.6563" fill="#E2E2F0" rx="8" ry="8" style="stroke:#181818;stroke-width:0.5;"/><path d="M23.9551,598.6563 L23.9551,625.6563 M10.9551,606.6563 L36.9551,606.6563 M23.9551,625.6563 L10.9551,640.6563 M23.9551,625.6563 L36.9551,640.6563" fill="none" style="stroke:#181818;stroke-width:0.5;"/></g><g class="participant participant-head" data-entity-uid="part2" data-qualified-name="Form1" id="part2-head"><rect fill="#E2E2F0" height="30.2969" rx="2.5" ry="2.5" style="stroke:#181818;stroke-width:0.5;" width="58.9189" x="53.833" y="87.2969"/><text fill="#000000" font-family="sans-serif" font-size="14" lengthAdjust="spacing" textLength="44.9189" x="60.833" y="107.292">Form1</text></g><g class="participant participant-tail" data-entity-uid="part2" data-qualified-name="Form1" id="part2-tail"><rect fill="#E2E2F0" height="30.2969" rx="2.5" ry="2.5" style="stroke:#181818;stroke-width:0.5;" width="58.9189" x="53.833" y="565.8594"/><text fill="#000000" font-family="sans-serif" font-size="14" lengthAdjust="spacing" textLength="44.9189" x="60.833" y="585.8545">Form1</text></g><g class="participant participant-head" data-entity-uid="part3" data-qualified-name="CctvSvc" id="part3-head"><rect fill="#E2E2F0" height="30.2969" rx="2.5" ry="2.5" style="stroke:#181818;stroke-width:0.5;" width="70.1162" x="302.5972" y="87.2969"/><text fill="#000000" font-family="sans-serif" font-size="14" lengthAdjust="spacing" textLength="56.1162" x="309.5972" y="107.292">CctvSvc</text></g><g class="participant participant-tail" data-entity-uid="part3" data-qualified-name="CctvSvc" id="part3-tail"><rect fill="#E2E2F0" height="30.2969" rx="2.5" ry="2.5" style="stroke:#181818;stroke-width:0.5;" width="70.1162" x="302.5972" y="565.8594"/><text fill="#000000" font-family="sans-serif" font-size="14" lengthAdjust="spacing" textLength="56.1162" x="309.5972" y="585.8545">CctvSvc</text></g><g class="message" data-entity-1="part1" data-entity-2="part2" id="msg1"><polygon fill="#181818" points="71.2925,145.7266,81.2925,149.7266,71.2925,153.7266,75.2925,149.7266" style="stroke:#181818;stroke-width:1;"/><line style="stroke:#181818;stroke-width:1;" x1="23.9551" x2="77.2925" y1="149.7266" y2="149.7266"/><text fill="#000000" font-family="sans-serif" font-size="13" lengthAdjust="spacing" textLength="35.3374" x="30.9551" y="144.6606">&#51340;&#54364; &#53364;&#47533;</text></g><g class="message" data-entity-1="part2" data-entity-2="part2" id="msg2"><line style="stroke:#181818;stroke-width:1;" x1="83.2925" x2="125.2925" y1="178.8594" y2="178.8594"/><line style="stroke:#181818;stroke-width:1;" x1="125.2925" x2="125.2925" y1="178.8594" y2="191.8594"/><line style="stroke:#181818;stroke-width:1;" x1="84.2925" x2="125.2925" y1="191.8594" y2="191.8594"/><polygon fill="#181818" points="94.2925,187.8594,84.2925,191.8594,94.2925,195.8594,90.2925,191.8594" style="stroke:#181818;stroke-width:1;"/><text fill="#000000" font-family="sans-serif" font-size="13" lengthAdjust="spacing" textLength="100.2041" x="90.2925" y="173.7935">&#54056;&#45328; &#47784;&#46300; &#54869;&#51064;(CCTV)</text></g><path d="M43.833,206.8594 L108.2759,206.8594 L108.2759,213.9922 L98.2759,223.9922 L43.833,223.9922 L43.833,206.8594" fill="#EEEEEE" style="stroke:#000000;stroke-width:1.5;"/><rect fill="none" height="343" style="stroke:#000000;stroke-width:1.5;" width="548.7139" x="43.833" y="206.8594"/><text fill="#000000" font-family="sans-serif" font-size="13" font-weight="bold" lengthAdjust="spacing" textLength="19.4429" x="58.833" y="219.9263">alt</text><text fill="#000000" font-family="sans-serif" font-size="11" font-weight="bold" lengthAdjust="spacing" textLength="76.2803" x="123.2759" y="219.0698">[CCTV &#47784;&#46300; &#50500;&#45784;]</text><g class="message" data-entity-1="part2" data-entity-2="part2" id="msg3"><line style="stroke:#181818;stroke-width:1;" x1="83.2925" x2="125.2925" y1="245.125" y2="245.125"/><line style="stroke:#181818;stroke-width:1;" x1="125.2925" x2="125.2925" y1="245.125" y2="258.125"/><line style="stroke:#181818;stroke-width:1;" x1="84.2925" x2="125.2925" y1="258.125" y2="258.125"/><polygon fill="#181818" points="94.2925,254.125,84.2925,258.125,94.2925,262.125,90.2925,258.125" style="stroke:#181818;stroke-width:1;"/><text fill="#000000" font-family="sans-serif" font-size="13" lengthAdjust="spacing" textLength="90.4097" x="90.2925" y="240.0591">&#54844;&#51105;&#46020; &#51312;&#54924; &#48516;&#44592;&#47196; &#51204;&#54872;</text></g><line style="stroke:#000000;stroke-width:1;stroke-dasharray:2,2;" x1="43.833" x2="592.5469" y1="267.125" y2="267.125"/><text fill="#000000" font-family="sans-serif" font-size="11" font-weight="bold" lengthAdjust="spacing" textLength="59.2485" x="48.833" y="277.3354">[CCTV &#47784;&#46300;]</text><g class="message" data-entity-1="part2" data-entity-2="part2" id="msg4"><line style="stroke:#181818;stroke-width:1;" x1="83.2925" x2="125.2925" y1="302.0625" y2="302.0625"/><line style="stroke:#181818;stroke-width:1;" x1="125.2925" x2="125.2925" y1="302.0625" y2="315.0625"/><line style="stroke:#181818;stroke-width:1;" x1="84.2925" x2="125.2925" y1="315.0625" y2="315.0625"/><polygon fill="#181818" points="94.2925,311.0625,84.2925,315.0625,94.2925,319.0625,90.2925,315.0625" style="stroke:#181818;stroke-width:1;"/><text fill="#000000" font-family="sans-serif" font-size="13" lengthAdjust="spacing" textLength="122.7637" x="90.2925" y="296.9966">&#50836;&#52397; &#48260;&#51204; &#51613;&#44032;, &#47196;&#46377; &#49345;&#53468; ON</text></g><g class="message" data-entity-1="part2" data-entity-2="part3" id="msg5"><polygon fill="#181818" points="325.6553,340.1953,335.6553,344.1953,325.6553,348.1953,329.6553,344.1953" style="stroke:#181818;stroke-width:1;"/><line style="stroke:#181818;stroke-width:1;" x1="83.2925" x2="331.6553" y1="344.1953" y2="344.1953"/><text fill="#000000" font-family="sans-serif" font-size="13" lengthAdjust="spacing" textLength="230.3628" x="90.2925" y="339.1294">GetNearbyHighwayCctv(command)</text></g><g class="message" data-entity-1="part3" data-entity-2="part3" id="msg6"><line style="stroke:#181818;stroke-width:1;" x1="337.6553" x2="379.6553" y1="373.3281" y2="373.3281"/><line style="stroke:#181818;stroke-width:1;" x1="379.6553" x2="379.6553" y1="373.3281" y2="386.3281"/><line style="stroke:#181818;stroke-width:1;" x1="338.6553" x2="379.6553" y1="386.3281" y2="386.3281"/><polygon fill="#181818" points="348.6553,382.3281,338.6553,386.3281,348.6553,390.3281,344.6553,386.3281" style="stroke:#181818;stroke-width:1;"/><text fill="#000000" font-family="sans-serif" font-size="13" lengthAdjust="spacing" textLength="190.2837" x="344.6553" y="368.2622">&#51340;&#54364; &#48276;&#50948; &#44160;&#51613; + bounds normalize</text></g><g class="message" data-entity-1="part3" data-entity-2="part3" id="msg7"><line style="stroke:#181818;stroke-width:1;" x1="337.6553" x2="379.6553" y1="415.4609" y2="415.4609"/><line style="stroke:#181818;stroke-width:1;" x1="379.6553" x2="379.6553" y1="415.4609" y2="428.4609"/><line style="stroke:#181818;stroke-width:1;" x1="338.6553" x2="379.6553" y1="428.4609" y2="428.4609"/><polygon fill="#181818" points="348.6553,424.4609,338.6553,428.4609,348.6553,432.4609,344.6553,428.4609" style="stroke:#181818;stroke-width:1;"/><text fill="#000000" font-family="sans-serif" font-size="13" lengthAdjust="spacing" textLength="176.1094" x="344.6553" y="410.395">&#51064;&#51217; &#44256;&#49549;&#46020;&#47196; &#49440;&#51221; + &#52572;&#45800;&#44144;&#47532; &#44256;&#49549;&#46020;&#47196; &#49440;&#53469;</text></g><g class="message" data-entity-1="part3" data-entity-2="part3" id="msg8"><line style="stroke:#181818;stroke-width:1;" x1="337.6553" x2="379.6553" y1="457.5938" y2="457.5938"/><line style="stroke:#181818;stroke-width:1;" x1="379.6553" x2="379.6553" y1="457.5938" y2="470.5938"/><line style="stroke:#181818;stroke-width:1;" x1="338.6553" x2="379.6553" y1="470.5938" y2="470.5938"/><polygon fill="#181818" points="348.6553,466.5938,338.6553,470.5938,348.6553,474.5938,344.6553,470.5938" style="stroke:#181818;stroke-width:1;"/><text fill="#000000" font-family="sans-serif" font-size="13" lengthAdjust="spacing" textLength="235.8916" x="344.6553" y="452.5278">1km &#44144;&#47532; + &#44256;&#49549;&#46020;&#47196;&#47749; &#50976;&#49324;&#46020; &#44508;&#52825;&#51004;&#47196; CCTV &#54596;&#53552;&#47553;</text></g><g class="message" data-entity-1="part3" data-entity-2="part2" id="msg9"><polygon fill="#181818" points="94.2925,495.7266,84.2925,499.7266,94.2925,503.7266,90.2925,499.7266" style="stroke:#181818;stroke-width:1;"/><line style="stroke:#181818;stroke-width:1;stroke-dasharray:2,2;" x1="88.2925" x2="336.6553" y1="499.7266" y2="499.7266"/><text fill="#000000" font-family="sans-serif" font-size="13" lengthAdjust="spacing" textLength="124.8203" x="100.2925" y="494.6606">&#49440;&#53469; &#44256;&#49549;&#46020;&#47196; + CCTV &#47785;&#47197;</text></g><g class="message" data-entity-1="part2" data-entity-2="part2" id="msg10"><line style="stroke:#181818;stroke-width:1;" x1="83.2925" x2="125.2925" y1="528.8594" y2="528.8594"/><line style="stroke:#181818;stroke-width:1;" x1="125.2925" x2="125.2925" y1="528.8594" y2="541.8594"/><line style="stroke:#181818;stroke-width:1;" x1="84.2925" x2="125.2925" y1="541.8594" y2="541.8594"/><polygon fill="#181818" points="94.2925,537.8594,84.2925,541.8594,94.2925,545.8594,90.2925,541.8594" style="stroke:#181818;stroke-width:1;"/><text fill="#000000" font-family="sans-serif" font-size="13" lengthAdjust="spacing" textLength="128.9526" x="90.2925" y="523.7935">&#52572;&#49888; CCTV &#52880;&#49884; + &#54056;&#45328; &#44081;&#49888;</text></g><?plantuml-src TP9DJy9048Rl-olcA44IkNhmGg8UZ1uKxxKqsbXQKYe4Jo2h5p1YX0HCQue71099nIyq_ABkx7zmoqTIWjwQdVTvPcUsbcff2YGJiSJHSMnZ8mvxngagmxPcv0cHPCim8PbLJ9AHJ4kLrOoaMx1jcEduqab2jdA7EPcG80knhLa4DW6Vg_pU1bvwPvqXcPs6ohpQPRG6hDzb3oBLQg0pNak8gqI8f0cj-5eKiK5PfKa0LYND2JwrsHq5R7lyiGhia_fZZxK5v5BUQX95oofXsLyMVApZQ0XiH0K4s75yhxWEGiBgFS1oYPTjEDWFa_EX1RkZMFkAP9uKTjNJixnK22fhif5EIteg8f15SWcQhuQDwcXJy4T5qHEYS69SwAaiwAABfAcNoh-uCqRt7lmt5szknV3JSQcBRaD8yCDcbQx_wh7EO2N2oyv_qlXv6kPKT8bZ_Mj0syMhGR1d_yl6xnRQay0utIjlK4uzzb8AcyFRdRPTlafqyIGzrdR-V98F6olkB8K_DQm4pFoNyRrNKIEAdle5?></g></svg>