<?plantuml 1.2026.1?><svg xmlns="http://www.w3.org/2000/svg" xmlns:xlink="http://www.w3.org/1999/xlink" contentStyleType="text/css" data-diagram-type="SEQUENCE" height="667px" preserveAspectRatio="none" style="width:400px;height:667px;background:#FFFFFF;" version="1.1" viewBox="0 0 400 667" width="400px" zoomAndPan="magnify"><title>UC-CTV-002 Logic Flow</title><defs/><g><text fill="#000000" font-family="sans-serif" font-size="14" font-weight="bold" lengthAdjust="spacing" textLength="181.4668" x="110.511" y="27.9951">UC-CTV-002 Logic Flow</text><rect fill="none" height="278.8672" style="stroke:#000000;stroke-width:1.5;" width="383.4888" x="10" y="291.125"/><rect fill="none" height="203.7969" style="stroke:#000000;stroke-width:1.5;" width="363.4888" x="20" y="359.1953"/><g class="participant-lifeline" data-entity-uid="part1" data-qualified-name="User" id="part1-lifeline"><g><title>User</title><rect fill="#000000" fill-opacity="0.00000" height="468.3984" width="8" x="44.9551" y="118.5938"/><line style="stroke:#181818;stroke-width:0.5;stroke-dasharray:5,5;" x1="48" x2="48" y1="118.5938" y2="586.9922"/></g></g><g class="participant-lifeline" data-entity-uid="part2" data-qualified-name="Form1" id="part2-lifeline"><g><title>Form1</title><rect fill="#000000" fill-opacity="0.00000" height="468.3984" width="8" x="188.9921" y="118.5938"/><line style="stroke:#181818;stroke-width:0.5;stroke-dasharray:5,5;" x1="192.5326" x2="192.5326" y1="118.5938" y2="586.9922"/></g></g><g class="participant participant-head" data-entity-uid="part1" data-qualified-name="User" id="part1-head"><text fill="#000000" font-family="sans-serif" font-size="14" lengthAdjust="spacing" textLength="31.9102" x="30" y="115.292">User</text><ellipse cx="48.9551" cy="50.7969" fill="#E2E2F0" rx="8" ry="8" style="stroke:#181818;stroke-width:0.5;"/><path d="M48.9551,58.7969 L48.9551,85.7969 M35.9551,66.7969 L61.9551,66.7969 M48.9551,85.7969 L35.9551,100.7969 M48.9551,85.7969 L61.9551,100.7969" fill="none" style="stroke:#181818;stroke-width:0.5;"/></g><g class="participant participant-tail" data-entity-uid="part1" data-qualified-name="User" id="part1-tail"><text fill="#000000" font-family="sans-serif" font-size="14" lengthAdjust="spacing" textLength="31.9102" x="30" y="598.9873">User</text><ellipse cx="48.9551" cy="610.7891" fill="#E2E2F0" rx="8" ry="8" style="stroke:#181818;stroke-width:0.5;"/><path d="M48.9551,618.7891 L48.9551,645.7891 M35.9551,626.7891 L61.9551,626.7891 M48.9551,645.7891 L35.9551,660.7891 M48.9551,645.7891 L61.9551,660.7891" fill="none" style="stroke:#181818;stroke-width:0.5;"/></g><g class="participant participant-head" data-entity-uid="part2" data-qualified-name="Form1" id="part2-head"><rect fill="#E2E2F0" height="30.2969" rx="2.5" ry="2.5" style="stroke:#181818;stroke-width:0.5;" width="58.9189" x="163.5326" y="87.2969"/><text fill="#000000" font-family="sans-serif" font-size="14" lengthAdjust="spacing" textLength="44.9189" x="170.5326" y="107.292">Form1</text></g><g class="participant participant-tail" data-entity-uid="part2" data-qualified-name="Form1" id="part2-tail"><rect fill="#E2E2F0" height="30.2969" rx="2.5" ry="2.5" style="stroke:#181818;stroke-width:0.5;" width="58.9189" x="163.5326" y="585.9922"/><text fill="#000000" font-family="sans-serif" font-size="14" lengthAdjust="spacing" textLength="44.9189" x="170.5326" y="605.9873">Form1</text></g><g class="message" data-entity-1="part1" data-entity-2="part2" id="msg1"><polygon fill="#181818" points="180.9921,145.7266,190.9921,149.7266,180.9921,153.7266,184.9921,149.7266" style="stroke:#181818;stroke-width:1;"/><line style="stroke:#181818;stroke-width:1;" x1="48.9551" x2="186.9921" y1="149.7266" y2="149.7266"/><text fill="#000000" font-family="sans-serif" font-size="13" lengthAdjust="spacing" textLength="91.093" x="55.9551" y="144.6606">CCTV &#52852;&#46300; &#53364;&#47533;</text></g><g class="message" data-entity-1="part2" data-entity-2="part2" id="msg2"><line style="stroke:#181818;stroke-width:1;" x1="192.9921" x2="234.9921" y1="178.8594" y2="178.8594"/><line style="stroke:#181818;stroke-width:1;" x1="234.9921" x2="234.9921" y1="178.8594" y2="191.8594"/><line style="stroke:#181818;stroke-width:1;" x1="193.9921" x2="234.9921" y1="191.8594" y2="191.8594"/><polygon fill="#181818" points="203.9921,187.8594,193.9921,191.8594,203.9921,195.8594,199.9921,191.8594" style="stroke:#181818;stroke-width:1;"/><text fill="#000000" font-family="sans-serif" font-size="13" lengthAdjust="spacing" textLength="115.9047" x="199.9921" y="173.7935">&#49440;&#53469; &#52852;&#46300; &#54616;&#51060;&#46972;&#51060;&#53944;</text></g><g class="message" data-entity-1="part2" data-entity-2="part2" id="msg3"><line style="stroke:#181818;stroke-width:1;" x1="192.9921" x2="234.9921" y1="220.9922" y2="220.9922"/><line style="stroke:#181818;stroke-width:1;" x1="234.9921" x2="234.9921" y1="220.9922" y2="233.9922"/><line style="stroke:#181818;stroke-width:1;" x1="193.9921" x2="234.9921" y1="233.9922" y2="233.9922"/><polygon fill="#181818" points="203.9921,229.9922,193.9921,233.9922,203.9921,237.9922,199.9921,233.9922" style="stroke:#181818;stroke-width:1;"/><text fill="#000000" font-family="sans-serif" font-size="13" lengthAdjust="spacing" textLength="120.037" x="199.9921" y="215.9263">&#51648;&#46020; &#47560;&#52964; &#54252;&#52964;&#49828; &#49884;&#46020;</text></g><g class="message" data-entity-1="part2" data-entity-2="part2" id="msg4"><line style="stroke:#181818;stroke-width:1;" x1="192.9921" x2="234.9921" y1="263.125" y2="263.125"/><line style="stroke:#181818;stroke-width:1;" x1="234.9921" x2="234.9921" y1="263.125" y2="276.125"/><line style="stroke:#181818;stroke-width:1;" x1="193.9921" x2="234.9921" y1="276.125" y2="276.125"/><polygon fill="#181818" points="203.9921,272.125,193.9921,276.125,203.9921,280.125,199.9921,276.125" style="stroke:#181818;stroke-width:1;"/><text fill="#000000" font-family="sans-serif" font-size="13" lengthAdjust="spacing" textLength="121.8623" x="199.9921" y="258.0591">TryValidateCctvUrl</text></g><path d="M10,291.125 L74.4429,291.125 L74.4429,298.2578 L64.4429,308.2578 L10,308.2578 L10,291.125" fill="#EEEEEE" style="stroke:#000000;stroke-width:1.5;"/><rect fill="none" height="278.8672" style="stroke:#000000;stroke-width:1.5;" width="383.4888" x="10" y="291.125"/><text fill="#000000" font-family="sans-serif" font-size="13" font-weight="bold" lengthAdjust="spacing" textLength="19.4429" x="25" y="304.1919">alt</text><text fill="#000000" font-family="sans-serif" font-size="11" font-weight="bold" lengthAdjust="spacing" textLength="82.6052" x="89.4429" y="303.3354">[URL &#44160;&#51613; &#49892;&#54056;]</text><g class="message" data-entity-1="part2" data-entity-2="part1" id="msg5"><polygon fill="#181818" points="59.9551,325.3906,49.9551,329.3906,59.9551,333.3906,55.9551,329.3906" style="stroke:#181818;stroke-width:1;"/><line style="stroke:#181818;stroke-width:1;stroke-dasharray:2,2;" x1="53.9551" x2="191.9921" y1="329.3906" y2="329.3906"/><text fill="#000000" font-family="sans-serif" font-size="13" lengthAdjust="spacing" textLength="91.9847" x="65.9551" y="324.3247">&#50724;&#47448; &#49345;&#53468; &#47700;&#49884;&#51648;</text></g><line style="stroke:#000000;stroke-width:1;stroke-dasharray:2,2;" x1="10" x2="393.4888" y1="338.3906" y2="338.3906"/><text fill="#000000" font-family="sans-serif" font-size="11" font-weight="bold" lengthAdjust="spacing" textLength="58.5357" x="15" y="348.6011">[URL &#51221;&#49345;]</text><path d="M20,359.1953 L84.4429,359.1953 L84.4429,366.3281 L74.4429,376.3281 L20,376.3281 L20,359.1953" fill="#EEEEEE" style="stroke:#000000;stroke-width:1.5;"/><rect fill="none" height="203.7969" style="stroke:#000000;stroke-width:1.5;" width="363.4888" x="20" y="359.1953"/><text fill="#000000" font-family="sans-serif" font-size="13" font-weight="bold" lengthAdjust="spacing" textLength="19.4429" x="35" y="372.2622">alt</text><text fill="#000000" font-family="sans-serif" font-size="11" font-weight="bold" lengthAdjust="spacing" textLength="78.4334" x="99.4429" y="371.4058">[&#54045;&#50629; &#51060;&#48120; &#50676;&#47548;]</text><g class="message" data-entity-1="part2" data-entity-2="part1" id="msg6"><polygon fill="#181818" points="59.9551,393.4609,49.9551,397.4609,59.9551,401.4609,55.9551,397.4609" style="stroke:#181818;stroke-width:1;"/><line style="stroke:#181818;stroke-width:1;stroke-dasharray:2,2;" x1="53.9551" x2="191.9921" y1="397.4609" y2="397.4609"/><text fill="#000000" font-family="sans-serif" font-size="13" lengthAdjust="spacing" textLength="120.037" x="65.9551" y="392.395">&#51473;&#48373; &#50676;&#44592; &#48169;&#51648; &#47700;&#49884;&#51648;</text></g><line style="stroke:#000000;stroke-width:1;stroke-dasharray:2,2;" x1="20" x2="383.4888" y1="406.4609" y2="406.4609"/><g class="message" data-entity-1="part2" data-entity-2="part2" id="msg7"><line style="stroke:#181818;stroke-width:1;" x1="192.9921" x2="234.9921" y1="428.5938" y2="428.5938"/><line style="stroke:#181818;stroke-width:1;" x1="234.9921" x2="234.9921" y1="428.5938" y2="441.5938"/><line style="stroke:#181818;stroke-width:1;" x1="193.9921" x2="234.9921" y1="441.5938" y2="441.5938"/><polygon fill="#181818" points="203.9921,437.5938,193.9921,441.5938,203.9921,445.5938,199.9921,441.5938" style="stroke:#181818;stroke-width:1;"/><text fill="#000000" font-family="sans-serif" font-size="13" lengthAdjust="spacing" textLength="116.0741" x="199.9921" y="423.5278">&#54045;&#50629; &#50676;&#44592; &#54540;&#47000;&#44536; ON</text></g><g class="message" data-entity-1="part2" data-entity-2="part2" id="msg8"><line style="stroke:#181818;stroke-width:1;" x1="192.9921" x2="234.9921" y1="470.7266" y2="470.7266"/><line style="stroke:#181818;stroke-width:1;" x1="234.9921" x2="234.9921" y1="470.7266" y2="483.7266"/><line style="stroke:#181818;stroke-width:1;" x1="193.9921" x2="234.9921" y1="483.7266" y2="483.7266"/><polygon fill="#181818" points="203.9921,479.7266,193.9921,483.7266,203.9921,487.7266,199.9921,483.7266" style="stroke:#181818;stroke-width:1;"/><text fill="#000000" font-family="sans-serif" font-size="13" lengthAdjust="spacing" textLength="171.4967" x="199.9921" y="465.6606">CctvPlayerPopupForm &#54364;&#49884;</text></g><g class="message" data-entity-1="part2" data-entity-2="part2" id="msg9"><line style="stroke:#181818;stroke-width:1;" x1="192.9921" x2="234.9921" y1="512.8594" y2="512.8594"/><line style="stroke:#181818;stroke-width:1;" x1="234.9921" x2="234.9921" y1="512.8594" y2="525.8594"/><line style="stroke:#181818;stroke-width:1;" x1="193.9921" x2="234.9921" y1="525.8594" y2="525.8594"/><polygon fill="#181818" points="203.9921,521.8594,193.9921,525.8594,203.9921,529.8594,199.9921,525.8594" style="stroke:#181818;stroke-width:1;"/><text fill="#000000" font-family="sans-serif" font-size="13" lengthAdjust="spacing" textLength="137.3969" x="199.9921" y="507.7935">&#54045;&#50629; &#51333;&#47308; &#54980; &#54540;&#47000;&#44536; OFF</text></g><g class="message" data-entity-1="part2" data-entity-2="part1" id="msg10"><polygon fill="#181818" points="59.9551,550.9922,49.9551,554.9922,59.9551,558.9922,55.9551,554.9922" style="stroke:#181818;stroke-width:1;"/><line style="stroke:#181818;stroke-width:1;stroke-dasharray:2,2;" x1="53.9551" x2="191.9921" y1="554.9922" y2="554.9922"/><text fill="#000000" font-family="sans-serif" font-size="13" lengthAdjust="spacing" textLength="91.9847" x="65.9551" y="549.9263">&#51333;&#47308; &#49345;&#53468; &#47700;&#49884;&#51648;</text></g><?plantuml-src VP1VIy9G6CRlpwTuly30kkoYcy6kf2ISzsEE62mtvgdmJb4XT22Iug0jf9Oc54aPBV8JUSxv3hrp_HbeNUoClU_pFByzXvhKCa2L9RbOadAvNSZRnwOEYcMV4wBfr7P1hHekSJINchhfQ1KAYksUx12Ip47QJpzX3sIC0Fw-O9S1YCQ2JHv9kifeU6iick6FQkZpSC729PwY4s-HJ-kirm8slU0V4OZU0xvu9mBU3N2-gI-wjP9ccMMD6h9EprJN8ff5GJtAm-gvpYT8xaR2koVmPP7GlEw1B3zYTpxmPaCq0s2p0KAGJmohQgmJ-7Y8IxGcaS8B-QWDoUy_nS17M7U9gssvKP-zl2QILJm7DfzXQ2OU805ahRzrlY6fLGmyTksltc8uFDYkJpeNBArck0NRENMICOX-WAJ_ys_QxDO3STNACXJbZpwfUkEUi4YbJF3v1000?></g></svg>