<?plantuml 1.2026.1?><svg xmlns="http://www.w3.org/2000/svg" xmlns:xlink="http://www.w3.org/1999/xlink" contentStyleType="text/css" data-diagram-type="SEQUENCE" height="479px" preserveAspectRatio="none" style="width:363px;height:479px;background:#FFFFFF;" version="1.1" viewBox="0 0 363 479" width="363px" zoomAndPan="magnify"><title>UC-OPS-001 Logic Flow</title><defs/><g><text fill="#000000" font-family="sans-serif" font-size="14" font-weight="bold" lengthAdjust="spacing" textLength="183.0527" x="91.4644" y="27.9951">UC-OPS-001 Logic Flow</text><rect fill="none" height="216.7969" style="stroke:#000000;stroke-width:1.5;" width="346.9816" x="10" y="164.7266"/><g class="participant-lifeline" data-entity-uid="part1" data-qualified-name="User" id="part1-lifeline"><g><title>User</title><rect fill="#000000" fill-opacity="0.00000" height="279.9297" width="8" x="34.9551" y="118.5938"/><line style="stroke:#181818;stroke-width:0.5;stroke-dasharray:5,5;" x1="38" x2="38" y1="118.5938" y2="398.5234"/></g></g><g class="participant-lifeline" data-entity-uid="part2" data-qualified-name="Form1" id="part2-lifeline"><g><title>Form1</title><rect fill="#000000" fill-opacity="0.00000" height="279.9297" width="8" x="209.5647" y="118.5938"/><line style="stroke:#181818;stroke-width:0.5;stroke-dasharray:5,5;" x1="213.1052" x2="213.1052" y1="118.5938" y2="398.5234"/></g></g><g class="participant participant-head" data-entity-uid="part1" data-qualified-name="User" id="part1-head"><text fill="#000000" font-family="sans-serif" font-size="14" lengthAdjust="spacing" textLength="31.9102" x="20" y="115.292">User</text><ellipse cx="38.9551" cy="50.7969" fill="#E2E2F0" rx="8" ry="8" style="stroke:#181818;stroke-width:0.5;"/><path d="M38.9551,58.7969 L38.9551,85.7969 M25.9551,66.7969 L51.9551,66.7969 M38.9551,85.7969 L25.9551,100.7969 M38.9551,85.7969 L51.9551,100.7969" fill="none" style="stroke:#181818;stroke-width:0.5;"/></g><g class="participant participant-tail" data-entity-uid="part1" data-qualified-name="User" id="part1-tail"><text fill="#000000" font-family="sans-serif" font-size="14" lengthAdjust="spacing" textLength="31.9102" x="20" y="410.5186">User</text><ellipse cx="38.9551" cy="422.3203" fill="#E2E2F0" rx="8" ry="8" style="stroke:#181818;stroke-width:0.5;"/><path d="M38.9551,430.3203 L38.9551,457.3203 M25.9551,438.3203 L51.9551,438.3203 M38.9551,457.3203 L25.9551,472.3203 M38.9551,457.3203 L51.9551,472.3203" fill="none" style="stroke:#181818;stroke-width:0.5;"/></g><g class="participant participant-head" data-entity-uid="part2" data-qualified-name="Form1" id="part2-head"><rect fill="#E2E2F0" height="30.2969" rx="2.5" ry="2.5" style="stroke:#181818;stroke-width:0.5;" width="58.9189" x="184.1052" y="87.2969"/><text fill="#000000" font-family="sans-serif" font-size="14" lengthAdjust="spacing" textLength="44.9189" x="191.1052" y="107.292">Form1</text></g><g class="participant participant-tail" data-entity-uid="part2" data-qualified-name="Form1" id="part2-tail"><rect fill="#E2E2F0" height="30.2969" rx="2.5" ry="2.5" style="stroke:#181818;stroke-width:0.5;" width="58.9189" x="184.1052" y="397.5234"/><text fill="#000000" font-family="sans-serif" font-size="14" lengthAdjust="spacing" textLength="44.9189" x="191.1052" y="417.5186">Form1</text></g><g class="message" data-entity-1="part1" data-entity-2="part2" id="msg1"><polygon fill="#181818" points="201.5647,145.7266,211.5647,149.7266,201.5647,153.7266,205.5647,149.7266" style="stroke:#181818;stroke-width:1;"/><line style="stroke:#181818;stroke-width:1;" x1="38.9551" x2="207.5647" y1="149.7266" y2="149.7266"/><text fill="#000000" font-family="sans-serif" font-size="13" lengthAdjust="spacing" textLength="150.6096" x="45.9551" y="144.6606">pos-selected &#51060;&#48292;&#53944; &#48152;&#48373;</text></g><path d="M10,164.7266 L74.4429,164.7266 L74.4429,171.8594 L64.4429,181.8594 L10,181.8594 L10,164.7266" fill="#EEEEEE" style="stroke:#000000;stroke-width:1.5;"/><rect fill="none" height="216.7969" style="stroke:#000000;stroke-width:1.5;" width="346.9816" x="10" y="164.7266"/><text fill="#000000" font-family="sans-serif" font-size="13" font-weight="bold" lengthAdjust="spacing" textLength="19.4429" x="25" y="177.7935">alt</text><text fill="#000000" font-family="sans-serif" font-size="11" font-weight="bold" lengthAdjust="spacing" textLength="136.6922" x="89.4429" y="176.937">[&#46041;&#51068; &#47784;&#46300;&#50640;&#49436; &#51060;&#48120; &#51312;&#54924; &#51473;]</text><g class="message" data-entity-1="part2" data-entity-2="part1" id="msg2"><polygon fill="#181818" points="49.9551,198.9922,39.9551,202.9922,49.9551,206.9922,45.9551,202.9922" style="stroke:#181818;stroke-width:1;"/><line style="stroke:#181818;stroke-width:1;stroke-dasharray:2,2;" x1="43.9551" x2="212.5647" y1="202.9922" y2="202.9922"/><text fill="#000000" font-family="sans-serif" font-size="13" lengthAdjust="spacing" textLength="120.036" x="55.9551" y="197.9263">"&#51060;&#48120; &#51312;&#54924; &#51473;" &#47700;&#49884;&#51648;</text></g><line style="stroke:#000000;stroke-width:1;stroke-dasharray:2,2;" x1="10" x2="356.9816" y1="211.9922" y2="211.9922"/><g class="message" data-entity-1="part2" data-entity-2="part2" id="msg3"><line style="stroke:#181818;stroke-width:1;" x1="213.5647" x2="255.5647" y1="234.125" y2="234.125"/><line style="stroke:#181818;stroke-width:1;" x1="255.5647" x2="255.5647" y1="234.125" y2="247.125"/><line style="stroke:#181818;stroke-width:1;" x1="214.5647" x2="255.5647" y1="247.125" y2="247.125"/><polygon fill="#181818" points="224.5647,243.125,214.5647,247.125,224.5647,251.125,220.5647,247.125" style="stroke:#181818;stroke-width:1;"/><text fill="#000000" font-family="sans-serif" font-size="13" lengthAdjust="spacing" textLength="116.0741" x="220.5647" y="229.0591">&#51312;&#54924; &#49884;&#51089; &#54540;&#47000;&#44536; ON</text></g><g class="message" data-entity-1="part2" data-entity-2="part2" id="msg4"><line style="stroke:#181818;stroke-width:1;" x1="213.5647" x2="255.5647" y1="276.2578" y2="276.2578"/><line style="stroke:#181818;stroke-width:1;" x1="255.5647" x2="255.5647" y1="276.2578" y2="289.2578"/><line style="stroke:#181818;stroke-width:1;" x1="214.5647" x2="255.5647" y1="289.2578" y2="289.2578"/><polygon fill="#181818" points="224.5647,285.2578,214.5647,289.2578,224.5647,293.2578,220.5647,289.2578" style="stroke:#181818;stroke-width:1;"/><text fill="#000000" font-family="sans-serif" font-size="13" lengthAdjust="spacing" textLength="80.0247" x="220.5647" y="271.1919">&#50836;&#52397; &#48260;&#51204; &#51613;&#44032;</text></g><g class="message" data-entity-1="part2" data-entity-2="part2" id="msg5"><line style="stroke:#181818;stroke-width:1;" x1="213.5647" x2="255.5647" y1="318.3906" y2="318.3906"/><line style="stroke:#181818;stroke-width:1;" x1="255.5647" x2="255.5647" y1="318.3906" y2="331.3906"/><line style="stroke:#181818;stroke-width:1;" x1="214.5647" x2="255.5647" y1="331.3906" y2="331.3906"/><polygon fill="#181818" points="224.5647,327.3906,214.5647,331.3906,224.5647,335.3906,220.5647,331.3906" style="stroke:#181818;stroke-width:1;"/><text fill="#000000" font-family="sans-serif" font-size="13" lengthAdjust="spacing" textLength="124.4169" x="220.5647" y="313.3247">&#51025;&#45813; &#49884; &#48260;&#51204;/&#47784;&#46300; &#44160;&#51613;</text></g><g class="message" data-entity-1="part2" data-entity-2="part2" id="msg6"><line style="stroke:#181818;stroke-width:1;" x1="213.5647" x2="255.5647" y1="360.5234" y2="360.5234"/><line style="stroke:#181818;stroke-width:1;" x1="255.5647" x2="255.5647" y1="360.5234" y2="373.5234"/><line style="stroke:#181818;stroke-width:1;" x1="214.5647" x2="255.5647" y1="373.5234" y2="373.5234"/><polygon fill="#181818" points="224.5647,369.5234,214.5647,373.5234,224.5647,377.5234,220.5647,373.5234" style="stroke:#181818;stroke-width:1;"/><text fill="#000000" font-family="sans-serif" font-size="13" lengthAdjust="spacing" textLength="103.9447" x="220.5647" y="355.4575">&#52572;&#49888; &#50836;&#52397;&#47564; &#47116;&#45908;&#47553;</text></g><?plantuml-src RO-nIiDG58Rt-nG_tOFjsi55w2HMa3v0I2yIY4r8BhX6o6GY6WnOIr8Y5AE2MAB133vHpiqxcBQH3cOyX-___dE4BWoEoP4oFZrJ-lq1ZirpNSF8C2yPKpLXsfWut6QMQWjTqorr9Z0oxOi1OvizbCFTY24iqr4SRd1Dy2bayaNvghukGUivVHPCDGJezb4cFw2t5xgFvSETzE8j-552FgthHG2v2XbQezAujnr3zFvHFT1h9FrOPYxZXiFtgVr1VtH3BKFKKK3BUVLTOdpIIIyYcR-3Sa-c7kHpKgtTJYu9oIysrfOzsFs3AdURL6UaYAMVjWsK1Q0qe9k8iYl6PzDV?></g></svg>