<?plantuml 1.2026.1?><svg xmlns="http://www.w3.org/2000/svg" xmlns:xlink="http://www.w3.org/1999/xlink" contentStyleType="text/css" data-diagram-type="SEQUENCE" height="361px" preserveAspectRatio="none" style="width:467px;height:361px;background:#FFFFFF;" version="1.1" viewBox="0 0 467 361" width="467px" zoomAndPan="magnify"><title>UC-MODE-002 Data Flow</title><defs/><g><text fill="#000000" font-family="sans-serif" font-size="14" font-weight="bold" lengthAdjust="spacing" textLength="193.375" x="136.4943" y="27.9951">UC-MODE-002 Data Flow</text><g class="participant-lifeline" data-entity-uid="part1" data-qualified-name="User" id="part1-lifeline"><g><title>User</title><rect fill="#000000" fill-opacity="0.00000" height="162.5313" width="8" x="19.9551" y="118.5938"/><line style="stroke:#181818;stroke-width:0.5;stroke-dasharray:5,5;" x1="23" x2="23" y1="118.5938" y2="281.125"/></g></g><g class="participant-lifeline" data-entity-uid="part2" data-qualified-name="Form1" id="part2-lifeline"><g><title>Form1</title><rect fill="#000000" fill-opacity="0.00000" height="162.5313" width="8" x="209.3715" y="118.5938"/><line style="stroke:#181818;stroke-width:0.5;stroke-dasharray:5,5;" x1="212.912" x2="212.912" y1="118.5938" y2="281.125"/></g></g><g class="participant participant-head" data-entity-uid="part1" data-qualified-name="User" id="part1-head"><text fill="#000000" font-family="sans-serif" font-size="14" lengthAdjust="spacing" textLength="31.9102" x="5" y="115.292">User</text><ellipse cx="23.9551" cy="50.7969" fill="#E2E2F0" rx="8" ry="8" style="stroke:#181818;stroke-width:0.5;"/><path d="M23.9551,58.7969 L23.9551,85.7969 M10.9551,66.7969 L36.9551,66.7969 M23.9551,85.7969 L10.9551,100.7969 M23.9551,85.7969 L36.9551,100.7969" fill="none" style="stroke:#181818;stroke-width:0.5;"/></g><g class="participant participant-tail" data-entity-uid="part1" data-qualified-name="User" id="part1-tail"><text fill="#000000" font-family="sans-serif" font-size="14" lengthAdjust="spacing" textLength="31.9102" x="5" y="293.1201">User</text><ellipse cx="23.9551" cy="304.9219" fill="#E2E2F0" rx="8" ry="8" style="stroke:#181818;stroke-width:0.5;"/><path d="M23.9551,312.9219 L23.9551,339.9219 M10.9551,320.9219 L36.9551,320.9219 M23.9551,339.9219 L10.9551,354.9219 M23.9551,339.9219 L36.9551,354.9219" fill="none" style="stroke:#181818;stroke-width:0.5;"/></g><g class="participant participant-head" data-entity-uid="part2" data-qualified-name="Form1" id="part2-head"><rect fill="#E2E2F0" height="30.2969" rx="2.5" ry="2.5" style="stroke:#181818;stroke-width:0.5;" width="58.9189" x="183.912" y="87.2969"/><text fill="#000000" font-family="sans-serif" font-size="14" lengthAdjust="spacing" textLength="44.9189" x="190.912" y="107.292">Form1</text></g><g class="participant participant-tail" data-entity-uid="part2" data-qualified-name="Form1" id="part2-tail"><rect fill="#E2E2F0" height="30.2969" rx="2.5" ry="2.5" style="stroke:#181818;stroke-width:0.5;" width="58.9189" x="183.912" y="280.125"/><text fill="#000000" font-family="sans-serif" font-size="14" lengthAdjust="spacing" textLength="44.9189" x="190.912" y="300.1201">Form1</text></g><g class="message" data-entity-1="part1" data-entity-2="part2" id="msg1"><polygon fill="#181818" points="201.3715,145.7266,211.3715,149.7266,201.3715,153.7266,205.3715,149.7266" style="stroke:#181818;stroke-width:1;"/><line style="stroke:#181818;stroke-width:1;" x1="23.9551" x2="207.3715" y1="149.7266" y2="149.7266"/><text fill="#000000" font-family="sans-serif" font-size="13" lengthAdjust="spacing" textLength="165.4164" x="30.9551" y="144.6606">&#54056;&#45328; &#47784;&#46300; &#48320;&#44221;(&#54844;&#51105;&#46020;/CCTV)</text></g><g class="message" data-entity-1="part2" data-entity-2="part2" id="msg2"><line style="stroke:#181818;stroke-width:1;" x1="213.3715" x2="255.3715" y1="178.8594" y2="178.8594"/><line style="stroke:#181818;stroke-width:1;" x1="255.3715" x2="255.3715" y1="178.8594" y2="191.8594"/><line style="stroke:#181818;stroke-width:1;" x1="214.3715" x2="255.3715" y1="191.8594" y2="191.8594"/><polygon fill="#181818" points="224.3715,187.8594,214.3715,191.8594,224.3715,195.8594,220.3715,191.8594" style="stroke:#181818;stroke-width:1;"/><text fill="#000000" font-family="sans-serif" font-size="13" lengthAdjust="spacing" textLength="239.9922" x="220.3715" y="173.7935">SetRightPanelModeAsync(nextMode)</text></g><g class="message" data-entity-1="part2" data-entity-2="part2" id="msg3"><line style="stroke:#181818;stroke-width:1;" x1="213.3715" x2="255.3715" y1="220.9922" y2="220.9922"/><line style="stroke:#181818;stroke-width:1;" x1="255.3715" x2="255.3715" y1="220.9922" y2="233.9922"/><line style="stroke:#181818;stroke-width:1;" x1="214.3715" x2="255.3715" y1="233.9922" y2="233.9922"/><polygon fill="#181818" points="224.3715,229.9922,214.3715,233.9922,224.3715,237.9922,220.3715,233.9922" style="stroke:#181818;stroke-width:1;"/><text fill="#000000" font-family="sans-serif" font-size="13" lengthAdjust="spacing" textLength="156.1646" x="220.3715" y="215.9263">&#44592;&#51316; &#54616;&#51060;&#46972;&#51060;&#53944;/&#47560;&#52964; &#52488;&#44592;&#54868;</text></g><g class="message" data-entity-1="part2" data-entity-2="part1" id="msg4"><polygon fill="#181818" points="34.9551,259.125,24.9551,263.125,34.9551,267.125,30.9551,263.125" style="stroke:#181818;stroke-width:1;"/><line style="stroke:#181818;stroke-width:1;stroke-dasharray:2,2;" x1="28.9551" x2="212.3715" y1="263.125" y2="263.125"/><text fill="#000000" font-family="sans-serif" font-size="13" lengthAdjust="spacing" textLength="120.037" x="40.9551" y="258.0591">&#47784;&#46300; &#51204;&#54872; &#49345;&#53468; &#47700;&#49884;&#51648;</text></g><?plantuml-src AyaioKbL27NMzVLtSTKrC31IS4aiILHmoyalv-9AJ2x9Br88BKujuYf8B2h9JCuiICmhKN3BByervE82YIlesa6u2bOARtjMl6wPeF1wrOhNa-SelDxSy6hJNestC_QycRVmTN-BlhDpI9Wc5qGnagxWr9AWpFICae34lDGSt_oKLCVYohnaZRpKYX8G3ukELpisl5cuHU7jr1blvcvvFNSFa7pRjKF_zVAEDxkNABpPqW5Ky7Rc59X6e4wmIwrWBdkpeENjp1aARveRtpO3tRbooflkEM-MDm00?></g></svg>