<?plantuml 1.2026.1?><svg xmlns="http://www.w3.org/2000/svg" xmlns:xlink="http://www.w3.org/1999/xlink" contentStyleType="text/css" data-diagram-type="SEQUENCE" height="538px" preserveAspectRatio="none" style="width:389px;height:538px;background:#FFFFFF;" version="1.1" viewBox="0 0 389 538" width="389px" zoomAndPan="magnify"><title>UC-TRF-002 Logic Flow</title><defs/><g><text fill="#000000" font-family="sans-serif" font-size="14" font-weight="bold" lengthAdjust="spacing" textLength="180.7012" x="105.2273" y="27.9951">UC-TRF-002 Logic Flow</text><rect fill="none" height="233.6016" style="stroke:#000000;stroke-width:1.5;" width="233.3108" x="148.845" y="206.8594"/><rect fill="none" height="103.3984" style="stroke:#000000;stroke-width:1.5;" width="213.3108" x="158.845" y="330.0625"/><g class="participant-lifeline" data-entity-uid="part1" data-qualified-name="User" id="part1-lifeline"><g><title>User</title><rect fill="#000000" fill-opacity="0.00000" height="338.8672" width="8" x="19.9551" y="118.5938"/><line style="stroke:#181818;stroke-width:0.5;stroke-dasharray:5,5;" x1="23" x2="23" y1="118.5938" y2="457.4609"/></g></g><g class="participant-lifeline" data-entity-uid="part2" data-qualified-name="Form1" id="part2-lifeline"><g><title>Form1</title><rect fill="#000000" fill-opacity="0.00000" height="338.8672" width="8" x="194.3044" y="118.5938"/><line style="stroke:#181818;stroke-width:0.5;stroke-dasharray:5,5;" x1="197.845" x2="197.845" y1="118.5938" y2="457.4609"/></g></g><g class="participant participant-head" data-entity-uid="part1" data-qualified-name="User" id="part1-head"><text fill="#000000" font-family="sans-serif" font-size="14" lengthAdjust="spacing" textLength="31.9102" x="5" y="115.292">User</text><ellipse cx="23.9551" cy="50.7969" fill="#E2E2F0" rx="8" ry="8" style="stroke:#181818;stroke-width:0.5;"/><path d="M23.9551,58.7969 L23.9551,85.7969 M10.9551,66.7969 L36.9551,66.7969 M23.9551,85.7969 L10.9551,100.7969 M23.9551,85.7969 L36.9551,100.7969" fill="none" style="stroke:#181818;stroke-width:0.5;"/></g><g class="participant participant-tail" data-entity-uid="part1" data-qualified-name="User" id="part1-tail"><text fill="#000000" font-family="sans-serif" font-size="14" lengthAdjust="spacing" textLength="31.9102" x="5" y="469.4561">User</text><ellipse cx="23.9551" cy="481.2578" fill="#E2E2F0" rx="8" ry="8" style="stroke:#181818;stroke-width:0.5;"/><path d="M23.9551,489.2578 L23.9551,516.2578 M10.9551,497.2578 L36.9551,497.2578 M23.9551,516.2578 L10.9551,531.2578 M23.9551,516.2578 L36.9551,531.2578" fill="none" style="stroke:#181818;stroke-width:0.5;"/></g><g class="participant participant-head" data-entity-uid="part2" data-qualified-name="Form1" id="part2-head"><rect fill="#E2E2F0" height="30.2969" rx="2.5" ry="2.5" style="stroke:#181818;stroke-width:0.5;" width="58.9189" x="168.845" y="87.2969"/><text fill="#000000" font-family="sans-serif" font-size="14" lengthAdjust="spacing" textLength="44.9189" x="175.845" y="107.292">Form1</text></g><g class="participant participant-tail" data-entity-uid="part2" data-qualified-name="Form1" id="part2-tail"><rect fill="#E2E2F0" height="30.2969" rx="2.5" ry="2.5" style="stroke:#181818;stroke-width:0.5;" width="58.9189" x="168.845" y="456.4609"/><text fill="#000000" font-family="sans-serif" font-size="14" lengthAdjust="spacing" textLength="44.9189" x="175.845" y="476.4561">Form1</text></g><g class="message" data-entity-1="part1" data-entity-2="part2" id="msg1"><polygon fill="#181818" points="186.3044,145.7266,196.3044,149.7266,186.3044,153.7266,190.3044,149.7266" style="stroke:#181818;stroke-width:1;"/><line style="stroke:#181818;stroke-width:1;" x1="23.9551" x2="192.3044" y1="149.7266" y2="149.7266"/><text fill="#000000" font-family="sans-serif" font-size="13" lengthAdjust="spacing" textLength="150.3493" x="30.9551" y="144.6606">vds-selected &#51060;&#48292;&#53944; &#50976;&#51077;</text></g><g class="message" data-entity-1="part2" data-entity-2="part2" id="msg2"><line style="stroke:#181818;stroke-width:1;" x1="198.3044" x2="240.3044" y1="178.8594" y2="178.8594"/><line style="stroke:#181818;stroke-width:1;" x1="240.3044" x2="240.3044" y1="178.8594" y2="191.8594"/><line style="stroke:#181818;stroke-width:1;" x1="199.3044" x2="240.3044" y1="191.8594" y2="191.8594"/><polygon fill="#181818" points="209.3044,187.8594,199.3044,191.8594,209.3044,195.8594,205.3044,191.8594" style="stroke:#181818;stroke-width:1;"/><text fill="#000000" font-family="sans-serif" font-size="13" lengthAdjust="spacing" textLength="154.1006" x="205.3044" y="173.7935">&#54788;&#51116; &#54056;&#45328; &#47784;&#46300; &#54869;&#51064;(&#54844;&#51105;&#46020;)</text></g><path d="M148.845,206.8594 L213.2878,206.8594 L213.2878,213.9922 L203.2878,223.9922 L148.845,223.9922 L148.845,206.8594" fill="#EEEEEE" style="stroke:#000000;stroke-width:1.5;"/><rect fill="none" height="233.6016" style="stroke:#000000;stroke-width:1.5;" width="233.3108" x="148.845" y="206.8594"/><text fill="#000000" font-family="sans-serif" font-size="13" font-weight="bold" lengthAdjust="spacing" textLength="19.4429" x="163.845" y="219.9263">alt</text><text fill="#000000" font-family="sans-serif" font-size="11" font-weight="bold" lengthAdjust="spacing" textLength="88.5533" x="228.2878" y="219.0698">[&#54844;&#51105;&#46020; &#47784;&#46300; &#50500;&#45784;]</text><g class="message" data-entity-1="part2" data-entity-2="part2" id="msg3"><line style="stroke:#181818;stroke-width:1;" x1="198.3044" x2="240.3044" y1="245.125" y2="245.125"/><line style="stroke:#181818;stroke-width:1;" x1="240.3044" x2="240.3044" y1="245.125" y2="258.125"/><line style="stroke:#181818;stroke-width:1;" x1="199.3044" x2="240.3044" y1="258.125" y2="258.125"/><polygon fill="#181818" points="209.3044,254.125,199.3044,258.125,209.3044,262.125,205.3044,258.125" style="stroke:#181818;stroke-width:1;"/><text fill="#000000" font-family="sans-serif" font-size="13" lengthAdjust="spacing" textLength="63.9324" x="205.3044" y="240.0591">&#51060;&#48292;&#53944; &#47924;&#49884;</text></g><line style="stroke:#000000;stroke-width:1;stroke-dasharray:2,2;" x1="148.845" x2="382.1558" y1="267.125" y2="267.125"/><text fill="#000000" font-family="sans-serif" font-size="11" font-weight="bold" lengthAdjust="spacing" textLength="64.4839" x="153.845" y="277.3354">[&#54844;&#51105;&#46020; &#47784;&#46300;]</text><g class="message" data-entity-1="part2" data-entity-2="part2" id="msg4"><line style="stroke:#181818;stroke-width:1;" x1="198.3044" x2="240.3044" y1="302.0625" y2="302.0625"/><line style="stroke:#181818;stroke-width:1;" x1="240.3044" x2="240.3044" y1="302.0625" y2="315.0625"/><line style="stroke:#181818;stroke-width:1;" x1="199.3044" x2="240.3044" y1="315.0625" y2="315.0625"/><polygon fill="#181818" points="209.3044,311.0625,199.3044,315.0625,209.3044,319.0625,205.3044,315.0625" style="stroke:#181818;stroke-width:1;"/><text fill="#000000" font-family="sans-serif" font-size="13" lengthAdjust="spacing" textLength="62.8565" x="205.3044" y="296.9966">vdsId &#54028;&#49905;</text></g><path d="M158.845,330.0625 L223.2878,330.0625 L223.2878,337.1953 L213.2878,347.1953 L158.845,347.1953 L158.845,330.0625" fill="#EEEEEE" style="stroke:#000000;stroke-width:1.5;"/><rect fill="none" height="103.3984" style="stroke:#000000;stroke-width:1.5;" width="213.3108" x="158.845" y="330.0625"/><text fill="#000000" font-family="sans-serif" font-size="13" font-weight="bold" lengthAdjust="spacing" textLength="19.4429" x="173.845" y="343.1294">alt</text><text fill="#000000" font-family="sans-serif" font-size="11" font-weight="bold" lengthAdjust="spacing" textLength="128.868" x="238.2878" y="342.2729">[vdsId &#50976;&#54952; + &#52852;&#46300; &#51316;&#51116;]</text><g class="message" data-entity-1="part2" data-entity-2="part2" id="msg5"><line style="stroke:#181818;stroke-width:1;" x1="198.3044" x2="240.3044" y1="368.3281" y2="368.3281"/><line style="stroke:#181818;stroke-width:1;" x1="240.3044" x2="240.3044" y1="368.3281" y2="381.3281"/><line style="stroke:#181818;stroke-width:1;" x1="199.3044" x2="240.3044" y1="381.3281" y2="381.3281"/><polygon fill="#181818" points="209.3044,377.3281,199.3044,381.3281,209.3044,385.3281,205.3044,381.3281" style="stroke:#181818;stroke-width:1;"/><text fill="#000000" font-family="sans-serif" font-size="13" lengthAdjust="spacing" textLength="136.6245" x="205.3044" y="363.2622">&#52852;&#46300; &#49440;&#53469;/&#44053;&#51312;/&#50836;&#50557; &#44081;&#49888;</text></g><line style="stroke:#000000;stroke-width:1;stroke-dasharray:2,2;" x1="158.845" x2="372.1558" y1="390.3281" y2="390.3281"/><g class="message" data-entity-1="part2" data-entity-2="part2" id="msg6"><line style="stroke:#181818;stroke-width:1;" x1="198.3044" x2="240.3044" y1="412.4609" y2="412.4609"/><line style="stroke:#181818;stroke-width:1;" x1="240.3044" x2="240.3044" y1="412.4609" y2="425.4609"/><line style="stroke:#181818;stroke-width:1;" x1="199.3044" x2="240.3044" y1="425.4609" y2="425.4609"/><polygon fill="#181818" points="209.3044,421.4609,199.3044,425.4609,209.3044,429.4609,205.3044,425.4609" style="stroke:#181818;stroke-width:1;"/><text fill="#000000" font-family="sans-serif" font-size="13" lengthAdjust="spacing" textLength="51.9724" x="205.3044" y="407.395">&#49440;&#53469; &#54644;&#51228;</text></g><?plantuml-src TO_FIiD04CRl-nHpL2IqUlJWHGW8diG-G4WM2QnDIHRx0AuNKr3GG2n9IC13a1vIsKCB-aBTsNVefl4Vj1xcC3E_RxvlkCyPXS6fTNbXM_t-4Pm7LxuBDWl6X3Wk3q8OH3Ga8oValkkFd247EmYl3mbfvs2TT2qSmuqNMH5brENK0yobUd_Lzml0hCJYZdJK7rod0eiPw4cjn2EejrezPQ1V4imNUphzmA9I3sAVE8p3J_kDOI9Kd1A0hQk_lcecCSu8PH7TEh1BQUAVUIRE1EEvsRU-tSWyeASr700kvSQyaYQuGNRPVo6YrBTvRzKaM3Kzd3vZyWchPevnQNHjf7_a6nteH6BPXgH3ZvXQ0m00?></g></svg>