<?plantuml 1.2026.1?><svg xmlns="http://www.w3.org/2000/svg" xmlns:xlink="http://www.w3.org/1999/xlink" contentStyleType="text/css" data-diagram-type="SEQUENCE" height="505px" preserveAspectRatio="none" style="width:290px;height:505px;background:#FFFFFF;" version="1.1" viewBox="0 0 290 505" width="290px" zoomAndPan="magnify"><title>UC-MODE-002 Logic Flow</title><defs/><g><text fill="#000000" font-family="sans-serif" font-size="14" font-weight="bold" lengthAdjust="spacing" textLength="197.8252" x="47.142" y="27.9951">UC-MODE-002 Logic Flow</text><rect fill="none" height="200.4688" style="stroke:#000000;stroke-width:1.5;" width="222.6412" x="60.468" y="206.8594"/><g class="participant-lifeline" data-entity-uid="part1" data-qualified-name="User" id="part1-lifeline"><g><title>User</title><rect fill="#000000" fill-opacity="0.00000" height="305.7344" width="8" x="19.9551" y="118.5938"/><line style="stroke:#181818;stroke-width:0.5;stroke-dasharray:5,5;" x1="23" x2="23" y1="118.5938" y2="424.3281"/></g></g><g class="participant-lifeline" data-entity-uid="part2" data-qualified-name="Form1" id="part2-lifeline"><g><title>Form1</title><rect fill="#000000" fill-opacity="0.00000" height="305.7344" width="8" x="95.9274" y="118.5938"/><line style="stroke:#181818;stroke-width:0.5;stroke-dasharray:5,5;" x1="99.468" x2="99.468" y1="118.5938" y2="424.3281"/></g></g><g class="participant participant-head" data-entity-uid="part1" data-qualified-name="User" id="part1-head"><text fill="#000000" font-family="sans-serif" font-size="14" lengthAdjust="spacing" textLength="31.9102" x="5" y="115.292">User</text><ellipse cx="23.9551" cy="50.7969" fill="#E2E2F0" rx="8" ry="8" style="stroke:#181818;stroke-width:0.5;"/><path d="M23.9551,58.7969 L23.9551,85.7969 M10.9551,66.7969 L36.9551,66.7969 M23.9551,85.7969 L10.9551,100.7969 M23.9551,85.7969 L36.9551,100.7969" fill="none" style="stroke:#181818;stroke-width:0.5;"/></g><g class="participant participant-tail" data-entity-uid="part1" data-qualified-name="User" id="part1-tail"><text fill="#000000" font-family="sans-serif" font-size="14" lengthAdjust="spacing" textLength="31.9102" x="5" y="436.3232">User</text><ellipse cx="23.9551" cy="448.125" fill="#E2E2F0" rx="8" ry="8" style="stroke:#181818;stroke-width:0.5;"/><path d="M23.9551,456.125 L23.9551,483.125 M10.9551,464.125 L36.9551,464.125 M23.9551,483.125 L10.9551,498.125 M23.9551,483.125 L36.9551,498.125" fill="none" style="stroke:#181818;stroke-width:0.5;"/></g><g class="participant participant-head" data-entity-uid="part2" data-qualified-name="Form1" id="part2-head"><rect fill="#E2E2F0" height="30.2969" rx="2.5" ry="2.5" style="stroke:#181818;stroke-width:0.5;" width="58.9189" x="70.468" y="87.2969"/><text fill="#000000" font-family="sans-serif" font-size="14" lengthAdjust="spacing" textLength="44.9189" x="77.468" y="107.292">Form1</text></g><g class="participant participant-tail" data-entity-uid="part2" data-qualified-name="Form1" id="part2-tail"><rect fill="#E2E2F0" height="30.2969" rx="2.5" ry="2.5" style="stroke:#181818;stroke-width:0.5;" width="58.9189" x="70.468" y="423.3281"/><text fill="#000000" font-family="sans-serif" font-size="14" lengthAdjust="spacing" textLength="44.9189" x="77.468" y="443.3232">Form1</text></g><g class="message" data-entity-1="part1" data-entity-2="part2" id="msg1"><polygon fill="#181818" points="87.9274,145.7266,97.9274,149.7266,87.9274,153.7266,91.9274,149.7266" style="stroke:#181818;stroke-width:1;"/><line style="stroke:#181818;stroke-width:1;" x1="23.9551" x2="93.9274" y1="149.7266" y2="149.7266"/><text fill="#000000" font-family="sans-serif" font-size="13" lengthAdjust="spacing" textLength="51.9724" x="30.9551" y="144.6606">&#47784;&#46300; &#49440;&#53469;</text></g><g class="message" data-entity-1="part2" data-entity-2="part2" id="msg2"><line style="stroke:#181818;stroke-width:1;" x1="99.9274" x2="141.9274" y1="178.8594" y2="178.8594"/><line style="stroke:#181818;stroke-width:1;" x1="141.9274" x2="141.9274" y1="178.8594" y2="191.8594"/><line style="stroke:#181818;stroke-width:1;" x1="100.9274" x2="141.9274" y1="191.8594" y2="191.8594"/><polygon fill="#181818" points="110.9274,187.8594,100.9274,191.8594,110.9274,195.8594,106.9274,191.8594" style="stroke:#181818;stroke-width:1;"/><text fill="#000000" font-family="sans-serif" font-size="13" lengthAdjust="spacing" textLength="91.9847" x="106.9274" y="173.7935">&#54788;&#51116; &#47784;&#46300;&#50752; &#48708;&#44368;</text></g><path d="M60.468,206.8594 L124.9108,206.8594 L124.9108,213.9922 L114.9108,223.9922 L60.468,223.9922 L60.468,206.8594" fill="#EEEEEE" style="stroke:#000000;stroke-width:1.5;"/><rect fill="none" height="200.4688" style="stroke:#000000;stroke-width:1.5;" width="222.6412" x="60.468" y="206.8594"/><text fill="#000000" font-family="sans-serif" font-size="13" font-weight="bold" lengthAdjust="spacing" textLength="19.4429" x="75.468" y="219.9263">alt</text><text fill="#000000" font-family="sans-serif" font-size="11" font-weight="bold" lengthAdjust="spacing" textLength="54.364" x="139.9108" y="219.0698">[&#46041;&#51068; &#47784;&#46300;]</text><g class="message" data-entity-1="part2" data-entity-2="part2" id="msg3"><line style="stroke:#181818;stroke-width:1;" x1="99.9274" x2="141.9274" y1="245.125" y2="245.125"/><line style="stroke:#181818;stroke-width:1;" x1="141.9274" x2="141.9274" y1="245.125" y2="258.125"/><line style="stroke:#181818;stroke-width:1;" x1="100.9274" x2="141.9274" y1="258.125" y2="258.125"/><polygon fill="#181818" points="110.9274,254.125,100.9274,258.125,110.9274,262.125,106.9274,258.125" style="stroke:#181818;stroke-width:1;"/><text fill="#000000" font-family="sans-serif" font-size="13" lengthAdjust="spacing" textLength="80.0247" x="106.9274" y="240.0591">&#48320;&#44221; &#50630;&#51060; &#51333;&#47308;</text></g><line style="stroke:#000000;stroke-width:1;stroke-dasharray:2,2;" x1="60.468" x2="283.1091" y1="267.125" y2="267.125"/><text fill="#000000" font-family="sans-serif" font-size="11" font-weight="bold" lengthAdjust="spacing" textLength="54.364" x="65.468" y="277.3354">[&#45796;&#47480; &#47784;&#46300;]</text><g class="message" data-entity-1="part2" data-entity-2="part2" id="msg4"><line style="stroke:#181818;stroke-width:1;" x1="99.9274" x2="141.9274" y1="302.0625" y2="302.0625"/><line style="stroke:#181818;stroke-width:1;" x1="141.9274" x2="141.9274" y1="302.0625" y2="315.0625"/><line style="stroke:#181818;stroke-width:1;" x1="100.9274" x2="141.9274" y1="315.0625" y2="315.0625"/><polygon fill="#181818" points="110.9274,311.0625,100.9274,315.0625,110.9274,319.0625,106.9274,315.0625" style="stroke:#181818;stroke-width:1;"/><text fill="#000000" font-family="sans-serif" font-size="13" lengthAdjust="spacing" textLength="68.0647" x="106.9274" y="296.9966">&#47784;&#46300; &#44050; &#44081;&#49888;</text></g><g class="message" data-entity-1="part2" data-entity-2="part2" id="msg5"><line style="stroke:#181818;stroke-width:1;" x1="99.9274" x2="141.9274" y1="344.1953" y2="344.1953"/><line style="stroke:#181818;stroke-width:1;" x1="141.9274" x2="141.9274" y1="344.1953" y2="357.1953"/><line style="stroke:#181818;stroke-width:1;" x1="100.9274" x2="141.9274" y1="357.1953" y2="357.1953"/><polygon fill="#181818" points="110.9274,353.1953,100.9274,357.1953,110.9274,361.1953,106.9274,357.1953" style="stroke:#181818;stroke-width:1;"/><text fill="#000000" font-family="sans-serif" font-size="13" lengthAdjust="spacing" textLength="156.1646" x="106.9274" y="339.1294">&#44592;&#51316; &#54616;&#51060;&#46972;&#51060;&#53944;/&#47560;&#52964; &#52488;&#44592;&#54868;</text></g><g class="message" data-entity-1="part2" data-entity-2="part2" id="msg6"><line style="stroke:#181818;stroke-width:1;" x1="99.9274" x2="141.9274" y1="386.3281" y2="386.3281"/><line style="stroke:#181818;stroke-width:1;" x1="141.9274" x2="141.9274" y1="386.3281" y2="399.3281"/><line style="stroke:#181818;stroke-width:1;" x1="100.9274" x2="141.9274" y1="399.3281" y2="399.3281"/><polygon fill="#181818" points="110.9274,395.3281,100.9274,399.3281,110.9274,403.3281,106.9274,399.3281" style="stroke:#181818;stroke-width:1;"/><text fill="#000000" font-family="sans-serif" font-size="13" lengthAdjust="spacing" textLength="164.1817" x="106.9274" y="381.2622">&#50808;&#48512; &#51312;&#54924; &#50630;&#51060; &#45824;&#44592; &#49345;&#53468; &#50976;&#51648;</text></g><?plantuml-src VP3DIiDG48NtynJp0i7gqeKRjIl5LHyWn8i4ObFI2swl94gn0SKVRAIHL2iLSH4rIiJwGfcvx-2LL10iBcPWpfnlE8nqfIUmjMfjRgsjMut64cxuEww3JS_V0x0TwGVOwee0EdOWNSVjs6s9JJ_ONGJurj5QgKTSHdgufxCXSfJfC8LQ_RNMWuYl7sSkJXJIUrIzde3jIQJZXDFfR0U8Vs1wKTNp9_Bb8QS5yiq1tSOWlAv0we_fhlmFhMDL-Qcf9-vdyqnLcVEeG7qnCFSfdPgkZye5clJuOunSz8n19-VpK4vAUbF8ernVnJy9ALQ6G0xtTMXUCinuea2qjxy0?></g></svg>