<?plantuml 1.2026.1?><svg xmlns="http://www.w3.org/2000/svg" xmlns:xlink="http://www.w3.org/1999/xlink" contentStyleType="text/css" data-diagram-type="SEQUENCE" height="448px" preserveAspectRatio="none" style="width:413px;height:448px;background:#FFFFFF;" version="1.1" viewBox="0 0 413 448" width="413px" zoomAndPan="magnify"><title>UC-TRF-003 Logic Flow</title><defs/><g><text fill="#000000" font-family="sans-serif" font-size="14" font-weight="bold" lengthAdjust="spacing" textLength="180.7012" x="117.7323" y="27.9951">UC-TRF-003 Logic Flow</text><rect fill="none" height="143.5313" style="stroke:#000000;stroke-width:1.5;" width="290.593" x="116.5726" y="206.8594"/><g class="participant-lifeline" data-entity-uid="part1" data-qualified-name="User" id="part1-lifeline"><g><title>User</title><rect fill="#000000" fill-opacity="0.00000" height="248.7969" width="8" x="19.9551" y="118.5938"/><line style="stroke:#181818;stroke-width:0.5;stroke-dasharray:5,5;" x1="23" x2="23" y1="118.5938" y2="367.3906"/></g></g><g class="participant-lifeline" data-entity-uid="part2" data-qualified-name="Form1" id="part2-lifeline"><g><title>Form1</title><rect fill="#000000" fill-opacity="0.00000" height="248.7969" width="8" x="152.0321" y="118.5938"/><line style="stroke:#181818;stroke-width:0.5;stroke-dasharray:5,5;" x1="155.5726" x2="155.5726" y1="118.5938" y2="367.3906"/></g></g><g class="participant participant-head" data-entity-uid="part1" data-qualified-name="User" id="part1-head"><text fill="#000000" font-family="sans-serif" font-size="14" lengthAdjust="spacing" textLength="31.9102" x="5" y="115.292">User</text><ellipse cx="23.9551" cy="50.7969" fill="#E2E2F0" rx="8" ry="8" style="stroke:#181818;stroke-width:0.5;"/><path d="M23.9551,58.7969 L23.9551,85.7969 M10.9551,66.7969 L36.9551,66.7969 M23.9551,85.7969 L10.9551,100.7969 M23.9551,85.7969 L36.9551,100.7969" fill="none" style="stroke:#181818;stroke-width:0.5;"/></g><g class="participant participant-tail" data-entity-uid="part1" data-qualified-name="User" id="part1-tail"><text fill="#000000" font-family="sans-serif" font-size="14" lengthAdjust="spacing" textLength="31.9102" x="5" y="379.3857">User</text><ellipse cx="23.9551" cy="391.1875" fill="#E2E2F0" rx="8" ry="8" style="stroke:#181818;stroke-width:0.5;"/><path d="M23.9551,399.1875 L23.9551,426.1875 M10.9551,407.1875 L36.9551,407.1875 M23.9551,426.1875 L10.9551,441.1875 M23.9551,426.1875 L36.9551,441.1875" fill="none" style="stroke:#181818;stroke-width:0.5;"/></g><g class="participant participant-head" data-entity-uid="part2" data-qualified-name="Form1" id="part2-head"><rect fill="#E2E2F0" height="30.2969" rx="2.5" ry="2.5" style="stroke:#181818;stroke-width:0.5;" width="58.9189" x="126.5726" y="87.2969"/><text fill="#000000" font-family="sans-serif" font-size="14" lengthAdjust="spacing" textLength="44.9189" x="133.5726" y="107.292">Form1</text></g><g class="participant participant-tail" data-entity-uid="part2" data-qualified-name="Form1" id="part2-tail"><rect fill="#E2E2F0" height="30.2969" rx="2.5" ry="2.5" style="stroke:#181818;stroke-width:0.5;" width="58.9189" x="126.5726" y="366.3906"/><text fill="#000000" font-family="sans-serif" font-size="14" lengthAdjust="spacing" textLength="44.9189" x="133.5726" y="386.3857">Form1</text></g><g class="message" data-entity-1="part1" data-entity-2="part2" id="msg1"><polygon fill="#181818" points="144.0321,145.7266,154.0321,149.7266,144.0321,153.7266,148.0321,149.7266" style="stroke:#181818;stroke-width:1;"/><line style="stroke:#181818;stroke-width:1;" x1="23.9551" x2="150.0321" y1="149.7266" y2="149.7266"/><text fill="#000000" font-family="sans-serif" font-size="13" lengthAdjust="spacing" textLength="108.077" x="30.9551" y="144.6606">&#51312;&#54924; &#44208;&#44284; &#54868;&#47732; &#54869;&#51064;</text></g><g class="message" data-entity-1="part2" data-entity-2="part2" id="msg2"><line style="stroke:#181818;stroke-width:1;" x1="156.0321" x2="198.0321" y1="178.8594" y2="178.8594"/><line style="stroke:#181818;stroke-width:1;" x1="198.0321" x2="198.0321" y1="178.8594" y2="191.8594"/><line style="stroke:#181818;stroke-width:1;" x1="157.0321" x2="198.0321" y1="191.8594" y2="191.8594"/><polygon fill="#181818" points="167.0321,187.8594,157.0321,191.8594,167.0321,195.8594,163.0321,191.8594" style="stroke:#181818;stroke-width:1;"/><text fill="#000000" font-family="sans-serif" font-size="13" lengthAdjust="spacing" textLength="97.3413" x="163.0321" y="173.7935">clearSegments</text></g><path d="M116.5726,206.8594 L193.1967,206.8594 L193.1967,213.9922 L183.1967,223.9922 L116.5726,223.9922 L116.5726,206.8594" fill="#EEEEEE" style="stroke:#000000;stroke-width:1.5;"/><rect fill="none" height="143.5313" style="stroke:#000000;stroke-width:1.5;" width="290.593" x="116.5726" y="206.8594"/><text fill="#000000" font-family="sans-serif" font-size="13" font-weight="bold" lengthAdjust="spacing" textLength="31.624" x="131.5726" y="219.9263">loop</text><text fill="#000000" font-family="sans-serif" font-size="11" font-weight="bold" lengthAdjust="spacing" textLength="69.8104" x="208.1967" y="219.0698">[VDS &#44208;&#44284;&#48324;]</text><g class="message" data-entity-1="part2" data-entity-2="part2" id="msg3"><line style="stroke:#181818;stroke-width:1;" x1="156.0321" x2="198.0321" y1="245.125" y2="245.125"/><line style="stroke:#181818;stroke-width:1;" x1="198.0321" x2="198.0321" y1="245.125" y2="258.125"/><line style="stroke:#181818;stroke-width:1;" x1="157.0321" x2="198.0321" y1="258.125" y2="258.125"/><polygon fill="#181818" points="167.0321,254.125,157.0321,258.125,167.0321,262.125,163.0321,258.125" style="stroke:#181818;stroke-width:1;"/><text fill="#000000" font-family="sans-serif" font-size="13" lengthAdjust="spacing" textLength="232.1336" x="163.0321" y="240.0591">responsibility segment &#51316;&#51116; &#50668;&#48512; &#54869;&#51064;</text></g><g class="message" data-entity-1="part2" data-entity-2="part2" id="msg4"><line style="stroke:#181818;stroke-width:1;" x1="156.0321" x2="198.0321" y1="287.2578" y2="287.2578"/><line style="stroke:#181818;stroke-width:1;" x1="198.0321" x2="198.0321" y1="287.2578" y2="300.2578"/><line style="stroke:#181818;stroke-width:1;" x1="157.0321" x2="198.0321" y1="300.2578" y2="300.2578"/><polygon fill="#181818" points="167.0321,296.2578,157.0321,300.2578,167.0321,304.2578,163.0321,300.2578" style="stroke:#181818;stroke-width:1;"/><text fill="#000000" font-family="sans-serif" font-size="13" lengthAdjust="spacing" textLength="200.2749" x="163.0321" y="282.1919">TrafficLevelPolicy.GetColorHex</text></g><g class="message" data-entity-1="part2" data-entity-2="part2" id="msg5"><line style="stroke:#181818;stroke-width:1;" x1="156.0321" x2="198.0321" y1="329.3906" y2="329.3906"/><line style="stroke:#181818;stroke-width:1;" x1="198.0321" x2="198.0321" y1="329.3906" y2="342.3906"/><line style="stroke:#181818;stroke-width:1;" x1="157.0321" x2="198.0321" y1="342.3906" y2="342.3906"/><polygon fill="#181818" points="167.0321,338.3906,157.0321,342.3906,167.0321,346.3906,163.0321,342.3906" style="stroke:#181818;stroke-width:1;"/><text fill="#000000" font-family="sans-serif" font-size="13" lengthAdjust="spacing" textLength="173.3164" x="163.0321" y="324.3247">addSegment(points, color)</text></g><?plantuml-src AyaioKbL27NM3GboqpKmC5RmoK_FJ5Pmoyalv-9AJ2x9Br88BKujuYf8B2h9JCuiICmhKN3BByervE82YIlesa6u2bOARnPkU3khH-7LfWslDkzHU3jpokkLMu3Kr3TpTt11r20fJiv9JImAJatFJSqhAURAoSylK0Xp2OPgVhsvXKj10KDFKMfnGNvUSMPIPavcIQL2CKGtqDujR-QjKNWpVSthRGqm2x5e3obAJ4lBJFP9BKlD2SZFoKokr7DFBN7EpyalyaYjmAOZCIK5waIDWlnCe4Dr5991oZMvKlDI0000?></g></svg>