<?plantuml 1.2026.1?><svg xmlns="http://www.w3.org/2000/svg" xmlns:xlink="http://www.w3.org/1999/xlink" contentStyleType="text/css" data-diagram-type="SEQUENCE" height="783px" preserveAspectRatio="none" style="width:2017px;height:783px;background:#FFFFFF;" version="1.1" viewBox="0 0 2017 783" width="2017px" zoomAndPan="magnify"><title>UC-TRF-001 Data Flow</title><defs/><g><text fill="#000000" font-family="sans-serif" font-size="14" font-weight="bold" lengthAdjust="spacing" textLength="176.251" x="922.3403" y="27.9951">UC-TRF-001 Data Flow</text><rect fill="none" height="247.9297" style="stroke:#000000;stroke-width:1.5;" width="1628.0046" x="383.9269" y="366.3906"/><g class="participant-lifeline" data-entity-uid="part1" data-qualified-name="User" id="part1-lifeline"><g><title>User</title><rect fill="#000000" fill-opacity="0.00000" height="583.9922" width="8" x="19.9551" y="118.5938"/><line style="stroke:#181818;stroke-width:0.5;stroke-dasharray:5,5;" x1="23" x2="23" y1="118.5938" y2="702.5859"/></g></g><g class="participant-lifeline" data-entity-uid="part2" data-qualified-name="Form1" id="part2-lifeline"><g><title>Form1.WebView2.</title><rect fill="#000000" fill-opacity="0.00000" height="583.9922" width="8" x="206.7892" y="118.5938"/><line style="stroke:#181818;stroke-width:0.5;stroke-dasharray:5,5;" x1="209.9777" x2="209.9777" y1="118.5938" y2="702.5859"/></g></g><g class="participant-lifeline" data-entity-uid="part3" data-qualified-name="TrafficSvc" id="part3-lifeline"><g><title>RequestTrafficByPosService</title><rect fill="#000000" fill-opacity="0.00000" height="583.9922" width="8" x="494.8073" y="118.5938"/><line style="stroke:#181818;stroke-width:0.5;stroke-dasharray:5,5;" x1="497.9269" x2="497.9269" y1="118.5938" y2="702.5859"/></g></g><g class="participant-lifeline" data-entity-uid="part4" data-qualified-name="OpenStreetPort" id="part4-lifeline"><g><title>IOpenStreetQueryPort</title><rect fill="#000000" fill-opacity="0.00000" height="583.9922" width="8" x="726.071" y="118.5938"/><line style="stroke:#181818;stroke-width:0.5;stroke-dasharray:5,5;" x1="729.4865" x2="729.4865" y1="118.5938" y2="702.5859"/></g></g><g class="participant-lifeline" data-entity-uid="part5" data-qualified-name="OpenStreetAdapter" id="part5-lifeline"><g><title>OpenStreetQueryAdapter</title><rect fill="#000000" fill-opacity="0.00000" height="583.9922" width="8" x="916.9431" y="118.5938"/><line style="stroke:#181818;stroke-width:0.5;stroke-dasharray:5,5;" x1="920.6555" x2="920.6555" y1="118.5938" y2="702.5859"/></g></g><g class="participant-lifeline" data-entity-uid="part6" data-qualified-name="OpenStreetRepo" id="part6-lifeline"><g><title>OpenStreetDbRepository</title><rect fill="#000000" fill-opacity="0.00000" height="583.9922" width="8" x="1140.6594" y="118.5938"/><line style="stroke:#181818;stroke-width:0.5;stroke-dasharray:5,5;" x1="1144.1696" x2="1144.1696" y1="118.5938" y2="702.5859"/></g></g><g class="participant-lifeline" data-entity-uid="part7" data-qualified-name="GeoDb" id="part7-lifeline"><g><title>Geo Postgres</title><rect fill="#000000" fill-opacity="0.00000" height="583.9922" width="8" x="1330.9086" y="118.5938"/><line style="stroke:#181818;stroke-width:0.5;stroke-dasharray:5,5;" x1="1334.4994" x2="1334.4994" y1="118.5938" y2="702.5859"/></g></g><g class="participant-lifeline" data-entity-uid="part8" data-qualified-name="TrafficApiPort" id="part8-lifeline"><g><title>IPublicTrafficApiPort</title><rect fill="#000000" fill-opacity="0.00000" height="583.9922" width="8" x="1467.6903" y="118.5938"/><line style="stroke:#181818;stroke-width:0.5;stroke-dasharray:5,5;" x1="1471.3177" x2="1471.3177" y1="118.5938" y2="702.5859"/></g></g><g class="participant-lifeline" data-entity-uid="part9" data-qualified-name="TrafficAdapter" id="part9-lifeline"><g><title>PublicTrafficApiAdapter</title><rect fill="#000000" fill-opacity="0.00000" height="583.9922" width="8" x="1644.1385" y="118.5938"/><line style="stroke:#181818;stroke-width:0.5;stroke-dasharray:5,5;" x1="1648.0629" x2="1648.0629" y1="118.5938" y2="702.5859"/></g></g><g class="participant-lifeline" data-entity-uid="part10" data-qualified-name="VdsApi" id="part10-lifeline"><g><title>ITS VDS API</title><rect fill="#000000" fill-opacity="0.00000" height="583.9922" width="8" x="1791.1444" y="118.5938"/><line style="stroke:#181818;stroke-width:0.5;stroke-dasharray:5,5;" x1="1794.2142" x2="1794.2142" y1="118.5938" y2="702.5859"/></g></g><g class="participant-lifeline" data-entity-uid="part11" data-qualified-name="VdsRepo" id="part11-lifeline"><g><title>VdsRepository</title><rect fill="#000000" fill-opacity="0.00000" height="583.9922" width="8" x="1940.5165" y="118.5938"/><line style="stroke:#181818;stroke-width:0.5;stroke-dasharray:5,5;" x1="1944.1014" x2="1944.1014" y1="118.5938" y2="702.5859"/></g></g><g class="participant participant-head" data-entity-uid="part1" data-qualified-name="User" id="part1-head"><text fill="#000000" font-family="sans-serif" font-size="14" lengthAdjust="spacing" textLength="31.9102" x="5" y="115.292">User</text><ellipse cx="23.9551" cy="50.7969" fill="#E2E2F0" rx="8" ry="8" style="stroke:#181818;stroke-width:0.5;"/><path d="M23.9551,58.7969 L23.9551,85.7969 M10.9551,66.7969 L36.9551,66.7969 M23.9551,85.7969 L10.9551,100.7969 M23.9551,85.7969 L36.9551,100.7969" fill="none" style="stroke:#181818;stroke-width:0.5;"/></g><g class="participant participant-tail" data-entity-uid="part1" data-qualified-name="User" id="part1-tail"><text fill="#000000" font-family="sans-serif" font-size="14" lengthAdjust="spacing" textLength="31.9102" x="5" y="714.5811">User</text><ellipse cx="23.9551" cy="726.3828" fill="#E2E2F0" rx="8" ry="8" style="stroke:#181818;stroke-width:0.5;"/><path d="M23.9551,734.3828 L23.9551,761.3828 M10.9551,742.3828 L36.9551,742.3828 M23.9551,761.3828 L10.9551,776.3828 M23.9551,761.3828 L36.9551,776.3828" fill="none" style="stroke:#181818;stroke-width:0.5;"/></g><g class="participant participant-head" data-entity-uid="part2" data-qualified-name="Form1" id="part2-head"><rect fill="#E2E2F0" height="30.2969" rx="2.5" ry="2.5" style="stroke:#181818;stroke-width:0.5;" width="143.623" x="138.9777" y="87.2969"/><text fill="#000000" font-family="sans-serif" font-size="14" lengthAdjust="spacing" textLength="129.623" x="145.9777" y="107.292">Form1(WebView2)</text></g><g class="participant participant-tail" data-entity-uid="part2" data-qualified-name="Form1" id="part2-tail"><rect fill="#E2E2F0" height="30.2969" rx="2.5" ry="2.5" style="stroke:#181818;stroke-width:0.5;" width="143.623" x="138.9777" y="701.5859"/><text fill="#000000" font-family="sans-serif" font-size="14" lengthAdjust="spacing" textLength="129.623" x="145.9777" y="721.5811">Form1(WebView2)</text></g><g class="participant participant-head" data-entity-uid="part3" data-qualified-name="TrafficSvc" id="part3-head"><rect fill="#E2E2F0" height="30.2969" rx="2.5" ry="2.5" style="stroke:#181818;stroke-width:0.5;" width="209.7607" x="393.9269" y="87.2969"/><text fill="#000000" font-family="sans-serif" font-size="14" lengthAdjust="spacing" textLength="195.7607" x="400.9269" y="107.292">RequestTrafficByPosService</text></g><g class="participant participant-tail" data-entity-uid="part3" data-qualified-name="TrafficSvc" id="part3-tail"><rect fill="#E2E2F0" height="30.2969" rx="2.5" ry="2.5" style="stroke:#181818;stroke-width:0.5;" width="209.7607" x="393.9269" y="701.5859"/><text fill="#000000" font-family="sans-serif" font-size="14" lengthAdjust="spacing" textLength="195.7607" x="400.9269" y="721.5811">RequestTrafficByPosService</text></g><g class="participant participant-head" data-entity-uid="part4" data-qualified-name="OpenStreetPort" id="part4-head"><rect fill="#E2E2F0" height="30.2969" rx="2.5" ry="2.5" style="stroke:#181818;stroke-width:0.5;" width="169.1689" x="645.4865" y="87.2969"/><text fill="#000000" font-family="sans-serif" font-size="14" lengthAdjust="spacing" textLength="155.1689" x="652.4865" y="107.292">IOpenStreetQueryPort</text></g><g class="participant participant-tail" data-entity-uid="part4" data-qualified-name="OpenStreetPort" id="part4-tail"><rect fill="#E2E2F0" height="30.2969" rx="2.5" ry="2.5" style="stroke:#181818;stroke-width:0.5;" width="169.1689" x="645.4865" y="701.5859"/><text fill="#000000" font-family="sans-serif" font-size="14" lengthAdjust="spacing" textLength="155.1689" x="652.4865" y="721.5811">IOpenStreetQueryPort</text></g><g class="participant participant-head" data-entity-uid="part5" data-qualified-name="OpenStreetAdapter" id="part5-head"><rect fill="#E2E2F0" height="30.2969" rx="2.5" ry="2.5" style="stroke:#181818;stroke-width:0.5;" width="192.5752" x="824.6555" y="87.2969"/><text fill="#000000" font-family="sans-serif" font-size="14" lengthAdjust="spacing" textLength="178.5752" x="831.6555" y="107.292">OpenStreetQueryAdapter</text></g><g class="participant participant-tail" data-entity-uid="part5" data-qualified-name="OpenStreetAdapter" id="part5-tail"><rect fill="#E2E2F0" height="30.2969" rx="2.5" ry="2.5" style="stroke:#181818;stroke-width:0.5;" width="192.5752" x="824.6555" y="701.5859"/><text fill="#000000" font-family="sans-serif" font-size="14" lengthAdjust="spacing" textLength="178.5752" x="831.6555" y="721.5811">OpenStreetQueryAdapter</text></g><g class="participant participant-head" data-entity-uid="part6" data-qualified-name="OpenStreetRepo" id="part6-head"><rect fill="#E2E2F0" height="30.2969" rx="2.5" ry="2.5" style="stroke:#181818;stroke-width:0.5;" width="188.9795" x="1050.1696" y="87.2969"/><text fill="#000000" font-family="sans-serif" font-size="14" lengthAdjust="spacing" textLength="174.9795" x="1057.1696" y="107.292">OpenStreetDbRepository</text></g><g class="participant participant-tail" data-entity-uid="part6" data-qualified-name="OpenStreetRepo" id="part6-tail"><rect fill="#E2E2F0" height="30.2969" rx="2.5" ry="2.5" style="stroke:#181818;stroke-width:0.5;" width="188.9795" x="1050.1696" y="701.5859"/><text fill="#000000" font-family="sans-serif" font-size="14" lengthAdjust="spacing" textLength="174.9795" x="1057.1696" y="721.5811">OpenStreetDbRepository</text></g><g class="participant participant-head" data-entity-uid="part7" data-qualified-name="GeoDb" id="part7-head"><text fill="#000000" font-family="sans-serif" font-size="14" lengthAdjust="spacing" textLength="92.8184" x="1285.4994" y="115.292">Geo Postgres</text><path d="M1316.9086,66.2969 C1316.9086,56.2969 1334.9086,56.2969 1334.9086,56.2969 C1334.9086,56.2969 1352.9086,56.2969 1352.9086,66.2969 L1352.9086,92.2969 C1352.9086,102.2969 1334.9086,102.2969 1334.9086,102.2969 C1334.9086,102.2969 1316.9086,102.2969 1316.9086,92.2969 L1316.9086,66.2969" fill="#E2E2F0" style="stroke:#181818;stroke-width:0.5;"/><path d="M1316.9086,66.2969 C1316.9086,76.2969 1334.9086,76.2969 1334.9086,76.2969 C1334.9086,76.2969 1352.9086,76.2969 1352.9086,66.2969" fill="none" style="stroke:#181818;stroke-width:0.5;"/></g><g class="participant participant-tail" data-entity-uid="part7" data-qualified-name="GeoDb" id="part7-tail"><text fill="#000000" font-family="sans-serif" font-size="14" lengthAdjust="spacing" textLength="92.8184" x="1285.4994" y="714.5811">Geo Postgres</text><path d="M1316.9086,727.8828 C1316.9086,717.8828 1334.9086,717.8828 1334.9086,717.8828 C1334.9086,717.8828 1352.9086,717.8828 1352.9086,727.8828 L1352.9086,753.8828 C1352.9086,763.8828 1334.9086,763.8828 1334.9086,763.8828 C1334.9086,763.8828 1316.9086,763.8828 1316.9086,753.8828 L1316.9086,727.8828" fill="#E2E2F0" style="stroke:#181818;stroke-width:0.5;"/><path d="M1316.9086,727.8828 C1316.9086,737.8828 1334.9086,737.8828 1334.9086,737.8828 C1334.9086,737.8828 1352.9086,737.8828 1352.9086,727.8828" fill="none" style="stroke:#181818;stroke-width:0.5;"/></g><g class="participant participant-head" data-entity-uid="part8" data-qualified-name="TrafficApiPort" id="part8-head"><rect fill="#E2E2F0" height="30.2969" rx="2.5" ry="2.5" style="stroke:#181818;stroke-width:0.5;" width="154.7451" x="1394.3177" y="87.2969"/><text fill="#000000" font-family="sans-serif" font-size="14" lengthAdjust="spacing" textLength="140.7451" x="1401.3177" y="107.292">IPublicTrafficApiPort</text></g><g class="participant participant-tail" data-entity-uid="part8" data-qualified-name="TrafficApiPort" id="part8-tail"><rect fill="#E2E2F0" height="30.2969" rx="2.5" ry="2.5" style="stroke:#181818;stroke-width:0.5;" width="154.7451" x="1394.3177" y="701.5859"/><text fill="#000000" font-family="sans-serif" font-size="14" lengthAdjust="spacing" textLength="140.7451" x="1401.3177" y="721.5811">IPublicTrafficApiPort</text></g><g class="participant participant-head" data-entity-uid="part9" data-qualified-name="TrafficAdapter" id="part9-head"><rect fill="#E2E2F0" height="30.2969" rx="2.5" ry="2.5" style="stroke:#181818;stroke-width:0.5;" width="178.1514" x="1559.0629" y="87.2969"/><text fill="#000000" font-family="sans-serif" font-size="14" lengthAdjust="spacing" textLength="164.1514" x="1566.0629" y="107.292">PublicTrafficApiAdapter</text></g><g class="participant participant-tail" data-entity-uid="part9" data-qualified-name="TrafficAdapter" id="part9-tail"><rect fill="#E2E2F0" height="30.2969" rx="2.5" ry="2.5" style="stroke:#181818;stroke-width:0.5;" width="178.1514" x="1559.0629" y="701.5859"/><text fill="#000000" font-family="sans-serif" font-size="14" lengthAdjust="spacing" textLength="164.1514" x="1566.0629" y="721.5811">PublicTrafficApiAdapter</text></g><g class="participant participant-head" data-entity-uid="part10" data-qualified-name="VdsApi" id="part10-head"><rect fill="#E2E2F0" height="30.2969" rx="2.5" ry="2.5" style="stroke:#181818;stroke-width:0.5;" width="95.8604" x="1747.2142" y="87.2969"/><text fill="#000000" font-family="sans-serif" font-size="14" lengthAdjust="spacing" textLength="81.8604" x="1754.2142" y="107.292">ITS VDS API</text></g><g class="participant participant-tail" data-entity-uid="part10" data-qualified-name="VdsApi" id="part10-tail"><rect fill="#E2E2F0" height="30.2969" rx="2.5" ry="2.5" style="stroke:#181818;stroke-width:0.5;" width="95.8604" x="1747.2142" y="701.5859"/><text fill="#000000" font-family="sans-serif" font-size="14" lengthAdjust="spacing" textLength="81.8604" x="1754.2142" y="721.5811">ITS VDS API</text></g><g class="participant participant-head" data-entity-uid="part11" data-qualified-name="VdsRepo" id="part11-head"><rect fill="#E2E2F0" height="30.2969" rx="2.5" ry="2.5" style="stroke:#181818;stroke-width:0.5;" width="114.8301" x="1887.1014" y="87.2969"/><text fill="#000000" font-family="sans-serif" font-size="14" lengthAdjust="spacing" textLength="100.8301" x="1894.1014" y="107.292">VdsRepository</text></g><g class="participant participant-tail" data-entity-uid="part11" data-qualified-name="VdsRepo" id="part11-tail"><rect fill="#E2E2F0" height="30.2969" rx="2.5" ry="2.5" style="stroke:#181818;stroke-width:0.5;" width="114.8301" x="1887.1014" y="701.5859"/><text fill="#000000" font-family="sans-serif" font-size="14" lengthAdjust="spacing" textLength="100.8301" x="1894.1014" y="721.5811">VdsRepository</text></g><g class="message" data-entity-1="part1" data-entity-2="part2" id="msg1"><polygon fill="#181818" points="198.7892,145.7266,208.7892,149.7266,198.7892,153.7266,202.7892,149.7266" style="stroke:#181818;stroke-width:1;"/><line style="stroke:#181818;stroke-width:1;" x1="23.9551" x2="204.7892" y1="149.7266" y2="149.7266"/><text fill="#000000" font-family="sans-serif" font-size="13" lengthAdjust="spacing" textLength="162.8342" x="30.9551" y="144.6606">&#51648;&#46020; &#53364;&#47533;(lat, lon, bounds)</text></g><g class="message" data-entity-1="part2" data-entity-2="part3" id="msg2"><polygon fill="#181818" points="486.8073,174.8594,496.8073,178.8594,486.8073,182.8594,490.8073,178.8594" style="stroke:#181818;stroke-width:1;"/><line style="stroke:#181818;stroke-width:1;" x1="210.7892" x2="492.8073" y1="178.8594" y2="178.8594"/><text fill="#000000" font-family="sans-serif" font-size="13" lengthAdjust="spacing" textLength="220.5684" x="217.7892" y="173.7935">GetAdjacentHighWays(command)</text></g><g class="message" data-entity-1="part3" data-entity-2="part4" id="msg3"><polygon fill="#181818" points="718.071,203.9922,728.071,207.9922,718.071,211.9922,722.071,207.9922" style="stroke:#181818;stroke-width:1;"/><line style="stroke:#181818;stroke-width:1;" x1="498.8073" x2="724.071" y1="207.9922" y2="207.9922"/><text fill="#000000" font-family="sans-serif" font-size="13" lengthAdjust="spacing" textLength="207.2637" x="505.8073" y="202.9263">GetAdjacentHighWays(location)</text></g><g class="message" data-entity-1="part4" data-entity-2="part5" id="msg4"><polygon fill="#181818" points="908.9431,217.9922,918.9431,221.9922,908.9431,225.9922,912.9431,221.9922" style="stroke:#181818;stroke-width:1;"/><line style="stroke:#181818;stroke-width:1;" x1="730.071" x2="914.9431" y1="221.9922" y2="221.9922"/></g><g class="message" data-entity-1="part5" data-entity-2="part6" id="msg5"><polygon fill="#181818" points="1132.6594,247.125,1142.6594,251.125,1132.6594,255.125,1136.6594,251.125" style="stroke:#181818;stroke-width:1;"/><line style="stroke:#181818;stroke-width:1;" x1="920.9431" x2="1138.6594" y1="251.125" y2="251.125"/><text fill="#000000" font-family="sans-serif" font-size="13" lengthAdjust="spacing" textLength="199.7163" x="927.9431" y="246.0591">findAdjacentHighways(lat, lon)</text></g><g class="message" data-entity-1="part6" data-entity-2="part7" id="msg6"><polygon fill="#181818" points="1322.9086,276.2578,1332.9086,280.2578,1322.9086,284.2578,1326.9086,280.2578" style="stroke:#181818;stroke-width:1;"/><line style="stroke:#181818;stroke-width:1;" x1="1144.6594" x2="1328.9086" y1="280.2578" y2="280.2578"/><text fill="#000000" font-family="sans-serif" font-size="13" lengthAdjust="spacing" textLength="166.2492" x="1151.6594" y="275.1919">&#44277;&#44036; &#53244;&#47532;(motorway/trunk)</text></g><g class="message" data-entity-1="part7" data-entity-2="part6" id="msg7"><polygon fill="#181818" points="1155.6594,305.3906,1145.6594,309.3906,1155.6594,313.3906,1151.6594,309.3906" style="stroke:#181818;stroke-width:1;"/><line style="stroke:#181818;stroke-width:1;stroke-dasharray:2,2;" x1="1149.6594" x2="1333.9086" y1="309.3906" y2="309.3906"/><text fill="#000000" font-family="sans-serif" font-size="13" lengthAdjust="spacing" textLength="103.9447" x="1161.6594" y="304.3247">&#51064;&#51217; &#44256;&#49549;&#46020;&#47196; &#47785;&#47197;</text></g><g class="message" data-entity-1="part6" data-entity-2="part5" id="msg8"><polygon fill="#181818" points="931.9431,319.3906,921.9431,323.3906,931.9431,327.3906,927.9431,323.3906" style="stroke:#181818;stroke-width:1;"/><line style="stroke:#181818;stroke-width:1;stroke-dasharray:2,2;" x1="925.9431" x2="1143.6594" y1="323.3906" y2="323.3906"/></g><g class="message" data-entity-1="part5" data-entity-2="part4" id="msg9"><polygon fill="#181818" points="741.071,333.3906,731.071,337.3906,741.071,341.3906,737.071,337.3906" style="stroke:#181818;stroke-width:1;"/><line style="stroke:#181818;stroke-width:1;stroke-dasharray:2,2;" x1="735.071" x2="919.9431" y1="337.3906" y2="337.3906"/></g><g class="message" data-entity-1="part4" data-entity-2="part3" id="msg10"><polygon fill="#181818" points="509.8073,347.3906,499.8073,351.3906,509.8073,355.3906,505.8073,351.3906" style="stroke:#181818;stroke-width:1;"/><line style="stroke:#181818;stroke-width:1;stroke-dasharray:2,2;" x1="503.8073" x2="729.071" y1="351.3906" y2="351.3906"/></g><path d="M383.9269,366.3906 L460.551,366.3906 L460.551,373.5234 L450.551,383.5234 L383.9269,383.5234 L383.9269,366.3906" fill="#EEEEEE" style="stroke:#000000;stroke-width:1.5;"/><rect fill="none" height="247.9297" style="stroke:#000000;stroke-width:1.5;" width="1628.0046" x="383.9269" y="366.3906"/><text fill="#000000" font-family="sans-serif" font-size="13" font-weight="bold" lengthAdjust="spacing" textLength="31.624" x="398.9269" y="379.4575">loop</text><text fill="#000000" font-family="sans-serif" font-size="11" font-weight="bold" lengthAdjust="spacing" textLength="114.1197" x="475.551" y="378.6011">[&#44256;&#49549;&#46020;&#47196;&#48324; VDS &#51312;&#54924;]</text><g class="message" data-entity-1="part3" data-entity-2="part8" id="msg11"><polygon fill="#181818" points="1459.6903,400.6563,1469.6903,404.6563,1459.6903,408.6563,1463.6903,404.6563" style="stroke:#181818;stroke-width:1;"/><line style="stroke:#181818;stroke-width:1;" x1="498.8073" x2="1465.6903" y1="404.6563" y2="404.6563"/><text fill="#000000" font-family="sans-serif" font-size="13" lengthAdjust="spacing" textLength="243.5151" x="505.8073" y="399.5903">GetTrafficResult(highwayNo, bounds)</text></g><g class="message" data-entity-1="part8" data-entity-2="part9" id="msg12"><polygon fill="#181818" points="1636.1385,414.6563,1646.1385,418.6563,1636.1385,422.6563,1640.1385,418.6563" style="stroke:#181818;stroke-width:1;"/><line style="stroke:#181818;stroke-width:1;" x1="1471.6903" x2="1642.1385" y1="418.6563" y2="418.6563"/></g><g class="message" data-entity-1="part9" data-entity-2="part10" id="msg13"><polygon fill="#181818" points="1783.1444,443.7891,1793.1444,447.7891,1783.1444,451.7891,1787.1444,447.7891" style="stroke:#181818;stroke-width:1;"/><line style="stroke:#181818;stroke-width:1;" x1="1648.1385" x2="1789.1444" y1="447.7891" y2="447.7891"/><text fill="#000000" font-family="sans-serif" font-size="13" lengthAdjust="spacing" textLength="100.0728" x="1655.1385" y="442.7231">vdsInfo API &#54840;&#52636;</text></g><g class="message" data-entity-1="part10" data-entity-2="part9" id="msg14"><polygon fill="#181818" points="1659.1385,472.9219,1649.1385,476.9219,1659.1385,480.9219,1655.1385,476.9219" style="stroke:#181818;stroke-width:1;"/><line style="stroke:#181818;stroke-width:1;stroke-dasharray:2,2;" x1="1653.1385" x2="1794.1444" y1="476.9219" y2="476.9219"/><text fill="#000000" font-family="sans-serif" font-size="13" lengthAdjust="spacing" textLength="92.4798" x="1665.1385" y="471.856">&#49549;&#46020;/&#51216;&#50976;&#50984;/&#48380;&#47464;</text></g><g class="message" data-entity-1="part9" data-entity-2="part11" id="msg15"><polygon fill="#181818" points="1932.5165,502.0547,1942.5165,506.0547,1932.5165,510.0547,1936.5165,506.0547" style="stroke:#181818;stroke-width:1;"/><line style="stroke:#181818;stroke-width:1;" x1="1648.1385" x2="1938.5165" y1="506.0547" y2="506.0547"/><text fill="#000000" font-family="sans-serif" font-size="13" lengthAdjust="spacing" textLength="272.3779" x="1655.1385" y="500.9888">findVdsIdIn + findResponsibilitySegments</text></g><g class="message" data-entity-1="part11" data-entity-2="part7" id="msg16"><polygon fill="#181818" points="1345.9086,531.1875,1335.9086,535.1875,1345.9086,539.1875,1341.9086,535.1875" style="stroke:#181818;stroke-width:1;"/><line style="stroke:#181818;stroke-width:1;" x1="1339.9086" x2="1943.5165" y1="535.1875" y2="535.1875"/><text fill="#000000" font-family="sans-serif" font-size="13" lengthAdjust="spacing" textLength="111.3463" x="1351.9086" y="530.1216">vds / vds_loc &#51312;&#54924;</text></g><g class="message" data-entity-1="part7" data-entity-2="part11" id="msg17"><polygon fill="#181818" points="1932.5165,560.3203,1942.5165,564.3203,1932.5165,568.3203,1936.5165,564.3203" style="stroke:#181818;stroke-width:1;"/><line style="stroke:#181818;stroke-width:1;stroke-dasharray:2,2;" x1="1334.9086" x2="1938.5165" y1="564.3203" y2="564.3203"/><text fill="#000000" font-family="sans-serif" font-size="13" lengthAdjust="spacing" textLength="52.2199" x="1341.9086" y="559.2544">&#51340;&#54364;/&#44396;&#44036;</text></g><g class="message" data-entity-1="part11" data-entity-2="part9" id="msg18"><polygon fill="#181818" points="1659.1385,574.3203,1649.1385,578.3203,1659.1385,582.3203,1655.1385,578.3203" style="stroke:#181818;stroke-width:1;"/><line style="stroke:#181818;stroke-width:1;stroke-dasharray:2,2;" x1="1653.1385" x2="1943.5165" y1="578.3203" y2="578.3203"/></g><g class="message" data-entity-1="part9" data-entity-2="part8" id="msg19"><polygon fill="#181818" points="1482.6903,588.3203,1472.6903,592.3203,1482.6903,596.3203,1478.6903,592.3203" style="stroke:#181818;stroke-width:1;"/><line style="stroke:#181818;stroke-width:1;stroke-dasharray:2,2;" x1="1476.6903" x2="1647.1385" y1="592.3203" y2="592.3203"/></g><g class="message" data-entity-1="part8" data-entity-2="part3" id="msg20"><polygon fill="#181818" points="509.8073,602.3203,499.8073,606.3203,509.8073,610.3203,505.8073,606.3203" style="stroke:#181818;stroke-width:1;"/><line style="stroke:#181818;stroke-width:1;stroke-dasharray:2,2;" x1="503.8073" x2="1470.6903" y1="606.3203" y2="606.3203"/></g><g class="message" data-entity-1="part3" data-entity-2="part2" id="msg21"><polygon fill="#181818" points="221.7892,638.4531,211.7892,642.4531,221.7892,646.4531,217.7892,642.4531" style="stroke:#181818;stroke-width:1;"/><line style="stroke:#181818;stroke-width:1;stroke-dasharray:2,2;" x1="215.7892" x2="497.8073" y1="642.4531" y2="642.4531"/><text fill="#000000" font-family="sans-serif" font-size="13" lengthAdjust="spacing" textLength="264.0181" x="227.7892" y="637.3872">Dictionary&lt;int, List&lt;VdsTrafficResult&gt;&gt;</text></g><g class="message" data-entity-1="part2" data-entity-2="part2" id="msg22"><line style="stroke:#181818;stroke-width:1;" x1="210.7892" x2="252.7892" y1="671.5859" y2="671.5859"/><line style="stroke:#181818;stroke-width:1;" x1="252.7892" x2="252.7892" y1="671.5859" y2="684.5859"/><line style="stroke:#181818;stroke-width:1;" x1="211.7892" x2="252.7892" y1="684.5859" y2="684.5859"/><polygon fill="#181818" points="221.7892,680.5859,211.7892,684.5859,221.7892,688.5859,217.7892,684.5859" style="stroke:#181818;stroke-width:1;"/><text fill="#000000" font-family="sans-serif" font-size="13" lengthAdjust="spacing" textLength="144.4522" x="217.7892" y="666.52">&#52852;&#46300;/&#47560;&#52964;/&#49464;&#44536;&#47676;&#53944; &#47116;&#45908;&#47553;</text></g><?plantuml-src ZLJTQXD16BsVf_ZeLO8DsteffL0DhG7HclJdKcPt9-tePcRTcRJapa8GaHOjUY6IGYhQLgbGQAiH2xvFPlCEplwqkxDfeJU1FNlEV7lE-IQIIe_0yeFAKds-CZKr3LKiCSnxV1CXx4WUmB8W0V9n8Ab3VSmaJCppe3LTMYNs2YMRTyiJW0N4c4chavTj8kHIW9jDwjplB7BH8C46TKYiIF76XcFAQazymXeo84G-RPD0om8P2p8yWanHGJFdOb-Ie21BqPkKLRjEV2weDjqfAACNoDN9s5WGc5WW7BGRkHOG4JCrKBKBDXRRjaUTrEMSJwzyc92fAehoHYxHwrpKbXgmKct0t68jvgwuGgjDZiOA1bC4eQXZgCmcBS8z20zVgNTT66sTgOEV9G_BIV0ucmIRjvahoYZXQK5MebOjH14_nmvXyY5TMr_57L5oUAk5cLj6A4VLGhFC6yGUTx2ad9LHWMuSS1d866BI8gTwJfCoDpzeCnwKEimFYldwXBXRBHoUdWzFkX3-kr07nwKMrobghIM3DdjHHWchSjt4S6yGzdUrlX--tj6nglqUg1_VrVxUsBJR-XeBS2mWenk4FCvzumlKQJTUc73_PFHv6m6OzPWxcjIJOdKYsfuihIVPFURPLa1HbZiezG858A8akwfdRBYYnfeyMc8OVHg4ltgQdxwjZ9qL9HkxiSB--x3N3tj7bZgzKD-ERfgIsm3zL7Dh3Ex4JzgIpvcWDlMex3J8MailXqY65zT0VoHOqUyplPrPV5d_sQ3mo_PejsSDpu_rukHFkqqkOoLS4wzPCc6kUSjo5xfAdUWYuQ0pGvdUzKTKo1dzFKQdixFPnRxw9_XpfZxqB7Nu9lpxrGgxW-7lWJgw6BqTWEflgvsFwd3hFm00?></g></svg>