<?plantuml 1.2026.1?><svg xmlns="http://www.w3.org/2000/svg" xmlns:xlink="http://www.w3.org/1999/xlink" contentStyleType="text/css" data-diagram-type="SEQUENCE" height="663px" preserveAspectRatio="none" style="width:621px;height:663px;background:#FFFFFF;" version="1.1" viewBox="0 0 621 663" width="621px" zoomAndPan="magnify"><title>UC-TRF-001 Logic Flow</title><defs/><g><text fill="#000000" font-family="sans-serif" font-size="14" font-weight="bold" lengthAdjust="spacing" textLength="180.7012" x="221.492" y="27.9951">UC-TRF-001 Logic Flow</text><rect fill="none" height="359.1328" style="stroke:#000000;stroke-width:1.5;" width="604.6851" x="10" y="206.8594"/><g class="participant-lifeline" data-entity-uid="part1" data-qualified-name="User" id="part1-lifeline"><g><title>User</title><rect fill="#000000" fill-opacity="0.00000" height="464.3984" width="8" x="34.9551" y="118.5938"/><line style="stroke:#181818;stroke-width:0.5;stroke-dasharray:5,5;" x1="38" x2="38" y1="118.5938" y2="582.9922"/></g></g><g class="participant-lifeline" data-entity-uid="part2" data-qualified-name="Form1" id="part2-lifeline"><g><title>Form1</title><rect fill="#000000" fill-opacity="0.00000" height="464.3984" width="8" x="190.9521" y="118.5938"/><line style="stroke:#181818;stroke-width:0.5;stroke-dasharray:5,5;" x1="194.4926" x2="194.4926" y1="118.5938" y2="582.9922"/></g></g><g class="participant-lifeline" data-entity-uid="part3" data-qualified-name="TrafficSvc" id="part3-lifeline"><g><title>TrafficSvc</title><rect fill="#000000" fill-opacity="0.00000" height="464.3984" width="8" x="435.5205" y="118.5938"/><line style="stroke:#181818;stroke-width:0.5;stroke-dasharray:5,5;" x1="438.9204" x2="438.9204" y1="118.5938" y2="582.9922"/></g></g><g class="participant participant-head" data-entity-uid="part1" data-qualified-name="User" id="part1-head"><text fill="#000000" font-family="sans-serif" font-size="14" lengthAdjust="spacing" textLength="31.9102" x="20" y="115.292">User</text><ellipse cx="38.9551" cy="50.7969" fill="#E2E2F0" rx="8" ry="8" style="stroke:#181818;stroke-width:0.5;"/><path d="M38.9551,58.7969 L38.9551,85.7969 M25.9551,66.7969 L51.9551,66.7969 M38.9551,85.7969 L25.9551,100.7969 M38.9551,85.7969 L51.9551,100.7969" fill="none" style="stroke:#181818;stroke-width:0.5;"/></g><g class="participant participant-tail" data-entity-uid="part1" data-qualified-name="User" id="part1-tail"><text fill="#000000" font-family="sans-serif" font-size="14" lengthAdjust="spacing" textLength="31.9102" x="20" y="594.9873">User</text><ellipse cx="38.9551" cy="606.7891" fill="#E2E2F0" rx="8" ry="8" style="stroke:#181818;stroke-width:0.5;"/><path d="M38.9551,614.7891 L38.9551,641.7891 M25.9551,622.7891 L51.9551,622.7891 M38.9551,641.7891 L25.9551,656.7891 M38.9551,641.7891 L51.9551,656.7891" fill="none" style="stroke:#181818;stroke-width:0.5;"/></g><g class="participant participant-head" data-entity-uid="part2" data-qualified-name="Form1" id="part2-head"><rect fill="#E2E2F0" height="30.2969" rx="2.5" ry="2.5" style="stroke:#181818;stroke-width:0.5;" width="58.9189" x="165.4926" y="87.2969"/><text fill="#000000" font-family="sans-serif" font-size="14" lengthAdjust="spacing" textLength="44.9189" x="172.4926" y="107.292">Form1</text></g><g class="participant participant-tail" data-entity-uid="part2" data-qualified-name="Form1" id="part2-tail"><rect fill="#E2E2F0" height="30.2969" rx="2.5" ry="2.5" style="stroke:#181818;stroke-width:0.5;" width="58.9189" x="165.4926" y="581.9922"/><text fill="#000000" font-family="sans-serif" font-size="14" lengthAdjust="spacing" textLength="44.9189" x="172.4926" y="601.9873">Form1</text></g><g class="participant participant-head" data-entity-uid="part3" data-qualified-name="TrafficSvc" id="part3-head"><rect fill="#E2E2F0" height="30.2969" rx="2.5" ry="2.5" style="stroke:#181818;stroke-width:0.5;" width="83.2002" x="397.9204" y="87.2969"/><text fill="#000000" font-family="sans-serif" font-size="14" lengthAdjust="spacing" textLength="69.2002" x="404.9204" y="107.292">TrafficSvc</text></g><g class="participant participant-tail" data-entity-uid="part3" data-qualified-name="TrafficSvc" id="part3-tail"><rect fill="#E2E2F0" height="30.2969" rx="2.5" ry="2.5" style="stroke:#181818;stroke-width:0.5;" width="83.2002" x="397.9204" y="581.9922"/><text fill="#000000" font-family="sans-serif" font-size="14" lengthAdjust="spacing" textLength="69.2002" x="404.9204" y="601.9873">TrafficSvc</text></g><g class="message" data-entity-1="part1" data-entity-2="part2" id="msg1"><polygon fill="#181818" points="182.9521,145.7266,192.9521,149.7266,182.9521,153.7266,186.9521,149.7266" style="stroke:#181818;stroke-width:1;"/><line style="stroke:#181818;stroke-width:1;" x1="38.9551" x2="188.9521" y1="149.7266" y2="149.7266"/><text fill="#000000" font-family="sans-serif" font-size="13" lengthAdjust="spacing" textLength="51.9724" x="45.9551" y="144.6606">&#51340;&#54364; &#53364;&#47533;</text></g><g class="message" data-entity-1="part2" data-entity-2="part2" id="msg2"><line style="stroke:#181818;stroke-width:1;" x1="194.9521" x2="236.9521" y1="178.8594" y2="178.8594"/><line style="stroke:#181818;stroke-width:1;" x1="236.9521" x2="236.9521" y1="178.8594" y2="191.8594"/><line style="stroke:#181818;stroke-width:1;" x1="195.9521" x2="236.9521" y1="191.8594" y2="191.8594"/><polygon fill="#181818" points="205.9521,187.8594,195.9521,191.8594,205.9521,195.8594,201.9521,191.8594" style="stroke:#181818;stroke-width:1;"/><text fill="#000000" font-family="sans-serif" font-size="13" lengthAdjust="spacing" textLength="212.4348" x="201.9521" y="173.7935">&#47784;&#46300; &#54869;&#51064;(NearbyHighwayLookup)</text></g><path d="M10,206.8594 L74.4429,206.8594 L74.4429,213.9922 L64.4429,223.9922 L10,223.9922 L10,206.8594" fill="#EEEEEE" style="stroke:#000000;stroke-width:1.5;"/><rect fill="none" height="359.1328" style="stroke:#000000;stroke-width:1.5;" width="604.6851" x="10" y="206.8594"/><text fill="#000000" font-family="sans-serif" font-size="13" font-weight="bold" lengthAdjust="spacing" textLength="19.4429" x="25" y="219.9263">alt</text><text fill="#000000" font-family="sans-serif" font-size="11" font-weight="bold" lengthAdjust="spacing" textLength="54.364" x="89.4429" y="219.0698">[&#47784;&#46300; &#50500;&#45784;]</text><g class="message" data-entity-1="part2" data-entity-2="part1" id="msg3"><polygon fill="#181818" points="49.9551,241.125,39.9551,245.125,49.9551,249.125,45.9551,245.125" style="stroke:#181818;stroke-width:1;"/><line style="stroke:#181818;stroke-width:1;stroke-dasharray:2,2;" x1="43.9551" x2="193.9521" y1="245.125" y2="245.125"/><text fill="#000000" font-family="sans-serif" font-size="13" lengthAdjust="spacing" textLength="131.997" x="55.9551" y="240.0591">&#51312;&#54924; &#48708;&#54876;&#49457; &#49345;&#53468; &#47700;&#49884;&#51648;</text></g><line style="stroke:#000000;stroke-width:1;stroke-dasharray:2,2;" x1="10" x2="614.6851" y1="254.125" y2="254.125"/><text fill="#000000" font-family="sans-serif" font-size="11" font-weight="bold" lengthAdjust="spacing" textLength="54.364" x="15" y="264.3354">[&#47784;&#46300; &#51221;&#49345;]</text><g class="message" data-entity-1="part2" data-entity-2="part2" id="msg4"><line style="stroke:#181818;stroke-width:1;" x1="194.9521" x2="236.9521" y1="289.0625" y2="289.0625"/><line style="stroke:#181818;stroke-width:1;" x1="236.9521" x2="236.9521" y1="289.0625" y2="302.0625"/><line style="stroke:#181818;stroke-width:1;" x1="195.9521" x2="236.9521" y1="302.0625" y2="302.0625"/><polygon fill="#181818" points="205.9521,298.0625,195.9521,302.0625,205.9521,306.0625,201.9521,302.0625" style="stroke:#181818;stroke-width:1;"/><text fill="#000000" font-family="sans-serif" font-size="13" lengthAdjust="spacing" textLength="164.351" x="201.9521" y="283.9966">&#50836;&#52397; &#48260;&#51204; &#51613;&#44032;, &#47196;&#46377; &#49345;&#53468; ON</text></g><g class="message" data-entity-1="part2" data-entity-2="part3" id="msg5"><polygon fill="#181818" points="427.5205,327.1953,437.5205,331.1953,427.5205,335.1953,431.5205,331.1953" style="stroke:#181818;stroke-width:1;"/><line style="stroke:#181818;stroke-width:1;" x1="194.9521" x2="433.5205" y1="331.1953" y2="331.1953"/><text fill="#000000" font-family="sans-serif" font-size="13" lengthAdjust="spacing" textLength="220.5684" x="201.9521" y="326.1294">GetAdjacentHighWays(command)</text></g><g class="message" data-entity-1="part3" data-entity-2="part3" id="msg6"><line style="stroke:#181818;stroke-width:1;" x1="439.5205" x2="481.5205" y1="360.3281" y2="360.3281"/><line style="stroke:#181818;stroke-width:1;" x1="481.5205" x2="481.5205" y1="360.3281" y2="373.3281"/><line style="stroke:#181818;stroke-width:1;" x1="440.5205" x2="481.5205" y1="373.3281" y2="373.3281"/><polygon fill="#181818" points="450.5205,369.3281,440.5205,373.3281,450.5205,377.3281,446.5205,373.3281" style="stroke:#181818;stroke-width:1;"/><text fill="#000000" font-family="sans-serif" font-size="13" lengthAdjust="spacing" textLength="91.9847" x="446.5205" y="355.2622">&#51340;&#54364; &#50976;&#54952;&#49457; &#54869;&#51064;</text></g><g class="message" data-entity-1="part3" data-entity-2="part3" id="msg7"><line style="stroke:#181818;stroke-width:1;" x1="439.5205" x2="481.5205" y1="402.4609" y2="402.4609"/><line style="stroke:#181818;stroke-width:1;" x1="481.5205" x2="481.5205" y1="402.4609" y2="415.4609"/><line style="stroke:#181818;stroke-width:1;" x1="440.5205" x2="481.5205" y1="415.4609" y2="415.4609"/><polygon fill="#181818" points="450.5205,411.4609,440.5205,415.4609,450.5205,419.4609,446.5205,415.4609" style="stroke:#181818;stroke-width:1;"/><text fill="#000000" font-family="sans-serif" font-size="13" lengthAdjust="spacing" textLength="156.1646" x="446.5205" y="397.395">&#44256;&#49549;&#46020;&#47196;&#48324; &#44208;&#44284; &#49688;&#51665;/&#54596;&#53552;&#47553;</text></g><g class="message" data-entity-1="part3" data-entity-2="part2" id="msg8"><polygon fill="#181818" points="205.9521,440.5938,195.9521,444.5938,205.9521,448.5938,201.9521,444.5938" style="stroke:#181818;stroke-width:1;"/><line style="stroke:#181818;stroke-width:1;stroke-dasharray:2,2;" x1="199.9521" x2="438.5205" y1="444.5938" y2="444.5938"/><text fill="#000000" font-family="sans-serif" font-size="13" lengthAdjust="spacing" textLength="51.9724" x="211.9521" y="439.5278">&#53685;&#54633; &#44208;&#44284;</text></g><g class="message" data-entity-1="part2" data-entity-2="part2" id="msg9"><line style="stroke:#181818;stroke-width:1;" x1="194.9521" x2="236.9521" y1="473.7266" y2="473.7266"/><line style="stroke:#181818;stroke-width:1;" x1="236.9521" x2="236.9521" y1="473.7266" y2="486.7266"/><line style="stroke:#181818;stroke-width:1;" x1="195.9521" x2="236.9521" y1="486.7266" y2="486.7266"/><polygon fill="#181818" points="205.9521,482.7266,195.9521,486.7266,205.9521,490.7266,201.9521,486.7266" style="stroke:#181818;stroke-width:1;"/><text fill="#000000" font-family="sans-serif" font-size="13" lengthAdjust="spacing" textLength="80.0247" x="201.9521" y="468.6606">&#52572;&#49888; &#44208;&#44284; &#52880;&#49884;</text></g><g class="message" data-entity-1="part2" data-entity-2="part2" id="msg10"><line style="stroke:#181818;stroke-width:1;" x1="194.9521" x2="236.9521" y1="515.8594" y2="515.8594"/><line style="stroke:#181818;stroke-width:1;" x1="236.9521" x2="236.9521" y1="515.8594" y2="528.8594"/><line style="stroke:#181818;stroke-width:1;" x1="195.9521" x2="236.9521" y1="528.8594" y2="528.8594"/><polygon fill="#181818" points="205.9521,524.8594,195.9521,528.8594,205.9521,532.8594,201.9521,528.8594" style="stroke:#181818;stroke-width:1;"/><text fill="#000000" font-family="sans-serif" font-size="13" lengthAdjust="spacing" textLength="123.1019" x="201.9521" y="510.7935">&#50864;&#52769; &#54056;&#45328; + &#51648;&#46020; &#44081;&#49888;</text></g><g class="message" data-entity-1="part2" data-entity-2="part1" id="msg11"><polygon fill="#181818" points="49.9551,553.9922,39.9551,557.9922,49.9551,561.9922,45.9551,557.9922" style="stroke:#181818;stroke-width:1;"/><line style="stroke:#181818;stroke-width:1;stroke-dasharray:2,2;" x1="43.9551" x2="193.9521" y1="557.9922" y2="557.9922"/><text fill="#000000" font-family="sans-serif" font-size="13" lengthAdjust="spacing" textLength="120.037" x="55.9551" y="552.9263">&#51312;&#54924; &#50756;&#47308; &#49345;&#53468; &#47700;&#49884;&#51648;</text></g><?plantuml-src VP7VIW9H4CRlprFCfL9ItdOHH61TX44bNP_MpRRKbNKhl5CwHA1HaWigAwm5gK6mQe95JxHdpZjqDl-qXNGxCxzlvll6rCoq2edDoC5UBBAw6eKTFQKf44lhbuHGnTGDIEHLW-IeOMgAbgDP4sAwaOd-gXmOzFXOK_Ol54BySOYiJwPW3V2n8gesYD8RVtubasgWpL-w_46s6nQsng6uIesZmhQMEhcaXHrTFplFXGbDcxCnj1WlrmbCyOWK-judrxHTqQm0VsUYOIFh0rwLn9KDl5V3iesT8b7JUNMkurYo_wCJEBTPmy4hy053Xm4-jpotk0oyRVDQRwQv6m-IF-OblgMQ6ybJggXPqtTnI0lvaA9dCZIR34ieCFkNdEQ4jYEQNT_099B_8M_euFKjlsF-WKC6ti3rXf-0DtNiL5U4nGHpUQVqHoHWLroFXDMRSWlp6DbOTkR27_SopSMvkJXkWwXqERk79P29oxF0S_iI_-TXs63ygRBWMzda5m00?></g></svg>