<?plantuml 1.2026.1?><svg xmlns="http://www.w3.org/2000/svg" xmlns:xlink="http://www.w3.org/1999/xlink" contentStyleType="text/css" data-diagram-type="SEQUENCE" height="436px" preserveAspectRatio="none" style="width:366px;height:436px;background:#FFFFFF;" version="1.1" viewBox="0 0 366 436" width="366px" zoomAndPan="magnify"><title>UC-MODE-001 Logic Flow</title><defs/><g><text fill="#000000" font-family="sans-serif" font-size="14" font-weight="bold" lengthAdjust="spacing" textLength="197.8252" x="83.7749" y="27.9951">UC-MODE-001 Logic Flow</text><rect fill="none" height="90.2031" style="stroke:#000000;stroke-width:1.5;" width="237.6372" x="10" y="248.9922"/><g class="participant-lifeline" data-entity-uid="part1" data-qualified-name="User" id="part1-lifeline"><g><title>User</title><rect fill="#000000" fill-opacity="0.00000" height="237.6016" width="8" x="34.9551" y="118.5938"/><line style="stroke:#181818;stroke-width:0.5;stroke-dasharray:5,5;" x1="38" x2="38" y1="118.5938" y2="356.1953"/></g></g><g class="participant-lifeline" data-entity-uid="part2" data-qualified-name="Form1" id="part2-lifeline"><g><title>Form1</title><rect fill="#000000" fill-opacity="0.00000" height="237.6016" width="8" x="178.9921" y="118.5938"/><line style="stroke:#181818;stroke-width:0.5;stroke-dasharray:5,5;" x1="182.5326" x2="182.5326" y1="118.5938" y2="356.1953"/></g></g><g class="participant participant-head" data-entity-uid="part1" data-qualified-name="User" id="part1-head"><text fill="#000000" font-family="sans-serif" font-size="14" lengthAdjust="spacing" textLength="31.9102" x="20" y="115.292">User</text><ellipse cx="38.9551" cy="50.7969" fill="#E2E2F0" rx="8" ry="8" style="stroke:#181818;stroke-width:0.5;"/><path d="M38.9551,58.7969 L38.9551,85.7969 M25.9551,66.7969 L51.9551,66.7969 M38.9551,85.7969 L25.9551,100.7969 M38.9551,85.7969 L51.9551,100.7969" fill="none" style="stroke:#181818;stroke-width:0.5;"/></g><g class="participant participant-tail" data-entity-uid="part1" data-qualified-name="User" id="part1-tail"><text fill="#000000" font-family="sans-serif" font-size="14" lengthAdjust="spacing" textLength="31.9102" x="20" y="368.1904">User</text><ellipse cx="38.9551" cy="379.9922" fill="#E2E2F0" rx="8" ry="8" style="stroke:#181818;stroke-width:0.5;"/><path d="M38.9551,387.9922 L38.9551,414.9922 M25.9551,395.9922 L51.9551,395.9922 M38.9551,414.9922 L25.9551,429.9922 M38.9551,414.9922 L51.9551,429.9922" fill="none" style="stroke:#181818;stroke-width:0.5;"/></g><g class="participant participant-head" data-entity-uid="part2" data-qualified-name="Form1" id="part2-head"><rect fill="#E2E2F0" height="30.2969" rx="2.5" ry="2.5" style="stroke:#181818;stroke-width:0.5;" width="58.9189" x="153.5326" y="87.2969"/><text fill="#000000" font-family="sans-serif" font-size="14" lengthAdjust="spacing" textLength="44.9189" x="160.5326" y="107.292">Form1</text></g><g class="participant participant-tail" data-entity-uid="part2" data-qualified-name="Form1" id="part2-tail"><rect fill="#E2E2F0" height="30.2969" rx="2.5" ry="2.5" style="stroke:#181818;stroke-width:0.5;" width="58.9189" x="153.5326" y="355.1953"/><text fill="#000000" font-family="sans-serif" font-size="14" lengthAdjust="spacing" textLength="44.9189" x="160.5326" y="375.1904">Form1</text></g><g class="message" data-entity-1="part1" data-entity-2="part2" id="msg1"><polygon fill="#181818" points="170.9921,145.7266,180.9921,149.7266,170.9921,153.7266,174.9921,149.7266" style="stroke:#181818;stroke-width:1;"/><line style="stroke:#181818;stroke-width:1;" x1="38.9551" x2="176.9921" y1="149.7266" y2="149.7266"/><text fill="#000000" font-family="sans-serif" font-size="13" lengthAdjust="spacing" textLength="51.9724" x="45.9551" y="144.6606">&#47784;&#46300; &#49440;&#53469;</text></g><g class="message" data-entity-1="part2" data-entity-2="part2" id="msg2"><line style="stroke:#181818;stroke-width:1;" x1="182.9921" x2="224.9921" y1="178.8594" y2="178.8594"/><line style="stroke:#181818;stroke-width:1;" x1="224.9921" x2="224.9921" y1="178.8594" y2="191.8594"/><line style="stroke:#181818;stroke-width:1;" x1="183.9921" x2="224.9921" y1="191.8594" y2="191.8594"/><polygon fill="#181818" points="193.9921,187.8594,183.9921,191.8594,193.9921,195.8594,189.9921,191.8594" style="stroke:#181818;stroke-width:1;"/><text fill="#000000" font-family="sans-serif" font-size="13" lengthAdjust="spacing" textLength="169.3829" x="189.9921" y="173.7935">_mapInteractionMode &#44081;&#49888;</text></g><g class="message" data-entity-1="part2" data-entity-2="part2" id="msg3"><line style="stroke:#181818;stroke-width:1;" x1="182.9921" x2="224.9921" y1="220.9922" y2="220.9922"/><line style="stroke:#181818;stroke-width:1;" x1="224.9921" x2="224.9921" y1="220.9922" y2="233.9922"/><line style="stroke:#181818;stroke-width:1;" x1="183.9921" x2="224.9921" y1="233.9922" y2="233.9922"/><polygon fill="#181818" points="193.9921,229.9922,183.9921,233.9922,193.9921,237.9922,189.9921,233.9922" style="stroke:#181818;stroke-width:1;"/><text fill="#000000" font-family="sans-serif" font-size="13" lengthAdjust="spacing" textLength="155.9937" x="189.9921" y="215.9263">UpdateMapCursorAsync</text></g><path d="M10,248.9922 L74.4429,248.9922 L74.4429,256.125 L64.4429,266.125 L10,266.125 L10,248.9922" fill="#EEEEEE" style="stroke:#000000;stroke-width:1.5;"/><rect fill="none" height="90.2031" style="stroke:#000000;stroke-width:1.5;" width="237.6372" x="10" y="248.9922"/><text fill="#000000" font-family="sans-serif" font-size="13" font-weight="bold" lengthAdjust="spacing" textLength="19.4429" x="25" y="262.0591">alt</text><text fill="#000000" font-family="sans-serif" font-size="11" font-weight="bold" lengthAdjust="spacing" textLength="153.1943" x="89.4429" y="261.2026">[NearbyHighwayLookup]</text><g class="message" data-entity-1="part2" data-entity-2="part1" id="msg4"><polygon fill="#181818" points="49.9551,283.2578,39.9551,287.2578,49.9551,291.2578,45.9551,287.2578" style="stroke:#181818;stroke-width:1;"/><line style="stroke:#181818;stroke-width:1;stroke-dasharray:2,2;" x1="43.9551" x2="181.9921" y1="287.2578" y2="287.2578"/><text fill="#000000" font-family="sans-serif" font-size="13" lengthAdjust="spacing" textLength="120.037" x="55.9551" y="282.1919">&#51340;&#54364; &#49440;&#53469; &#47784;&#46300; &#47700;&#49884;&#51648;</text></g><line style="stroke:#000000;stroke-width:1;stroke-dasharray:2,2;" x1="10" x2="247.6372" y1="296.2578" y2="296.2578"/><text fill="#000000" font-family="sans-serif" font-size="11" font-weight="bold" lengthAdjust="spacing" textLength="42.1094" x="15" y="306.4683">[None]</text><g class="message" data-entity-1="part2" data-entity-2="part1" id="msg5"><polygon fill="#181818" points="49.9551,327.1953,39.9551,331.1953,49.9551,335.1953,45.9551,331.1953" style="stroke:#181818;stroke-width:1;"/><line style="stroke:#181818;stroke-width:1;stroke-dasharray:2,2;" x1="43.9551" x2="181.9921" y1="331.1953" y2="331.1953"/><text fill="#000000" font-family="sans-serif" font-size="13" lengthAdjust="spacing" textLength="115.9047" x="55.9551" y="326.1294">&#51312;&#54924; &#48708;&#54876;&#49457;&#54868; &#47700;&#49884;&#51648;</text></g><?plantuml-src ROw_IWD14CRxUOfvWOEaJI58D2ZaOdMrZ7T3NBpiB7iRmdM2roMDc2PoGhJnJvMKlfAt-mw9na10o_dc-ttyd78vOzADuekJqwZLQcDVXYh5NYuJ04gTM4mAjc38EfKgGzfXJ-oe3V2TOtIqEx63pSTRyr2ZhvRXxWbswS7xSaJcN3kssrKbEfQCyMkrzjFbtsvYCd8Sa-cERI7sk2Xr2fGx733Pg_9C3QydLFP5RiO6y1UBjWC_JXtqBxDmlrVPYpNlSp-j_UijS5um3aJpl-ppAZpEiFcimgBsrJeiveUepZO0?></g></svg>