<?plantuml 1.2026.1?><svg xmlns="http://www.w3.org/2000/svg" xmlns:xlink="http://www.w3.org/1999/xlink" contentStyleType="text/css" data-diagram-type="SEQUENCE" height="450px" preserveAspectRatio="none" style="width:442px;height:450px;background:#FFFFFF;" version="1.1" viewBox="0 0 442 450" width="442px" zoomAndPan="magnify"><title>UC-CTV-003 Logic Flow</title><defs/><g><text fill="#000000" font-family="sans-serif" font-size="14" font-weight="bold" lengthAdjust="spacing" textLength="181.4668" x="131.5398" y="27.9951">UC-CTV-003 Logic Flow</text><rect fill="none" height="103.3984" style="stroke:#000000;stroke-width:1.5;" width="230.3477" x="205.1988" y="206.8594"/><g class="participant-lifeline" data-entity-uid="part1" data-qualified-name="User" id="part1-lifeline"><g><title>User</title><rect fill="#000000" fill-opacity="0.00000" height="250.7969" width="8" x="19.9551" y="118.5938"/><line style="stroke:#181818;stroke-width:0.5;stroke-dasharray:5,5;" x1="23" x2="23" y1="118.5938" y2="369.3906"/></g></g><g class="participant-lifeline" data-entity-uid="part2" data-qualified-name="Form1" id="part2-lifeline"><g><title>Form1</title><rect fill="#000000" fill-opacity="0.00000" height="250.7969" width="8" x="240.6583" y="118.5938"/><line style="stroke:#181818;stroke-width:0.5;stroke-dasharray:5,5;" x1="244.1988" x2="244.1988" y1="118.5938" y2="369.3906"/></g></g><g class="participant participant-head" data-entity-uid="part1" data-qualified-name="User" id="part1-head"><text fill="#000000" font-family="sans-serif" font-size="14" lengthAdjust="spacing" textLength="31.9102" x="5" y="115.292">User</text><ellipse cx="23.9551" cy="50.7969" fill="#E2E2F0" rx="8" ry="8" style="stroke:#181818;stroke-width:0.5;"/><path d="M23.9551,58.7969 L23.9551,85.7969 M10.9551,66.7969 L36.9551,66.7969 M23.9551,85.7969 L10.9551,100.7969 M23.9551,85.7969 L36.9551,100.7969" fill="none" style="stroke:#181818;stroke-width:0.5;"/></g><g class="participant participant-tail" data-entity-uid="part1" data-qualified-name="User" id="part1-tail"><text fill="#000000" font-family="sans-serif" font-size="14" lengthAdjust="spacing" textLength="31.9102" x="5" y="381.3857">User</text><ellipse cx="23.9551" cy="393.1875" fill="#E2E2F0" rx="8" ry="8" style="stroke:#181818;stroke-width:0.5;"/><path d="M23.9551,401.1875 L23.9551,428.1875 M10.9551,409.1875 L36.9551,409.1875 M23.9551,428.1875 L10.9551,443.1875 M23.9551,428.1875 L36.9551,443.1875" fill="none" style="stroke:#181818;stroke-width:0.5;"/></g><g class="participant participant-head" data-entity-uid="part2" data-qualified-name="Form1" id="part2-head"><rect fill="#E2E2F0" height="30.2969" rx="2.5" ry="2.5" style="stroke:#181818;stroke-width:0.5;" width="58.9189" x="215.1988" y="87.2969"/><text fill="#000000" font-family="sans-serif" font-size="14" lengthAdjust="spacing" textLength="44.9189" x="222.1988" y="107.292">Form1</text></g><g class="participant participant-tail" data-entity-uid="part2" data-qualified-name="Form1" id="part2-tail"><rect fill="#E2E2F0" height="30.2969" rx="2.5" ry="2.5" style="stroke:#181818;stroke-width:0.5;" width="58.9189" x="215.1988" y="368.3906"/><text fill="#000000" font-family="sans-serif" font-size="14" lengthAdjust="spacing" textLength="44.9189" x="222.1988" y="388.3857">Form1</text></g><g class="message" data-entity-1="part1" data-entity-2="part2" id="msg1"><polygon fill="#181818" points="232.6583,145.7266,242.6583,149.7266,232.6583,153.7266,236.6583,149.7266" style="stroke:#181818;stroke-width:1;"/><line style="stroke:#181818;stroke-width:1;" x1="23.9551" x2="238.6583" y1="149.7266" y2="149.7266"/><text fill="#000000" font-family="sans-serif" font-size="13" lengthAdjust="spacing" textLength="196.7032" x="30.9551" y="144.6606">cctv-selected &#46608;&#45716; CardClicked</text></g><g class="message" data-entity-1="part2" data-entity-2="part2" id="msg2"><line style="stroke:#181818;stroke-width:1;" x1="244.6583" x2="286.6583" y1="178.8594" y2="178.8594"/><line style="stroke:#181818;stroke-width:1;" x1="286.6583" x2="286.6583" y1="178.8594" y2="191.8594"/><line style="stroke:#181818;stroke-width:1;" x1="245.6583" x2="286.6583" y1="191.8594" y2="191.8594"/><polygon fill="#181818" points="255.6583,187.8594,245.6583,191.8594,255.6583,195.8594,251.6583,191.8594" style="stroke:#181818;stroke-width:1;"/><text fill="#000000" font-family="sans-serif" font-size="13" lengthAdjust="spacing" textLength="136.3497" x="251.6583" y="173.7935">_cctvControlMap &#51312;&#54924;</text></g><path d="M205.1988,206.8594 L269.6417,206.8594 L269.6417,213.9922 L259.6417,223.9922 L205.1988,223.9922 L205.1988,206.8594" fill="#EEEEEE" style="stroke:#000000;stroke-width:1.5;"/><rect fill="none" height="103.3984" style="stroke:#000000;stroke-width:1.5;" width="230.3477" x="205.1988" y="206.8594"/><text fill="#000000" font-family="sans-serif" font-size="13" font-weight="bold" lengthAdjust="spacing" textLength="19.4429" x="220.1988" y="219.9263">alt</text><text fill="#000000" font-family="sans-serif" font-size="11" font-weight="bold" lengthAdjust="spacing" textLength="88.5533" x="284.6417" y="219.0698">[&#47588;&#54609;&#46108; &#52852;&#46300; &#51316;&#51116;]</text><g class="message" data-entity-1="part2" data-entity-2="part2" id="msg3"><line style="stroke:#181818;stroke-width:1;" x1="244.6583" x2="286.6583" y1="245.125" y2="245.125"/><line style="stroke:#181818;stroke-width:1;" x1="286.6583" x2="286.6583" y1="245.125" y2="258.125"/><line style="stroke:#181818;stroke-width:1;" x1="245.6583" x2="286.6583" y1="258.125" y2="258.125"/><polygon fill="#181818" points="255.6583,254.125,245.6583,258.125,255.6583,262.125,251.6583,258.125" style="stroke:#181818;stroke-width:1;"/><text fill="#000000" font-family="sans-serif" font-size="13" lengthAdjust="spacing" textLength="171.8882" x="251.6583" y="240.0591">SelectCctvControl(control)</text></g><line style="stroke:#000000;stroke-width:1;stroke-dasharray:2,2;" x1="205.1988" x2="435.5465" y1="267.125" y2="267.125"/><g class="message" data-entity-1="part2" data-entity-2="part2" id="msg4"><line style="stroke:#181818;stroke-width:1;" x1="244.6583" x2="286.6583" y1="289.2578" y2="289.2578"/><line style="stroke:#181818;stroke-width:1;" x1="286.6583" x2="286.6583" y1="289.2578" y2="302.2578"/><line style="stroke:#181818;stroke-width:1;" x1="245.6583" x2="286.6583" y1="302.2578" y2="302.2578"/><polygon fill="#181818" points="255.6583,298.2578,245.6583,302.2578,255.6583,306.2578,251.6583,302.2578" style="stroke:#181818;stroke-width:1;"/><text fill="#000000" font-family="sans-serif" font-size="13" lengthAdjust="spacing" textLength="150.2427" x="251.6583" y="284.1919">SelectCctvControl(null)</text></g><g class="message" data-entity-1="part2" data-entity-2="part2" id="msg5"><line style="stroke:#181818;stroke-width:1;" x1="244.6583" x2="286.6583" y1="338.3906" y2="338.3906"/><line style="stroke:#181818;stroke-width:1;" x1="286.6583" x2="286.6583" y1="338.3906" y2="351.3906"/><line style="stroke:#181818;stroke-width:1;" x1="245.6583" x2="286.6583" y1="351.3906" y2="351.3906"/><polygon fill="#181818" points="255.6583,347.3906,245.6583,351.3906,255.6583,355.3906,251.6583,351.3906" style="stroke:#181818;stroke-width:1;"/><text fill="#000000" font-family="sans-serif" font-size="13" lengthAdjust="spacing" textLength="120.037" x="251.6583" y="333.3247">&#51648;&#46020; &#47560;&#52964; &#44053;&#51312; &#46041;&#44592;&#54868;</text></g><?plantuml-src AyaioKbL27NMTGu9qpKmC5RmoK_FJ5Pmoyalv-9AJ2x9Br88BKujuYf8B2h9JCuiICmhKN3BByervE82YIlesa6u2bOAoSabPRh5gJcfoIMfAGglPqnutJL5mJcnACKv9pCvEpM52w8GIKSyI8jpVbv9KNwERsA1mfk56zxEwk5Ap2bHUBryoTkf4rzFcAFmPkUMrvE1rC8jR-QjuL9Gm30b66obCy8eZMG8hScLcbESIfoMlD8SaFeyBAvyixpXTNyBq4KTRtOlKNYrOIhGcGgl-sU-sh7XxSmf0000?></g></svg>