<?plantuml 1.2026.1?><svg xmlns="http://www.w3.org/2000/svg" xmlns:xlink="http://www.w3.org/1999/xlink" contentStyleType="text/css" data-diagram-type="SEQUENCE" height="647px" preserveAspectRatio="none" style="width:631px;height:647px;background:#FFFFFF;" version="1.1" viewBox="0 0 631 647" width="631px" zoomAndPan="magnify"><title>UC-CTV-001 Logic Flow</title><defs/><g><text fill="#000000" font-family="sans-serif" font-size="14" font-weight="bold" lengthAdjust="spacing" textLength="181.4668" x="225.895" y="27.9951">UC-CTV-001 Logic Flow</text><rect fill="none" height="343" style="stroke:#000000;stroke-width:1.5;" width="563.7889" x="60.468" y="206.8594"/><g class="participant-lifeline" data-entity-uid="part1" data-qualified-name="User" id="part1-lifeline"><g><title>User</title><rect fill="#000000" fill-opacity="0.00000" height="448.2656" width="8" x="19.9551" y="118.5938"/><line style="stroke:#181818;stroke-width:0.5;stroke-dasharray:5,5;" x1="23" x2="23" y1="118.5938" y2="566.8594"/></g></g><g class="participant-lifeline" data-entity-uid="part2" data-qualified-name="Form1" id="part2-lifeline"><g><title>Form1</title><rect fill="#000000" fill-opacity="0.00000" height="448.2656" width="8" x="95.9274" y="118.5938"/><line style="stroke:#181818;stroke-width:0.5;stroke-dasharray:5,5;" x1="99.468" x2="99.468" y1="118.5938" y2="566.8594"/></g></g><g class="participant-lifeline" data-entity-uid="part3" data-qualified-name="CctvSvc" id="part3-lifeline"><g><title>CctvSvc</title><rect fill="#000000" fill-opacity="0.00000" height="448.2656" width="8" x="350.2902" y="118.5938"/><line style="stroke:#181818;stroke-width:0.5;stroke-dasharray:5,5;" x1="354.2321" x2="354.2321" y1="118.5938" y2="566.8594"/></g></g><g class="participant participant-head" data-entity-uid="part1" data-qualified-name="User" id="part1-head"><text fill="#000000" font-family="sans-serif" font-size="14" lengthAdjust="spacing" textLength="31.9102" x="5" y="115.292">User</text><ellipse cx="23.9551" cy="50.7969" fill="#E2E2F0" rx="8" ry="8" style="stroke:#181818;stroke-width:0.5;"/><path d="M23.9551,58.7969 L23.9551,85.7969 M10.9551,66.7969 L36.9551,66.7969 M23.9551,85.7969 L10.9551,100.7969 M23.9551,85.7969 L36.9551,100.7969" fill="none" style="stroke:#181818;stroke-width:0.5;"/></g><g class="participant participant-tail" data-entity-uid="part1" data-qualified-name="User" id="part1-tail"><text fill="#000000" font-family="sans-serif" font-size="14" lengthAdjust="spacing" textLength="31.9102" x="5" y="578.8545">User</text><ellipse cx="23.9551" cy="590.6563" fill="#E2E2F0" rx="8" ry="8" style="stroke:#181818;stroke-width:0.5;"/><path d="M23.9551,598.6563 L23.9551,625.6563 M10.9551,606.6563 L36.9551,606.6563 M23.9551,625.6563 L10.9551,640.6563 M23.9551,625.6563 L36.9551,640.6563" fill="none" style="stroke:#181818;stroke-width:0.5;"/></g><g class="participant participant-head" data-entity-uid="part2" data-qualified-name="Form1" id="part2-head"><rect fill="#E2E2F0" height="30.2969" rx="2.5" ry="2.5" style="stroke:#181818;stroke-width:0.5;" width="58.9189" x="70.468" y="87.2969"/><text fill="#000000" font-family="sans-serif" font-size="14" lengthAdjust="spacing" textLength="44.9189" x="77.468" y="107.292">Form1</text></g><g class="participant participant-tail" data-entity-uid="part2" data-qualified-name="Form1" id="part2-tail"><rect fill="#E2E2F0" height="30.2969" rx="2.5" ry="2.5" style="stroke:#181818;stroke-width:0.5;" width="58.9189" x="70.468" y="565.8594"/><text fill="#000000" font-family="sans-serif" font-size="14" lengthAdjust="spacing" textLength="44.9189" x="77.468" y="585.8545">Form1</text></g><g class="participant participant-head" data-entity-uid="part3" data-qualified-name="CctvSvc" id="part3-head"><rect fill="#E2E2F0" height="30.2969" rx="2.5" ry="2.5" style="stroke:#181818;stroke-width:0.5;" width="70.1162" x="319.2321" y="87.2969"/><text fill="#000000" font-family="sans-serif" font-size="14" lengthAdjust="spacing" textLength="56.1162" x="326.2321" y="107.292">CctvSvc</text></g><g class="participant participant-tail" data-entity-uid="part3" data-qualified-name="CctvSvc" id="part3-tail"><rect fill="#E2E2F0" height="30.2969" rx="2.5" ry="2.5" style="stroke:#181818;stroke-width:0.5;" width="70.1162" x="319.2321" y="565.8594"/><text fill="#000000" font-family="sans-serif" font-size="14" lengthAdjust="spacing" textLength="56.1162" x="326.2321" y="585.8545">CctvSvc</text></g><g class="message" data-entity-1="part1" data-entity-2="part2" id="msg1"><polygon fill="#181818" points="87.9274,145.7266,97.9274,149.7266,87.9274,153.7266,91.9274,149.7266" style="stroke:#181818;stroke-width:1;"/><line style="stroke:#181818;stroke-width:1;" x1="23.9551" x2="93.9274" y1="149.7266" y2="149.7266"/><text fill="#000000" font-family="sans-serif" font-size="13" lengthAdjust="spacing" textLength="51.9724" x="30.9551" y="144.6606">&#51340;&#54364; &#53364;&#47533;</text></g><g class="message" data-entity-1="part2" data-entity-2="part2" id="msg2"><line style="stroke:#181818;stroke-width:1;" x1="99.9274" x2="141.9274" y1="178.8594" y2="178.8594"/><line style="stroke:#181818;stroke-width:1;" x1="141.9274" x2="141.9274" y1="178.8594" y2="191.8594"/><line style="stroke:#181818;stroke-width:1;" x1="100.9274" x2="141.9274" y1="191.8594" y2="191.8594"/><polygon fill="#181818" points="110.9274,187.8594,100.9274,191.8594,110.9274,195.8594,106.9274,191.8594" style="stroke:#181818;stroke-width:1;"/><text fill="#000000" font-family="sans-serif" font-size="13" lengthAdjust="spacing" textLength="125.1565" x="106.9274" y="173.7935">&#54056;&#45328; &#47784;&#46300; &#54869;&#51064;(CCTV)</text></g><path d="M60.468,206.8594 L124.9108,206.8594 L124.9108,213.9922 L114.9108,223.9922 L60.468,223.9922 L60.468,206.8594" fill="#EEEEEE" style="stroke:#000000;stroke-width:1.5;"/><rect fill="none" height="343" style="stroke:#000000;stroke-width:1.5;" width="563.7889" x="60.468" y="206.8594"/><text fill="#000000" font-family="sans-serif" font-size="13" font-weight="bold" lengthAdjust="spacing" textLength="19.4429" x="75.468" y="219.9263">alt</text><text fill="#000000" font-family="sans-serif" font-size="11" font-weight="bold" lengthAdjust="spacing" textLength="90.3557" x="139.9108" y="219.0698">[CCTV &#47784;&#46300; &#50500;&#45784;]</text><g class="message" data-entity-1="part2" data-entity-2="part2" id="msg3"><line style="stroke:#181818;stroke-width:1;" x1="99.9274" x2="141.9274" y1="245.125" y2="245.125"/><line style="stroke:#181818;stroke-width:1;" x1="141.9274" x2="141.9274" y1="245.125" y2="258.125"/><line style="stroke:#181818;stroke-width:1;" x1="100.9274" x2="141.9274" y1="258.125" y2="258.125"/><polygon fill="#181818" points="110.9274,254.125,100.9274,258.125,110.9274,262.125,106.9274,258.125" style="stroke:#181818;stroke-width:1;"/><text fill="#000000" font-family="sans-serif" font-size="13" lengthAdjust="spacing" textLength="131.997" x="106.9274" y="240.0591">&#54844;&#51105;&#46020; &#51312;&#54924; &#48516;&#44592;&#47196; &#51204;&#54872;</text></g><line style="stroke:#000000;stroke-width:1;stroke-dasharray:2,2;" x1="60.468" x2="624.2569" y1="267.125" y2="267.125"/><text fill="#000000" font-family="sans-serif" font-size="11" font-weight="bold" lengthAdjust="spacing" textLength="66.2862" x="65.468" y="277.3354">[CCTV &#47784;&#46300;]</text><g class="message" data-entity-1="part2" data-entity-2="part2" id="msg4"><line style="stroke:#181818;stroke-width:1;" x1="99.9274" x2="141.9274" y1="302.0625" y2="302.0625"/><line style="stroke:#181818;stroke-width:1;" x1="141.9274" x2="141.9274" y1="302.0625" y2="315.0625"/><line style="stroke:#181818;stroke-width:1;" x1="100.9274" x2="141.9274" y1="315.0625" y2="315.0625"/><polygon fill="#181818" points="110.9274,311.0625,100.9274,315.0625,110.9274,319.0625,106.9274,315.0625" style="stroke:#181818;stroke-width:1;"/><text fill="#000000" font-family="sans-serif" font-size="13" lengthAdjust="spacing" textLength="164.351" x="106.9274" y="296.9966">&#50836;&#52397; &#48260;&#51204; &#51613;&#44032;, &#47196;&#46377; &#49345;&#53468; ON</text></g><g class="message" data-entity-1="part2" data-entity-2="part3" id="msg5"><polygon fill="#181818" points="342.2902,340.1953,352.2902,344.1953,342.2902,348.1953,346.2902,344.1953" style="stroke:#181818;stroke-width:1;"/><line style="stroke:#181818;stroke-width:1;" x1="99.9274" x2="348.2902" y1="344.1953" y2="344.1953"/><text fill="#000000" font-family="sans-serif" font-size="13" lengthAdjust="spacing" textLength="230.3628" x="106.9274" y="339.1294">GetNearbyHighwayCctv(command)</text></g><g class="message" data-entity-1="part3" data-entity-2="part3" id="msg6"><line style="stroke:#181818;stroke-width:1;" x1="354.2902" x2="396.2902" y1="373.3281" y2="373.3281"/><line style="stroke:#181818;stroke-width:1;" x1="396.2902" x2="396.2902" y1="373.3281" y2="386.3281"/><line style="stroke:#181818;stroke-width:1;" x1="355.2902" x2="396.2902" y1="386.3281" y2="386.3281"/><polygon fill="#181818" points="365.2902,382.3281,355.2902,386.3281,365.2902,390.3281,361.2902,386.3281" style="stroke:#181818;stroke-width:1;"/><text fill="#000000" font-family="sans-serif" font-size="13" lengthAdjust="spacing" textLength="215.2361" x="361.2902" y="368.2622">&#51340;&#54364; &#48276;&#50948; &#44160;&#51613; + bounds normalize</text></g><g class="message" data-entity-1="part3" data-entity-2="part3" id="msg7"><line style="stroke:#181818;stroke-width:1;" x1="354.2902" x2="396.2902" y1="415.4609" y2="415.4609"/><line style="stroke:#181818;stroke-width:1;" x1="396.2902" x2="396.2902" y1="415.4609" y2="428.4609"/><line style="stroke:#181818;stroke-width:1;" x1="355.2902" x2="396.2902" y1="428.4609" y2="428.4609"/><polygon fill="#181818" points="365.2902,424.4609,355.2902,428.4609,365.2902,432.4609,361.2902,428.4609" style="stroke:#181818;stroke-width:1;"/><text fill="#000000" font-family="sans-serif" font-size="13" lengthAdjust="spacing" textLength="250.9666" x="361.2902" y="410.395">&#51064;&#51217; &#44256;&#49549;&#46020;&#47196; &#49440;&#51221; + &#52572;&#45800;&#44144;&#47532; &#44256;&#49549;&#46020;&#47196; &#49440;&#53469;</text></g><g class="message" data-entity-1="part3" data-entity-2="part3" id="msg8"><line style="stroke:#181818;stroke-width:1;" x1="354.2902" x2="396.2902" y1="457.5938" y2="457.5938"/><line style="stroke:#181818;stroke-width:1;" x1="396.2902" x2="396.2902" y1="457.5938" y2="470.5938"/><line style="stroke:#181818;stroke-width:1;" x1="355.2902" x2="396.2902" y1="470.5938" y2="470.5938"/><polygon fill="#181818" points="365.2902,466.5938,355.2902,470.5938,365.2902,474.5938,361.2902,470.5938" style="stroke:#181818;stroke-width:1;"/><text fill="#000000" font-family="sans-serif" font-size="13" lengthAdjust="spacing" textLength="223.3376" x="361.2902" y="452.5278">&#44540;&#51217; &#51076;&#44228;&#52824;/&#54260;&#48177; &#44508;&#52825;&#51004;&#47196; CCTV &#54596;&#53552;&#47553;</text></g><g class="message" data-entity-1="part3" data-entity-2="part2" id="msg9"><polygon fill="#181818" points="110.9274,495.7266,100.9274,499.7266,110.9274,503.7266,106.9274,499.7266" style="stroke:#181818;stroke-width:1;"/><line style="stroke:#181818;stroke-width:1;stroke-dasharray:2,2;" x1="104.9274" x2="353.2902" y1="499.7266" y2="499.7266"/><text fill="#000000" font-family="sans-serif" font-size="13" lengthAdjust="spacing" textLength="158.0902" x="116.9274" y="494.6606">&#49440;&#53469; &#44256;&#49549;&#46020;&#47196; + CCTV &#47785;&#47197;</text></g><g class="message" data-entity-1="part2" data-entity-2="part2" id="msg10"><line style="stroke:#181818;stroke-width:1;" x1="99.9274" x2="141.9274" y1="528.8594" y2="528.8594"/><line style="stroke:#181818;stroke-width:1;" x1="141.9274" x2="141.9274" y1="528.8594" y2="541.8594"/><line style="stroke:#181818;stroke-width:1;" x1="100.9274" x2="141.9274" y1="541.8594" y2="541.8594"/><polygon fill="#181818" points="110.9274,537.8594,100.9274,541.8594,110.9274,545.8594,106.9274,541.8594" style="stroke:#181818;stroke-width:1;"/><text fill="#000000" font-family="sans-serif" font-size="13" lengthAdjust="spacing" textLength="162.2225" x="106.9274" y="523.7935">&#52572;&#49888; CCTV &#52880;&#49884; + &#54056;&#45328; &#44081;&#49888;</text></g><?plantuml-src TPBBJi9058RtynHdgL6YRbsu8K4N1XTUzgKqsAIqf5I8hYHCt8018YH0MbDS81fDoaL5mnDrpho3Kov92R2RdF__lpFdp5YgfIbm6Or4BwuY-_i7S6gaL1bYcf4dH98jmuJBh6AIZ6HQggnc9Ds2c66c3vOgKTdAdUTaGW8lH8vc5ZW4V2dpcWsyC6BTJpAhXcHUxZ5Q1VRUOq_2rMgWCzwAYgji4qaJM75QYDYWhDGa0AkGvWIVEwn20JiURvU1VLD_xB6E2BcKjvf4qR9A6BQEWkqw3Zw13QW80NOTtxlV1G5XzJV0Oe4NRJYBXvFpeKNsMB7YYcGcRa_Kr7LUkWsKBTb8foKzkIqY2-TIQBuQDgYZJS4Vt8kUi0C9uqPFPa4NNIHDlLCsnfqnkZNmXou-F8hXf-DI5zs6WE2NpKezl--nxiUAXHUTJL3_Pn90yPdwGug_pJrU6J6lB-es_hRGdWI8wI9vWtBgiTT261LUvxJFSk-TnHkyiOwpzWs-R2ovCnV-LR4KPEP_nFVwGYEAdlm7?></g></svg>