<?plantuml 1.2026.1?><svg xmlns="http://www.w3.org/2000/svg" xmlns:xlink="http://www.w3.org/1999/xlink" contentStyleType="text/css" data-diagram-type="SEQUENCE" height="499px" preserveAspectRatio="none" style="width:526px;height:499px;background:#FFFFFF;" version="1.1" viewBox="0 0 526 499" width="526px" zoomAndPan="magnify"><title>UC-OPS-002 Logic Flow</title><defs/><g><text fill="#000000" font-family="sans-serif" font-size="14" font-weight="bold" lengthAdjust="spacing" textLength="183.0527" x="172.8341" y="27.9951">UC-OPS-002 Logic Flow</text><rect fill="none" height="194.4063" style="stroke:#000000;stroke-width:1.5;" width="509.721" x="10" y="206.8594"/><rect fill="none" height="90.2031" style="stroke:#000000;stroke-width:1.5;" width="489.721" x="20" y="304.0625"/><g class="participant-lifeline" data-entity-uid="part1" data-qualified-name="User" id="part1-lifeline"><g><title>User</title><rect fill="#000000" fill-opacity="0.00000" height="299.6719" width="8" x="44.9551" y="118.5938"/><line style="stroke:#181818;stroke-width:0.5;stroke-dasharray:5,5;" x1="48" x2="48" y1="118.5938" y2="418.2656"/></g></g><g class="participant-lifeline" data-entity-uid="part2" data-qualified-name="Form1" id="part2-lifeline"><g><title>Form1</title><rect fill="#000000" fill-opacity="0.00000" height="299.6719" width="8" x="160.9398" y="118.5938"/><line style="stroke:#181818;stroke-width:0.5;stroke-dasharray:5,5;" x1="164.4803" x2="164.4803" y1="118.5938" y2="418.2656"/></g></g><g class="participant-lifeline" data-entity-uid="part3" data-qualified-name="CctvSvc" id="part3-lifeline"><g><title>CctvSvc</title><rect fill="#000000" fill-opacity="0.00000" height="299.6719" width="8" x="460.6629" y="118.5938"/><line style="stroke:#181818;stroke-width:0.5;stroke-dasharray:5,5;" x1="464.6048" x2="464.6048" y1="118.5938" y2="418.2656"/></g></g><g class="participant participant-head" data-entity-uid="part1" data-qualified-name="User" id="part1-head"><text fill="#000000" font-family="sans-serif" font-size="14" lengthAdjust="spacing" textLength="31.9102" x="30" y="115.292">User</text><ellipse cx="48.9551" cy="50.7969" fill="#E2E2F0" rx="8" ry="8" style="stroke:#181818;stroke-width:0.5;"/><path d="M48.9551,58.7969 L48.9551,85.7969 M35.9551,66.7969 L61.9551,66.7969 M48.9551,85.7969 L35.9551,100.7969 M48.9551,85.7969 L61.9551,100.7969" fill="none" style="stroke:#181818;stroke-width:0.5;"/></g><g class="participant participant-tail" data-entity-uid="part1" data-qualified-name="User" id="part1-tail"><text fill="#000000" font-family="sans-serif" font-size="14" lengthAdjust="spacing" textLength="31.9102" x="30" y="430.2607">User</text><ellipse cx="48.9551" cy="442.0625" fill="#E2E2F0" rx="8" ry="8" style="stroke:#181818;stroke-width:0.5;"/><path d="M48.9551,450.0625 L48.9551,477.0625 M35.9551,458.0625 L61.9551,458.0625 M48.9551,477.0625 L35.9551,492.0625 M48.9551,477.0625 L61.9551,492.0625" fill="none" style="stroke:#181818;stroke-width:0.5;"/></g><g class="participant participant-head" data-entity-uid="part2" data-qualified-name="Form1" id="part2-head"><rect fill="#E2E2F0" height="30.2969" rx="2.5" ry="2.5" style="stroke:#181818;stroke-width:0.5;" width="58.9189" x="135.4803" y="87.2969"/><text fill="#000000" font-family="sans-serif" font-size="14" lengthAdjust="spacing" textLength="44.9189" x="142.4803" y="107.292">Form1</text></g><g class="participant participant-tail" data-entity-uid="part2" data-qualified-name="Form1" id="part2-tail"><rect fill="#E2E2F0" height="30.2969" rx="2.5" ry="2.5" style="stroke:#181818;stroke-width:0.5;" width="58.9189" x="135.4803" y="417.2656"/><text fill="#000000" font-family="sans-serif" font-size="14" lengthAdjust="spacing" textLength="44.9189" x="142.4803" y="437.2607">Form1</text></g><g class="participant participant-head" data-entity-uid="part3" data-qualified-name="CctvSvc" id="part3-head"><rect fill="#E2E2F0" height="30.2969" rx="2.5" ry="2.5" style="stroke:#181818;stroke-width:0.5;" width="70.1162" x="429.6048" y="87.2969"/><text fill="#000000" font-family="sans-serif" font-size="14" lengthAdjust="spacing" textLength="56.1162" x="436.6048" y="107.292">CctvSvc</text></g><g class="participant participant-tail" data-entity-uid="part3" data-qualified-name="CctvSvc" id="part3-tail"><rect fill="#E2E2F0" height="30.2969" rx="2.5" ry="2.5" style="stroke:#181818;stroke-width:0.5;" width="70.1162" x="429.6048" y="417.2656"/><text fill="#000000" font-family="sans-serif" font-size="14" lengthAdjust="spacing" textLength="56.1162" x="436.6048" y="437.2607">CctvSvc</text></g><g class="message" data-entity-1="part1" data-entity-2="part2" id="msg1"><polygon fill="#181818" points="152.9398,145.7266,162.9398,149.7266,152.9398,153.7266,156.9398,149.7266" style="stroke:#181818;stroke-width:1;"/><line style="stroke:#181818;stroke-width:1;" x1="48.9551" x2="158.9398" y1="149.7266" y2="149.7266"/><text fill="#000000" font-family="sans-serif" font-size="13" lengthAdjust="spacing" textLength="51.9724" x="55.9551" y="144.6606">&#51340;&#54364; &#49440;&#53469;</text></g><g class="message" data-entity-1="part2" data-entity-2="part2" id="msg2"><line style="stroke:#181818;stroke-width:1;" x1="164.9398" x2="206.9398" y1="178.8594" y2="178.8594"/><line style="stroke:#181818;stroke-width:1;" x1="206.9398" x2="206.9398" y1="178.8594" y2="191.8594"/><line style="stroke:#181818;stroke-width:1;" x1="165.9398" x2="206.9398" y1="191.8594" y2="191.8594"/><polygon fill="#181818" points="175.9398,187.8594,165.9398,191.8594,175.9398,195.8594,171.9398,191.8594" style="stroke:#181818;stroke-width:1;"/><text fill="#000000" font-family="sans-serif" font-size="13" lengthAdjust="spacing" textLength="128.4075" x="171.9398" y="173.7935">&#51340;&#54364; JSON &#54028;&#49905;/&#51221;&#44508;&#54868;</text></g><path d="M10,206.8594 L74.4429,206.8594 L74.4429,213.9922 L64.4429,223.9922 L10,223.9922 L10,206.8594" fill="#EEEEEE" style="stroke:#000000;stroke-width:1.5;"/><rect fill="none" height="194.4063" style="stroke:#000000;stroke-width:1.5;" width="509.721" x="10" y="206.8594"/><text fill="#000000" font-family="sans-serif" font-size="13" font-weight="bold" lengthAdjust="spacing" textLength="19.4429" x="25" y="219.9263">alt</text><text fill="#000000" font-family="sans-serif" font-size="11" font-weight="bold" lengthAdjust="spacing" textLength="54.364" x="89.4429" y="219.0698">[&#54028;&#49905; &#49892;&#54056;]</text><g class="message" data-entity-1="part2" data-entity-2="part1" id="msg3"><polygon fill="#181818" points="59.9551,241.125,49.9551,245.125,59.9551,249.125,55.9551,245.125" style="stroke:#181818;stroke-width:1;"/><line style="stroke:#181818;stroke-width:1;stroke-dasharray:2,2;" x1="53.9551" x2="163.9398" y1="245.125" y2="245.125"/><text fill="#000000" font-family="sans-serif" font-size="13" lengthAdjust="spacing" textLength="91.9847" x="65.9551" y="240.0591">&#51312;&#54924; &#49892;&#54056; &#47700;&#49884;&#51648;</text></g><line style="stroke:#000000;stroke-width:1;stroke-dasharray:2,2;" x1="10" x2="519.721" y1="254.125" y2="254.125"/><text fill="#000000" font-family="sans-serif" font-size="11" font-weight="bold" lengthAdjust="spacing" textLength="54.364" x="15" y="264.3354">[&#54028;&#49905; &#49457;&#44277;]</text><g class="message" data-entity-1="part2" data-entity-2="part3" id="msg4"><polygon fill="#181818" points="452.6629,285.0625,462.6629,289.0625,452.6629,293.0625,456.6629,289.0625" style="stroke:#181818;stroke-width:1;"/><line style="stroke:#181818;stroke-width:1;" x1="164.9398" x2="458.6629" y1="289.0625" y2="289.0625"/><text fill="#000000" font-family="sans-serif" font-size="13" lengthAdjust="spacing" textLength="275.7231" x="171.9398" y="283.9966">ValidateSelectedPoint + NormalizeBounds</text></g><path d="M20,304.0625 L84.4429,304.0625 L84.4429,311.1953 L74.4429,321.1953 L20,321.1953 L20,304.0625" fill="#EEEEEE" style="stroke:#000000;stroke-width:1.5;"/><rect fill="none" height="90.2031" style="stroke:#000000;stroke-width:1.5;" width="489.721" x="20" y="304.0625"/><text fill="#000000" font-family="sans-serif" font-size="13" font-weight="bold" lengthAdjust="spacing" textLength="19.4429" x="35" y="317.1294">alt</text><text fill="#000000" font-family="sans-serif" font-size="11" font-weight="bold" lengthAdjust="spacing" textLength="54.364" x="99.4429" y="316.2729">[&#48276;&#50948; &#52488;&#44284;]</text><g class="message" data-entity-1="part3" data-entity-2="part1" id="msg5"><polygon fill="#181818" points="59.9551,338.3281,49.9551,342.3281,59.9551,346.3281,55.9551,342.3281" style="stroke:#181818;stroke-width:1;"/><line style="stroke:#181818;stroke-width:1;stroke-dasharray:2,2;" x1="53.9551" x2="463.6629" y1="342.3281" y2="342.3281"/><text fill="#000000" font-family="sans-serif" font-size="13" lengthAdjust="spacing" textLength="204.8663" x="65.9551" y="337.2622">PointOutOfRangeException &#44221;&#47196;</text></g><line style="stroke:#000000;stroke-width:1;stroke-dasharray:2,2;" x1="20" x2="509.721" y1="351.3281" y2="351.3281"/><text fill="#000000" font-family="sans-serif" font-size="11" font-weight="bold" lengthAdjust="spacing" textLength="30.2945" x="25" y="361.5386">[&#51221;&#49345;]</text><g class="message" data-entity-1="part3" data-entity-2="part2" id="msg6"><polygon fill="#181818" points="175.9398,382.2656,165.9398,386.2656,175.9398,390.2656,171.9398,386.2656" style="stroke:#181818;stroke-width:1;"/><line style="stroke:#181818;stroke-width:1;stroke-dasharray:2,2;" x1="169.9398" x2="463.6629" y1="386.2656" y2="386.2656"/><text fill="#000000" font-family="sans-serif" font-size="13" lengthAdjust="spacing" textLength="51.9724" x="181.9398" y="381.1997">&#51312;&#54924; &#51652;&#54665;</text></g><?plantuml-src PP0nIyD068Rt-nNVBi7gwD31OWUHfXZgVbpESX1p8RbMSLAQGKaM8GfAX5Q4rissYel-eUJkFtX9OrGwtF9-x_FU-ts22OT2hsMONSjeDBRXWFSPWRR3Jn72H70VUW7raOTzmGZpi2kWpVsJhNzAYuYXDIG85LumcYiBx81yYjLD2Z8Sgz4ZMgdhuttBx82AOndDD-NuDlj8rNs2i2Cg4MJqhE8PWWeqT4JvaqwOlAg7k390_fB8A9NJ2qITWDPqEC-MxxzqywUlve-mmsmig4KTIWIrkvpfVJQWewrwT4vt-S2r0mqNTV958jCGvDjLjlpK6jH9VogL4UP0cCU7sEtJlJD2FS6u2zdYAv-a6YlBwKNbw78jf3vDjTWqL7VN1UFQIBzl?></g></svg>