<?plantuml 1.2026.1?><svg xmlns="http://www.w3.org/2000/svg" xmlns:xlink="http://www.w3.org/1999/xlink" contentStyleType="text/css" data-diagram-type="SEQUENCE" height="479px" preserveAspectRatio="none" style="width:400px;height:479px;background:#FFFFFF;" version="1.1" viewBox="0 0 400 479" width="400px" zoomAndPan="magnify"><title>UC-CMN-001 Logic Flow</title><defs/><g><text fill="#000000" font-family="sans-serif" font-size="14" font-weight="bold" lengthAdjust="spacing" textLength="186.7305" x="108.0671" y="27.9951">UC-CMN-001 Logic Flow</text><rect fill="none" height="132.3359" style="stroke:#000000;stroke-width:1.5;" width="383.8648" x="10" y="248.9922"/><g class="participant-lifeline" data-entity-uid="part1" data-qualified-name="User" id="part1-lifeline"><g><title>User</title><rect fill="#000000" fill-opacity="0.00000" height="279.7344" width="8" x="34.9551" y="118.5938"/><line style="stroke:#181818;stroke-width:0.5;stroke-dasharray:5,5;" x1="38" x2="38" y1="118.5938" y2="398.3281"/></g></g><g class="participant-lifeline" data-entity-uid="part2" data-qualified-name="Form1" id="part2-lifeline"><g><title>Form1</title><rect fill="#000000" fill-opacity="0.00000" height="279.7344" width="8" x="214.8711" y="118.5938"/><line style="stroke:#181818;stroke-width:0.5;stroke-dasharray:5,5;" x1="218.4116" x2="218.4116" y1="118.5938" y2="398.3281"/></g></g><g class="participant participant-head" data-entity-uid="part1" data-qualified-name="User" id="part1-head"><text fill="#000000" font-family="sans-serif" font-size="14" lengthAdjust="spacing" textLength="31.9102" x="20" y="115.292">User</text><ellipse cx="38.9551" cy="50.7969" fill="#E2E2F0" rx="8" ry="8" style="stroke:#181818;stroke-width:0.5;"/><path d="M38.9551,58.7969 L38.9551,85.7969 M25.9551,66.7969 L51.9551,66.7969 M38.9551,85.7969 L25.9551,100.7969 M38.9551,85.7969 L51.9551,100.7969" fill="none" style="stroke:#181818;stroke-width:0.5;"/></g><g class="participant participant-tail" data-entity-uid="part1" data-qualified-name="User" id="part1-tail"><text fill="#000000" font-family="sans-serif" font-size="14" lengthAdjust="spacing" textLength="31.9102" x="20" y="410.3232">User</text><ellipse cx="38.9551" cy="422.125" fill="#E2E2F0" rx="8" ry="8" style="stroke:#181818;stroke-width:0.5;"/><path d="M38.9551,430.125 L38.9551,457.125 M25.9551,438.125 L51.9551,438.125 M38.9551,457.125 L25.9551,472.125 M38.9551,457.125 L51.9551,472.125" fill="none" style="stroke:#181818;stroke-width:0.5;"/></g><g class="participant participant-head" data-entity-uid="part2" data-qualified-name="Form1" id="part2-head"><rect fill="#E2E2F0" height="30.2969" rx="2.5" ry="2.5" style="stroke:#181818;stroke-width:0.5;" width="58.9189" x="189.4116" y="87.2969"/><text fill="#000000" font-family="sans-serif" font-size="14" lengthAdjust="spacing" textLength="44.9189" x="196.4116" y="107.292">Form1</text></g><g class="participant participant-tail" data-entity-uid="part2" data-qualified-name="Form1" id="part2-tail"><rect fill="#E2E2F0" height="30.2969" rx="2.5" ry="2.5" style="stroke:#181818;stroke-width:0.5;" width="58.9189" x="189.4116" y="397.3281"/><text fill="#000000" font-family="sans-serif" font-size="14" lengthAdjust="spacing" textLength="44.9189" x="196.4116" y="417.3232">Form1</text></g><g class="message" data-entity-1="part1" data-entity-2="part2" id="msg1"><polygon fill="#181818" points="206.8711,145.7266,216.8711,149.7266,206.8711,153.7266,210.8711,149.7266" style="stroke:#181818;stroke-width:1;"/><line style="stroke:#181818;stroke-width:1;" x1="38.9551" x2="212.8711" y1="149.7266" y2="149.7266"/><text fill="#000000" font-family="sans-serif" font-size="13" lengthAdjust="spacing" textLength="40.0123" x="45.9551" y="144.6606">&#50545; &#49884;&#51089;</text></g><g class="message" data-entity-1="part2" data-entity-2="part2" id="msg2"><line style="stroke:#181818;stroke-width:1;" x1="218.8711" x2="260.8711" y1="178.8594" y2="178.8594"/><line style="stroke:#181818;stroke-width:1;" x1="260.8711" x2="260.8711" y1="178.8594" y2="191.8594"/><line style="stroke:#181818;stroke-width:1;" x1="219.8711" x2="260.8711" y1="191.8594" y2="191.8594"/><polygon fill="#181818" points="229.8711,187.8594,219.8711,191.8594,229.8711,195.8594,225.8711,191.8594" style="stroke:#181818;stroke-width:1;"/><text fill="#000000" font-family="sans-serif" font-size="13" lengthAdjust="spacing" textLength="121.6737" x="225.8711" y="173.7935">&#49345;&#53468;&#48148;/&#47784;&#46300; UI &#52488;&#44592;&#54868;</text></g><g class="message" data-entity-1="part2" data-entity-2="part2" id="msg3"><line style="stroke:#181818;stroke-width:1;" x1="218.8711" x2="260.8711" y1="220.9922" y2="220.9922"/><line style="stroke:#181818;stroke-width:1;" x1="260.8711" x2="260.8711" y1="220.9922" y2="233.9922"/><line style="stroke:#181818;stroke-width:1;" x1="219.8711" x2="260.8711" y1="233.9922" y2="233.9922"/><polygon fill="#181818" points="229.8711,229.9922,219.8711,233.9922,229.8711,237.9922,225.8711,233.9922" style="stroke:#181818;stroke-width:1;"/><text fill="#000000" font-family="sans-serif" font-size="13" lengthAdjust="spacing" textLength="114.645" x="225.8711" y="215.9263">InitializeWebView</text></g><path d="M10,248.9922 L74.4429,248.9922 L74.4429,256.125 L64.4429,266.125 L10,266.125 L10,248.9922" fill="#EEEEEE" style="stroke:#000000;stroke-width:1.5;"/><rect fill="none" height="132.3359" style="stroke:#000000;stroke-width:1.5;" width="383.8648" x="10" y="248.9922"/><text fill="#000000" font-family="sans-serif" font-size="13" font-weight="bold" lengthAdjust="spacing" textLength="19.4429" x="25" y="262.0591">alt</text><text fill="#000000" font-family="sans-serif" font-size="11" font-weight="bold" lengthAdjust="spacing" textLength="78.4334" x="89.4429" y="261.2026">[&#51648;&#46020; &#47196;&#46377; &#49457;&#44277;]</text><g class="message" data-entity-1="part2" data-entity-2="part2" id="msg4"><line style="stroke:#181818;stroke-width:1;" x1="218.8711" x2="260.8711" y1="287.2578" y2="287.2578"/><line style="stroke:#181818;stroke-width:1;" x1="260.8711" x2="260.8711" y1="287.2578" y2="300.2578"/><line style="stroke:#181818;stroke-width:1;" x1="219.8711" x2="260.8711" y1="300.2578" y2="300.2578"/><polygon fill="#181818" points="229.8711,296.2578,219.8711,300.2578,229.8711,304.2578,225.8711,300.2578" style="stroke:#181818;stroke-width:1;"/><text fill="#000000" font-family="sans-serif" font-size="13" lengthAdjust="spacing" textLength="155.9937" x="225.8711" y="282.1919">UpdateMapCursorAsync</text></g><g class="message" data-entity-1="part2" data-entity-2="part1" id="msg5"><polygon fill="#181818" points="49.9551,325.3906,39.9551,329.3906,49.9551,333.3906,45.9551,329.3906" style="stroke:#181818;stroke-width:1;"/><line style="stroke:#181818;stroke-width:1;stroke-dasharray:2,2;" x1="43.9551" x2="217.8711" y1="329.3906" y2="329.3906"/><text fill="#000000" font-family="sans-serif" font-size="13" lengthAdjust="spacing" textLength="139.8237" x="55.9551" y="324.3247">"&#51648;&#46020;&#44032; &#51456;&#48708;&#46104;&#50632;&#49845;&#45768;&#45796;."</text></g><line style="stroke:#000000;stroke-width:1;stroke-dasharray:2,2;" x1="10" x2="393.8648" y1="338.3906" y2="338.3906"/><text fill="#000000" font-family="sans-serif" font-size="11" font-weight="bold" lengthAdjust="spacing" textLength="78.4334" x="15" y="348.6011">[&#51648;&#46020; &#47196;&#46377; &#49892;&#54056;]</text><g class="message" data-entity-1="part2" data-entity-2="part1" id="msg6"><polygon fill="#181818" points="49.9551,369.3281,39.9551,373.3281,49.9551,377.3281,45.9551,373.3281" style="stroke:#181818;stroke-width:1;"/><line style="stroke:#181818;stroke-width:1;stroke-dasharray:2,2;" x1="43.9551" x2="217.8711" y1="373.3281" y2="373.3281"/><text fill="#000000" font-family="sans-serif" font-size="13" lengthAdjust="spacing" textLength="155.916" x="55.9551" y="368.2622">"&#51648;&#46020; &#47196;&#46377;&#50640; &#49892;&#54056;&#54664;&#49845;&#45768;&#45796;."</text></g><?plantuml-src VOvDIyD048Rl-ok6tgFjjGT10eM2zHOzh-aY2p4RDYj5Jv7c48nWnMWLWY04h9vIjA1_AJFv3twau4V1uxppp3ElaSOJuDYMFTYsskqERAbzwKBFKoF6k6kK1YSKcWLS6-dAWFi6UaeVT1ZxpC7QQ4Re0btDWTASxYvO4_tSZK_gSOvbjevFCxpCmUa3lIJLQrdVPgjutvT6SayUYrsnjoF5Y77F03r4U1u3tkUOFGB5y-fvmG1MhfrWo8qOyC0-rA7Ic-6Hxtvp7-1Nyowq6c5LHa15X6ynJcvecj3f0jC4qsAjnOGNYhz_qw8-c_tZMu8qdIpP-lgtqn--0m00?></g></svg>